ply
format ascii 1.0
element vertex 192
property float x
property float y
property float z
element face 112
property list uchar uint vertex_indices
end_header
-0.320967 0.115047 0.976624
-0.339625 0.123297 0.828018
-0.360701 -0.025110 0.822426
-0.342042 -0.033360 0.971032
-0.173631 0.094863 0.957004
-0.194706 -0.053543 0.951412
-0.213365 -0.045294 0.802806
-0.192290 0.103113 0.808398
-0.192290 0.103113 0.808398
-0.213365 -0.045294 0.802806
-0.360701 -0.025110 0.822426
-0.339625 0.123297 0.828018
-0.173631 0.094863 0.957004
-0.320967 0.115047 0.976624
-0.342042 -0.033360 0.971032
-0.194706 -0.053543 0.951412
-0.194706 -0.053543 0.951412
-0.342042 -0.033360 0.971032
-0.360701 -0.025110 0.822426
-0.213365 -0.045294 0.802806
-0.173631 0.094863 0.957004
-0.192290 0.103113 0.808398
-0.339625 0.123297 0.828018
-0.320967 0.115047 0.976624
-0.317600 0.105040 0.834636
-0.331678 0.113610 0.715773
-0.345804 -0.005355 0.708868
-0.331726 -0.013926 0.827731
-0.199269 0.091858 0.819671
-0.213395 -0.027108 0.812766
-0.227472 -0.018537 0.693904
-0.213346 0.100428 0.700808
-0.213346 0.100428 0.700808
-0.227472 -0.018537 0.693904
-0.345804 -0.005355 0.708868
-0.331678 0.113610 0.715773
-0.199269 0.091858 0.819671
-0.317600 0.105040 0.834636
-0.331726 -0.013926 0.827731
-0.213395 -0.027108 0.812766
-0.213395 -0.027108 0.812766
-0.331726 -0.013926 0.827731
-0.345804 -0.005355 0.708868
-0.227472 -0.018537 0.693904
-0.199269 0.091858 0.819671
-0.213346 0.100428 0.700808
-0.331678 0.113610 0.715773
-0.317600 0.105040 0.834636
-0.367116 0.056936 0.868488
-0.353486 0.053221 0.982956
-0.343295 0.052401 0.981327
-0.356925 0.056116 0.866859
-0.376422 0.052509 0.869478
-0.362792 0.048794 0.983946
-0.353486 0.053221 0.982956
-0.367116 0.056936 0.868488
-0.376422 0.052509 0.869478
-0.382350 0.044022 0.869562
-0.368720 0.040307 0.984030
-0.362792 0.048794 0.983946
-0.382350 0.044022 0.869562
-0.383311 0.033749 0.868719
-0.369682 0.030034 0.983188
-0.368720 0.040307 0.984030
-0.383311 0.033749 0.868719
-0.379049 0.024442 0.867175
-0.365419 0.020727 0.981643
-0.369682 0.030034 0.983188
-0.379049 0.024442 0.867175
-0.370704 0.018595 0.865343
-0.357074 0.014880 0.979811
-0.365419 0.020727 0.981643
-0.370704 0.018595 0.865343
-0.360513 0.017775 0.863714
-0.346883 0.014060 0.978182
-0.357074 0.014880 0.979811
-0.351207 0.022201 0.862724
-0.337577 0.018486 0.977193
-0.346883 0.014060 0.978182
-0.360513 0.017775 0.863714
-0.345279 0.030688 0.862640
-0.331649 0.026973 0.977108
-0.337577 0.018486 0.977193
-0.351207 0.022201 0.862724
-0.344317 0.040962 0.863483
-0.330688 0.037247 0.977951
-0.331649 0.026973 0.977108
-0.345279 0.030688 0.862640
-0.348580 0.050269 0.865027
-0.334950 0.046554 0.979495
-0.330688 0.037247 0.977951
-0.344317 0.040962 0.863483
-0.356925 0.056116 0.866859
-0.343295 0.052401 0.981327
-0.334950 0.046554 0.979495
-0.348580 0.050269 0.865027
-0.353486 0.053221 0.982956
-0.362792 0.048794 0.983946
-0.368720 0.040307 0.984030
-0.369682 0.030034 0.983188
-0.365419 0.020727 0.981643
-0.357074 0.014880 0.979811
-0.346883 0.014060 0.978182
-0.337577 0.018486 0.977193
-0.331649 0.026973 0.977108
-0.330688 0.037247 0.977951
-0.334950 0.046554 0.979495
-0.343295 0.052401 0.981327
-0.344317 0.040962 0.863483
-0.345279 0.030688 0.862640
-0.351207 0.022201 0.862724
-0.360513 0.017775 0.863714
-0.370704 0.018595 0.865343
-0.379049 0.024442 0.867175
-0.383311 0.033749 0.868719
-0.382350 0.044022 0.869562
-0.376422 0.052509 0.869478
-0.367116 0.056936 0.868488
-0.356925 0.056116 0.866859
-0.348580 0.050269 0.865027
-0.364780 0.038364 0.967953
-0.355458 0.037506 1.035661
-0.351575 0.042039 1.035198
-0.360897 0.042897 0.967490
-0.365908 0.032485 0.967969
-0.356586 0.031626 1.035676
-0.355458 0.037506 1.035661
-0.364780 0.038364 0.967953
-0.363978 0.026834 0.967533
-0.354656 0.025976 1.035241
-0.356586 0.031626 1.035676
-0.365908 0.032485 0.967969
-0.359509 0.022927 0.966763
-0.350187 0.022069 1.034471
-0.354656 0.025976 1.035241
-0.363978 0.026834 0.967533
-0.353697 0.021809 0.965864
-0.344375 0.020951 1.033572
-0.350187 0.022069 1.034471
-0.359509 0.022927 0.966763
-0.348099 0.023781 0.965078
-0.338777 0.022923 1.032786
-0.344375 0.020951 1.033572
-0.353697 0.021809 0.965864
-0.344216 0.028314 0.964615
-0.334894 0.027456 1.032323
-0.338777 0.022923 1.032786
-0.348099 0.023781 0.965078
-0.343088 0.034193 0.964599
-0.333766 0.033335 1.032307
-0.334894 0.027456 1.032323
-0.344216 0.028314 0.964615
-0.345018 0.039843 0.965035
-0.335696 0.038985 1.032743
-0.333766 0.033335 1.032307
-0.343088 0.034193 0.964599
-0.349487 0.043751 0.965805
-0.340165 0.042893 1.033513
-0.335696 0.038985 1.032743
-0.345018 0.039843 0.965035
-0.355299 0.044868 0.966704
-0.345977 0.044010 1.034411
-0.340165 0.042893 1.033513
-0.349487 0.043751 0.965805
-0.360897 0.042897 0.967490
-0.351575 0.042039 1.035198
-0.345977 0.044010 1.034411
-0.355299 0.044868 0.966704
-0.355458 0.037506 1.035661
-0.356586 0.031626 1.035676
-0.354656 0.025976 1.035241
-0.350187 0.022069 1.034471
-0.344375 0.020951 1.033572
-0.338777 0.022923 1.032786
-0.334894 0.027456 1.032323
-0.333766 0.033335 1.032307
-0.335696 0.038985 1.032743
-0.340165 0.042893 1.033513
-0.345977 0.044010 1.034411
-0.351575 0.042039 1.035198
-0.349487 0.043751 0.965805
-0.345018 0.039843 0.965035
-0.343088 0.034193 0.964599
-0.344216 0.028314 0.964615
-0.348099 0.023781 0.965078
-0.353697 0.021809 0.965864
-0.359509 0.022927 0.966763
-0.363978 0.026834 0.967533
-0.365908 0.032485 0.967969
-0.364780 0.038364 0.967953
-0.360897 0.042897 0.967490
-0.355299 0.044868 0.966704
3 0 1 2
3 2 3 0
3 4 5 6
3 6 7 4
3 8 9 10
3 10 11 8
3 12 13 14
3 14 15 12
3 16 17 18
3 18 19 16
3 20 21 22
3 22 23 20
3 24 25 26
3 26 27 24
3 28 29 30
3 30 31 28
3 32 33 34
3 34 35 32
3 36 37 38
3 38 39 36
3 40 41 42
3 42 43 40
3 44 45 46
3 46 47 44
3 48 49 50
3 50 51 48
3 52 53 54
3 54 55 52
3 56 57 58
3 58 59 56
3 60 61 62
3 62 63 60
3 64 65 66
3 66 67 64
3 68 69 70
3 70 71 68
3 72 73 74
3 74 75 72
3 76 77 78
3 78 79 76
3 80 81 82
3 82 83 80
3 84 85 86
3 86 87 84
3 88 89 90
3 90 91 88
3 92 93 94
3 94 95 92
3 96 97 98
3 98 99 100
3 100 101 102
3 98 100 102
3 102 103 104
3 104 105 106
3 102 104 106
3 98 102 106
3 96 98 106
3 107 96 106
3 108 109 110
3 110 111 112
3 112 113 114
3 110 112 114
3 114 115 116
3 116 117 118
3 114 116 118
3 110 114 118
3 108 110 118
3 119 108 118
3 120 121 122
3 122 123 120
3 124 125 126
3 126 127 124
3 128 129 130
3 130 131 128
3 132 133 134
3 134 135 132
3 136 137 138
3 138 139 136
3 140 141 142
3 142 143 140
3 144 145 146
3 146 147 144
3 148 149 150
3 150 151 148
3 152 153 154
3 154 155 152
3 156 157 158
3 158 159 156
3 160 161 162
3 162 163 160
3 164 165 166
3 166 167 164
3 168 169 170
3 170 171 172
3 172 173 174
3 170 172 174
3 174 175 176
3 176 177 178
3 174 176 178
3 170 174 178
3 168 170 178
3 179 168 178
3 180 181 182
3 182 183 184
3 184 185 186
3 182 184 186
3 186 187 188
3 188 189 190
3 186 188 190
3 182 186 190
3 180 182 190
3 191 180 190
