ply
format ascii 1.0
comment Created by Blender 2.79 (sub 0) - www.blender.org, source file: ''
element vertex 192
property float x
property float y
property float z
element face 112
property list uchar uint vertex_indices
end_header
-0.398252 0.976624 -0.115047
-0.416910 0.828018 -0.123297
-0.437986 0.822426 0.025110
-0.419327 0.971032 0.033360
-0.250916 0.957004 -0.094863
-0.271991 0.951412 0.053543
-0.290650 0.802806 0.045294
-0.269575 0.808398 -0.103113
-0.269575 0.808398 -0.103113
-0.290650 0.802806 0.045294
-0.437986 0.822426 0.025110
-0.416910 0.828018 -0.123297
-0.250916 0.957004 -0.094863
-0.398252 0.976624 -0.115047
-0.419327 0.971032 0.033360
-0.271991 0.951412 0.053543
-0.271991 0.951412 0.053543
-0.419327 0.971032 0.033360
-0.437986 0.822426 0.025110
-0.290650 0.802806 0.045294
-0.250916 0.957004 -0.094863
-0.269575 0.808398 -0.103113
-0.416910 0.828018 -0.123297
-0.398252 0.976624 -0.115047
-0.394885 0.834636 -0.105040
-0.408963 0.715773 -0.113610
-0.423089 0.708868 0.005355
-0.409011 0.827731 0.013926
-0.276554 0.819671 -0.091858
-0.290680 0.812766 0.027108
-0.304757 0.693904 0.018537
-0.290631 0.700808 -0.100428
-0.290631 0.700808 -0.100428
-0.304757 0.693904 0.018537
-0.423089 0.708868 0.005355
-0.408963 0.715773 -0.113610
-0.276554 0.819671 -0.091858
-0.394885 0.834636 -0.105040
-0.409011 0.827731 0.013926
-0.290680 0.812766 0.027108
-0.290680 0.812766 0.027108
-0.409011 0.827731 0.013926
-0.423089 0.708868 0.005355
-0.304757 0.693904 0.018537
-0.276554 0.819671 -0.091858
-0.290631 0.700808 -0.100428
-0.408963 0.715773 -0.113610
-0.394885 0.834636 -0.105040
-0.444401 0.868488 -0.056936
-0.430771 0.982956 -0.053221
-0.420580 0.981327 -0.052401
-0.434210 0.866859 -0.056116
-0.453707 0.869478 -0.052509
-0.440077 0.983946 -0.048794
-0.430771 0.982956 -0.053221
-0.444401 0.868488 -0.056936
-0.453707 0.869478 -0.052509
-0.459635 0.869562 -0.044022
-0.446005 0.984030 -0.040307
-0.440077 0.983946 -0.048794
-0.459635 0.869562 -0.044022
-0.460596 0.868719 -0.033749
-0.446967 0.983188 -0.030034
-0.446005 0.984030 -0.040307
-0.460596 0.868719 -0.033749
-0.456334 0.867175 -0.024442
-0.442704 0.981643 -0.020727
-0.446967 0.983188 -0.030034
-0.456334 0.867175 -0.024442
-0.447989 0.865343 -0.018595
-0.434359 0.979811 -0.014880
-0.442704 0.981643 -0.020727
-0.447989 0.865343 -0.018595
-0.437798 0.863714 -0.017775
-0.424168 0.978182 -0.014060
-0.434359 0.979811 -0.014880
-0.428492 0.862724 -0.022201
-0.414862 0.977193 -0.018486
-0.424168 0.978182 -0.014060
-0.437798 0.863714 -0.017775
-0.422564 0.862640 -0.030688
-0.408934 0.977108 -0.026973
-0.414862 0.977193 -0.018486
-0.428492 0.862724 -0.022201
-0.421602 0.863483 -0.040962
-0.407973 0.977951 -0.037247
-0.408934 0.977108 -0.026973
-0.422564 0.862640 -0.030688
-0.425865 0.865027 -0.050269
-0.412235 0.979495 -0.046554
-0.407973 0.977951 -0.037247
-0.421602 0.863483 -0.040962
-0.434210 0.866859 -0.056116
-0.420580 0.981327 -0.052401
-0.412235 0.979495 -0.046554
-0.425865 0.865027 -0.050269
-0.430771 0.982956 -0.053221
-0.440077 0.983946 -0.048794
-0.446005 0.984030 -0.040307
-0.446967 0.983188 -0.030034
-0.442704 0.981643 -0.020727
-0.434359 0.979811 -0.014880
-0.424168 0.978182 -0.014060
-0.414862 0.977193 -0.018486
-0.408934 0.977108 -0.026973
-0.407973 0.977951 -0.037247
-0.412235 0.979495 -0.046554
-0.420580 0.981327 -0.052401
-0.421602 0.863483 -0.040962
-0.422564 0.862640 -0.030688
-0.428492 0.862724 -0.022201
-0.437798 0.863714 -0.017775
-0.447989 0.865343 -0.018595
-0.456334 0.867175 -0.024442
-0.460596 0.868719 -0.033749
-0.459635 0.869562 -0.044022
-0.453707 0.869478 -0.052509
-0.444401 0.868488 -0.056936
-0.434210 0.866859 -0.056116
-0.425865 0.865027 -0.050269
-0.442065 0.967953 -0.038364
-0.432743 1.035661 -0.037506
-0.428860 1.035198 -0.042039
-0.438182 0.967490 -0.042897
-0.443193 0.967969 -0.032485
-0.433871 1.035676 -0.031626
-0.432743 1.035661 -0.037506
-0.442065 0.967953 -0.038364
-0.441263 0.967533 -0.026834
-0.431941 1.035241 -0.025976
-0.433871 1.035676 -0.031626
-0.443193 0.967969 -0.032485
-0.436794 0.966763 -0.022927
-0.427472 1.034471 -0.022069
-0.431941 1.035241 -0.025976
-0.441263 0.967533 -0.026834
-0.430982 0.965864 -0.021809
-0.421660 1.033572 -0.020951
-0.427472 1.034471 -0.022069
-0.436794 0.966763 -0.022927
-0.425384 0.965078 -0.023781
-0.416062 1.032786 -0.022923
-0.421660 1.033572 -0.020951
-0.430982 0.965864 -0.021809
-0.421501 0.964615 -0.028314
-0.412179 1.032323 -0.027456
-0.416062 1.032786 -0.022923
-0.425384 0.965078 -0.023781
-0.420373 0.964599 -0.034193
-0.411051 1.032307 -0.033335
-0.412179 1.032323 -0.027456
-0.421501 0.964615 -0.028314
-0.422303 0.965035 -0.039843
-0.412981 1.032743 -0.038985
-0.411051 1.032307 -0.033335
-0.420373 0.964599 -0.034193
-0.426772 0.965805 -0.043751
-0.417450 1.033513 -0.042893
-0.412981 1.032743 -0.038985
-0.422303 0.965035 -0.039843
-0.432584 0.966704 -0.044868
-0.423262 1.034411 -0.044010
-0.417450 1.033513 -0.042893
-0.426772 0.965805 -0.043751
-0.438182 0.967490 -0.042897
-0.428860 1.035198 -0.042039
-0.423262 1.034411 -0.044010
-0.432584 0.966704 -0.044868
-0.432743 1.035661 -0.037506
-0.433871 1.035676 -0.031626
-0.431941 1.035241 -0.025976
-0.427472 1.034471 -0.022069
-0.421660 1.033572 -0.020951
-0.416062 1.032786 -0.022923
-0.412179 1.032323 -0.027456
-0.411051 1.032307 -0.033335
-0.412981 1.032743 -0.038985
-0.417450 1.033513 -0.042893
-0.423262 1.034411 -0.044010
-0.428860 1.035198 -0.042039
-0.426772 0.965805 -0.043751
-0.422303 0.965035 -0.039843
-0.420373 0.964599 -0.034193
-0.421501 0.964615 -0.028314
-0.425384 0.965078 -0.023781
-0.430982 0.965864 -0.021809
-0.436794 0.966763 -0.022927
-0.441263 0.967533 -0.026834
-0.443193 0.967969 -0.032485
-0.442065 0.967953 -0.038364
-0.438182 0.967490 -0.042897
-0.432584 0.966704 -0.044868
3 0 1 2
3 3 0 2
3 4 5 6
3 6 7 4
3 8 9 10
3 10 11 8
3 12 13 14
3 14 15 12
3 16 17 18
3 18 19 16
3 20 21 22
3 22 23 20
3 24 25 26
3 26 27 24
3 28 29 30
3 30 31 28
3 32 33 34
3 34 35 32
3 36 37 38
3 38 39 36
3 40 41 42
3 42 43 40
3 44 45 46
3 46 47 44
3 48 49 50
3 50 51 48
3 52 53 54
3 54 55 52
3 56 57 58
3 58 59 56
3 60 61 62
3 62 63 60
3 64 65 66
3 66 67 64
3 68 69 70
3 70 71 68
3 72 73 74
3 74 75 72
3 76 77 78
3 78 79 76
3 80 81 82
3 82 83 80
3 84 85 86
3 86 87 84
3 88 89 90
3 90 91 88
3 92 93 94
3 94 95 92
3 96 97 98
3 98 99 100
3 100 101 102
3 98 100 102
3 102 103 104
3 104 105 106
3 102 104 106
3 98 102 106
3 96 98 106
3 107 96 106
3 108 109 110
3 110 111 112
3 112 113 114
3 110 112 114
3 114 115 116
3 116 117 118
3 114 116 118
3 110 114 118
3 108 110 118
3 119 108 118
3 120 121 122
3 122 123 120
3 124 125 126
3 126 127 124
3 128 129 130
3 130 131 128
3 132 133 134
3 134 135 132
3 136 137 138
3 138 139 136
3 140 141 142
3 142 143 140
3 144 145 146
3 146 147 144
3 148 149 150
3 150 151 148
3 152 153 154
3 154 155 152
3 156 157 158
3 158 159 156
3 160 161 162
3 162 163 160
3 164 165 166
3 166 167 164
3 168 169 170
3 170 171 172
3 172 173 174
3 170 172 174
3 174 175 176
3 176 177 178
3 174 176 178
3 170 174 178
3 168 170 178
3 179 168 178
3 180 181 182
3 182 183 184
3 184 185 186
3 182 184 186
3 186 187 188
3 188 189 190
3 186 188 190
3 182 186 190
3 180 182 190
3 191 180 190
