ply
format ascii 1.0
element vertex 192
property float x
property float y
property float z
element face 112
property list uchar uint vertex_indices
end_header
0.331630	0.126865	0.822743
0.315520	0.118853	0.971660
0.337270	-0.029455	0.966034
0.353379	-0.021443	0.817117
0.189732	-0.050443	0.948945
0.167982	0.097865	0.954571
0.184092	0.105876	0.805654
0.205841	-0.042432	0.800028
0.205841	-0.042432	0.800028
0.184092	0.105876	0.805654
0.331630	0.126865	0.822743
0.353379	-0.021443	0.817117
0.315520	0.118853	0.971660
0.167982	0.097865	0.954571
0.189732	-0.050443	0.948945
0.337270	-0.029455	0.966034
0.337270	-0.029455	0.966034
0.189732	-0.050443	0.948945
0.205841	-0.042432	0.800028
0.353379	-0.021443	0.817117
0.184092	0.105876	0.805654
0.167982	0.097865	0.954571
0.315520	0.118853	0.971660
0.331630	0.126865	0.822743
0.321842	0.116885	0.710669
0.309814	0.108509	0.829771
0.324441	-0.010397	0.822886
0.336469	-0.002021	0.703784
0.205944	-0.024224	0.809947
0.191318	0.094683	0.816832
0.203346	0.103058	0.697730
0.217972	-0.015848	0.690845
0.217972	-0.015848	0.690845
0.203346	0.103058	0.697730
0.321842	0.116885	0.710669
0.336469	-0.002021	0.703784
0.309814	0.108509	0.829771
0.191318	0.094683	0.816832
0.205944	-0.024224	0.809947
0.324441	-0.010397	0.822886
0.324441	-0.010397	0.822886
0.205944	-0.024224	0.809947
0.217972	-0.015848	0.690845
0.336469	-0.002021	0.703784
0.203346	0.103058	0.697730
0.191318	0.094683	0.816832
0.309814	0.108509	0.829771
0.321842	0.116885	0.710669
0.336747	0.068586	0.852892
0.326882	0.066007	0.970657
0.334878	0.072529	0.971493
0.344743	0.075108	0.853729
0.333087	0.058922	0.852262
0.323223	0.056343	0.970027
0.326882	0.066007	0.970657
0.336747	0.068586	0.852892
0.334744	0.048706	0.852008
0.324880	0.046127	0.969773
0.323223	0.056343	0.970027
0.333087	0.058922	0.852262
0.341275	0.040675	0.852198
0.331411	0.038096	0.969963
0.324880	0.046127	0.969773
0.334744	0.048706	0.852008
0.350929	0.036981	0.852781
0.341064	0.034403	0.970545
0.331411	0.038096	0.969963
0.341275	0.040675	0.852198
0.361119	0.038614	0.853600
0.351255	0.036036	0.971365
0.341064	0.034403	0.970545
0.350929	0.036981	0.852781
0.369115	0.045136	0.854437
0.359251	0.042558	0.972202
0.351255	0.036036	0.971365
0.361119	0.038614	0.853600
0.372775	0.054800	0.855067
0.362911	0.052222	0.972832
0.359251	0.042558	0.972202
0.369115	0.045136	0.854437
0.371117	0.065016	0.855321
0.361253	0.062438	0.973086
0.362911	0.052222	0.972832
0.372775	0.054800	0.855067
0.364587	0.073047	0.855131
0.354722	0.070469	0.972896
0.361253	0.062438	0.973086
0.371117	0.065016	0.855321
0.354933	0.076741	0.854549
0.345069	0.074162	0.972313
0.354722	0.070469	0.972896
0.364587	0.073047	0.855131
0.344743	0.075108	0.853729
0.334878	0.072529	0.971493
0.345069	0.074162	0.972313
0.354933	0.076741	0.854549
0.326882	0.066007	0.970657
0.323223	0.056343	0.970027
0.324880	0.046127	0.969773
0.331411	0.038096	0.969963
0.341064	0.034403	0.970545
0.351255	0.036036	0.971365
0.359251	0.042558	0.972202
0.362911	0.052222	0.972832
0.361253	0.062438	0.973086
0.354722	0.070469	0.972896
0.345069	0.074162	0.972313
0.334878	0.072529	0.971493
0.364587	0.073047	0.855131
0.371117	0.065016	0.855321
0.372775	0.054800	0.855067
0.369115	0.045136	0.854437
0.361119	0.038614	0.853600
0.350929	0.036981	0.852781
0.341275	0.040675	0.852198
0.334744	0.048706	0.852008
0.333087	0.058922	0.852262
0.336747	0.068586	0.852892
0.344743	0.075108	0.853729
0.354933	0.076741	0.854549
0.332360	0.059457	0.964753
0.328821	0.063086	1.032917
0.332850	0.067514	1.032905
0.336389	0.063885	0.964741
0.331082	0.053612	0.964934
0.327543	0.057241	1.033097
0.328821	0.063086	1.032917
0.332360	0.059457	0.964753
0.332897	0.047915	0.965234
0.329358	0.051544	1.033397
0.327543	0.057241	1.033097
0.331082	0.053612	0.964934
0.337318	0.043893	0.965572
0.333779	0.047522	1.033736
0.329358	0.051544	1.033397
0.332897	0.047915	0.965234
0.343161	0.042624	0.965860
0.339622	0.046253	1.034023
0.333779	0.047522	1.033736
0.337318	0.043893	0.965572
0.348861	0.044448	0.966018
0.345322	0.048077	1.034182
0.339622	0.046253	1.034023
0.343161	0.042624	0.965860
0.352890	0.048876	0.966006
0.349351	0.052505	1.034169
0.345322	0.048077	1.034182
0.348861	0.044448	0.966018
0.354168	0.054722	0.965825
0.350629	0.058351	1.033989
0.349351	0.052505	1.034169
0.352890	0.048876	0.966006
0.352353	0.060419	0.965526
0.348814	0.064047	1.033689
0.350629	0.058351	1.033989
0.354168	0.054722	0.965825
0.347932	0.064440	0.965187
0.344393	0.068069	1.033350
0.348814	0.064047	1.033689
0.352353	0.060419	0.965526
0.342089	0.065709	0.964899
0.338550	0.069338	1.033063
0.344393	0.068069	1.033350
0.347932	0.064440	0.965187
0.336389	0.063885	0.964741
0.332850	0.067514	1.032905
0.338550	0.069338	1.033063
0.342089	0.065709	0.964899
0.328821	0.063086	1.032917
0.327543	0.057241	1.033097
0.329358	0.051544	1.033397
0.333779	0.047522	1.033736
0.339622	0.046253	1.034023
0.345322	0.048077	1.034182
0.349351	0.052505	1.034169
0.350629	0.058351	1.033989
0.348814	0.064047	1.033689
0.344393	0.068069	1.033350
0.338550	0.069338	1.033063
0.332850	0.067514	1.032905
0.347932	0.064440	0.965187
0.352353	0.060419	0.965526
0.354168	0.054722	0.965825
0.352890	0.048876	0.966006
0.348861	0.044448	0.966018
0.343161	0.042624	0.965860
0.337318	0.043893	0.965572
0.332897	0.047915	0.965234
0.331082	0.053612	0.964934
0.332360	0.059457	0.964753
0.336389	0.063885	0.964741
0.342089	0.065709	0.964899
3 0 1 2
3 2 3 0
3 4 5 6
3 6 7 4
3 8 9 10
3 10 11 8
3 12 13 14
3 14 15 12
3 16 17 18
3 18 19 16
3 20 21 22
3 22 23 20
3 24 25 26
3 26 27 24
3 28 29 30
3 30 31 28
3 32 33 34
3 34 35 32
3 36 37 38
3 38 39 36
3 40 41 42
3 42 43 40
3 44 45 46
3 46 47 44
3 48 49 50
3 50 51 48
3 52 53 54
3 54 55 52
3 56 57 58
3 58 59 56
3 60 61 62
3 62 63 60
3 64 65 66
3 66 67 64
3 68 69 70
3 70 71 68
3 72 73 74
3 74 75 72
3 76 77 78
3 78 79 76
3 80 81 82
3 82 83 80
3 84 85 86
3 86 87 84
3 88 89 90
3 90 91 88
3 92 93 94
3 94 95 92
3 96 97 98
3 98 99 100
3 100 101 102
3 98 100 102
3 102 103 104
3 104 105 106
3 102 104 106
3 98 102 106
3 96 98 106
3 107 96 106
3 108 109 110
3 110 111 112
3 112 113 114
3 110 112 114
3 114 115 116
3 116 117 118
3 114 116 118
3 110 114 118
3 108 110 118
3 119 108 118
3 120 121 122
3 122 123 120
3 124 125 126
3 126 127 124
3 128 129 130
3 130 131 128
3 132 133 134
3 134 135 132
3 136 137 138
3 138 139 136
3 140 141 142
3 142 143 140
3 144 145 146
3 146 147 144
3 148 149 150
3 150 151 148
3 152 153 154
3 154 155 152
3 156 157 158
3 158 159 156
3 160 161 162
3 162 163 160
3 164 165 166
3 166 167 164
3 168 169 170
3 170 171 172
3 172 173 174
3 170 172 174
3 174 175 176
3 176 177 178
3 174 176 178
3 170 174 178
3 168 170 178
3 179 168 178
3 180 181 182
3 182 183 184
3 184 185 186
3 182 184 186
3 186 187 188
3 188 189 190
3 186 188 190
3 182 186 190
3 180 182 190
3 191 180 190
