ply
format ascii 1.0
comment Created by Blender 2.79 (sub 0) - www.blender.org, source file: ''
element vertex 192
property float x
property float y
property float z
element face 112
property list uchar uint vertex_indices
end_header
0.410898 0.822743 -0.126865
0.394788 0.971660 -0.118853
0.416538 0.966034 0.029455
0.432647 0.817117 0.021443
0.269000 0.948945 0.050443
0.247250 0.954571 -0.097865
0.263360 0.805654 -0.105876
0.285109 0.800028 0.042432
0.285109 0.800028 0.042432
0.263360 0.805654 -0.105876
0.410898 0.822743 -0.126865
0.432647 0.817117 0.021443
0.394788 0.971660 -0.118853
0.247250 0.954571 -0.097865
0.269000 0.948945 0.050443
0.416538 0.966034 0.029455
0.416538 0.966034 0.029455
0.269000 0.948945 0.050443
0.285109 0.800028 0.042432
0.432647 0.817117 0.021443
0.263360 0.805654 -0.105876
0.247250 0.954571 -0.097865
0.394788 0.971660 -0.118853
0.410898 0.822743 -0.126865
0.401110 0.710669 -0.116885
0.389082 0.829771 -0.108509
0.403709 0.822886 0.010397
0.415737 0.703784 0.002021
0.285212 0.809947 0.024224
0.270586 0.816832 -0.094683
0.282614 0.697730 -0.103058
0.297240 0.690845 0.015848
0.297240 0.690845 0.015848
0.282614 0.697730 -0.103058
0.401110 0.710669 -0.116885
0.415737 0.703784 0.002021
0.389082 0.829771 -0.108509
0.270586 0.816832 -0.094683
0.285212 0.809947 0.024224
0.403709 0.822886 0.010397
0.403709 0.822886 0.010397
0.285212 0.809947 0.024224
0.297240 0.690845 0.015848
0.415737 0.703784 0.002021
0.282614 0.697730 -0.103058
0.270586 0.816832 -0.094683
0.389082 0.829771 -0.108509
0.401110 0.710669 -0.116885
0.416015 0.852892 -0.068586
0.406150 0.970657 -0.066007
0.414146 0.971493 -0.072529
0.424011 0.853729 -0.075108
0.412355 0.852262 -0.058922
0.402491 0.970027 -0.056343
0.406150 0.970657 -0.066007
0.416015 0.852892 -0.068586
0.414012 0.852008 -0.048706
0.404148 0.969773 -0.046127
0.402491 0.970027 -0.056343
0.412355 0.852262 -0.058922
0.420543 0.852198 -0.040675
0.410679 0.969963 -0.038096
0.404148 0.969773 -0.046127
0.414012 0.852008 -0.048706
0.430197 0.852781 -0.036981
0.420332 0.970545 -0.034403
0.410679 0.969963 -0.038096
0.420543 0.852198 -0.040675
0.440387 0.853600 -0.038614
0.430523 0.971365 -0.036036
0.420332 0.970545 -0.034403
0.430197 0.852781 -0.036981
0.448383 0.854437 -0.045136
0.438519 0.972202 -0.042558
0.430523 0.971365 -0.036036
0.440387 0.853600 -0.038614
0.452043 0.855067 -0.054800
0.442179 0.972832 -0.052222
0.438519 0.972202 -0.042558
0.448383 0.854437 -0.045136
0.450385 0.855321 -0.065016
0.440521 0.973086 -0.062438
0.442179 0.972832 -0.052222
0.452043 0.855067 -0.054800
0.443855 0.855131 -0.073047
0.433990 0.972896 -0.070469
0.440521 0.973086 -0.062438
0.450385 0.855321 -0.065016
0.434201 0.854549 -0.076741
0.424337 0.972313 -0.074162
0.433990 0.972896 -0.070469
0.443855 0.855131 -0.073047
0.424011 0.853729 -0.075108
0.414146 0.971493 -0.072529
0.424337 0.972313 -0.074162
0.434201 0.854549 -0.076741
0.406150 0.970657 -0.066007
0.402491 0.970027 -0.056343
0.404148 0.969773 -0.046127
0.410679 0.969963 -0.038096
0.420332 0.970545 -0.034403
0.430523 0.971365 -0.036036
0.438519 0.972202 -0.042558
0.442179 0.972832 -0.052222
0.440521 0.973086 -0.062438
0.433990 0.972896 -0.070469
0.424337 0.972313 -0.074162
0.414146 0.971493 -0.072529
0.443855 0.855131 -0.073047
0.450385 0.855321 -0.065016
0.452043 0.855067 -0.054800
0.448383 0.854437 -0.045136
0.440387 0.853600 -0.038614
0.430197 0.852781 -0.036981
0.420543 0.852198 -0.040675
0.414012 0.852008 -0.048706
0.412355 0.852262 -0.058922
0.416015 0.852892 -0.068586
0.424011 0.853729 -0.075108
0.434201 0.854549 -0.076741
0.411628 0.964753 -0.059457
0.408089 1.032917 -0.063086
0.412118 1.032905 -0.067514
0.415657 0.964741 -0.063885
0.410350 0.964934 -0.053612
0.406811 1.033097 -0.057241
0.408089 1.032917 -0.063086
0.411628 0.964753 -0.059457
0.412165 0.965234 -0.047915
0.408626 1.033397 -0.051544
0.406811 1.033097 -0.057241
0.410350 0.964934 -0.053612
0.416586 0.965572 -0.043893
0.413047 1.033736 -0.047522
0.408626 1.033397 -0.051544
0.412165 0.965234 -0.047915
0.422429 0.965860 -0.042624
0.418890 1.034023 -0.046253
0.413047 1.033736 -0.047522
0.416586 0.965572 -0.043893
0.428129 0.966018 -0.044448
0.424590 1.034182 -0.048077
0.418890 1.034023 -0.046253
0.422429 0.965860 -0.042624
0.432158 0.966006 -0.048876
0.428619 1.034169 -0.052505
0.424590 1.034182 -0.048077
0.428129 0.966018 -0.044448
0.433436 0.965825 -0.054722
0.429897 1.033989 -0.058351
0.428619 1.034169 -0.052505
0.432158 0.966006 -0.048876
0.431621 0.965526 -0.060419
0.428082 1.033689 -0.064047
0.429897 1.033989 -0.058351
0.433436 0.965825 -0.054722
0.427200 0.965187 -0.064440
0.423661 1.033350 -0.068069
0.428082 1.033689 -0.064047
0.431621 0.965526 -0.060419
0.421357 0.964899 -0.065709
0.417818 1.033063 -0.069338
0.423661 1.033350 -0.068069
0.427200 0.965187 -0.064440
0.415657 0.964741 -0.063885
0.412118 1.032905 -0.067514
0.417818 1.033063 -0.069338
0.421357 0.964899 -0.065709
0.408089 1.032917 -0.063086
0.406811 1.033097 -0.057241
0.408626 1.033397 -0.051544
0.413047 1.033736 -0.047522
0.418890 1.034023 -0.046253
0.424590 1.034182 -0.048077
0.428619 1.034169 -0.052505
0.429897 1.033989 -0.058351
0.428082 1.033689 -0.064047
0.423661 1.033350 -0.068069
0.417818 1.033063 -0.069338
0.412118 1.032905 -0.067514
0.427200 0.965187 -0.064440
0.431621 0.965526 -0.060419
0.433436 0.965825 -0.054722
0.432158 0.966006 -0.048876
0.428129 0.966018 -0.044448
0.422429 0.965860 -0.042624
0.416586 0.965572 -0.043893
0.412165 0.965234 -0.047915
0.410350 0.964934 -0.053612
0.411628 0.964753 -0.059457
0.415657 0.964741 -0.063885
0.421357 0.964899 -0.065709
3 0 1 2
3 3 0 2
3 4 5 6
3 6 7 4
3 8 9 10
3 10 11 8
3 12 13 14
3 14 15 12
3 16 17 18
3 18 19 16
3 20 21 22
3 22 23 20
3 24 25 26
3 26 27 24
3 28 29 30
3 30 31 28
3 32 33 34
3 34 35 32
3 36 37 38
3 38 39 36
3 40 41 42
3 42 43 40
3 44 45 46
3 46 47 44
3 48 49 50
3 50 51 48
3 52 53 54
3 54 55 52
3 56 57 58
3 58 59 56
3 60 61 62
3 62 63 60
3 64 65 66
3 66 67 64
3 68 69 70
3 70 71 68
3 72 73 74
3 74 75 72
3 76 77 78
3 78 79 76
3 80 81 82
3 82 83 80
3 84 85 86
3 86 87 84
3 88 89 90
3 90 91 88
3 92 93 94
3 94 95 92
3 96 97 98
3 98 99 100
3 100 101 102
3 98 100 102
3 102 103 104
3 104 105 106
3 102 104 106
3 98 102 106
3 96 98 106
3 107 96 106
3 108 109 110
3 110 111 112
3 112 113 114
3 110 112 114
3 114 115 116
3 116 117 118
3 114 116 118
3 110 114 118
3 108 110 118
3 119 108 118
3 120 121 122
3 122 123 120
3 124 125 126
3 126 127 124
3 128 129 130
3 130 131 128
3 132 133 134
3 134 135 132
3 136 137 138
3 138 139 136
3 140 141 142
3 142 143 140
3 144 145 146
3 146 147 144
3 148 149 150
3 150 151 148
3 152 153 154
3 154 155 152
3 156 157 158
3 158 159 156
3 160 161 162
3 162 163 160
3 164 165 166
3 166 167 164
3 168 169 170
3 170 171 172
3 172 173 174
3 170 172 174
3 174 175 176
3 176 177 178
3 174 176 178
3 170 174 178
3 168 170 178
3 179 168 178
3 180 181 182
3 182 183 184
3 184 185 186
3 182 184 186
3 186 187 188
3 188 189 190
3 186 188 190
3 182 186 190
3 180 182 190
3 191 180 190
