ply
format ascii 1.0
comment Created by Blender 2.79 (sub 0) - www.blender.org, source file: ''
element vertex 192
property float x
property float y
property float z
element face 252
property list uchar uint vertex_indices
end_header
1.069156 -1.151160 0.222753
1.070720 -1.151160 0.222400
1.152756 -1.151160 0.204793
1.153234 -1.151160 0.204463
1.164268 -1.151160 0.197062
1.222086 -1.151160 0.155318
1.223741 -1.151160 0.154187
1.265531 -1.151160 0.087427
1.268204 -1.151160 0.083347
0.988889 -1.151160 0.207012
0.827180 -1.151160 0.246264
0.939852 -1.151160 0.172402
0.922537 -1.151160 0.159739
0.881081 -1.151160 0.088770
0.869774 -1.151160 0.008382
0.827180 -1.151160 -0.246272
0.888297 -1.151160 -0.068458
0.892020 -1.151160 -0.073855
0.932389 -1.151160 -0.131597
0.995345 -1.151160 -0.173765
1.070563 -1.151160 -0.189818
1.148969 -1.151160 -0.176622
1.325639 -1.151160 -0.246272
1.154927 -1.151160 -0.173080
1.217419 -1.151160 -0.133784
1.221640 -1.151160 -0.128168
1.263826 -1.151160 -0.069648
1.265547 -1.151160 -0.062568
1.281642 -1.151160 0.005608
1.325639 -1.151160 0.246264
1.325639 -1.151160 0.246264
1.325639 -0.256297 0.246264
0.827180 -0.301267 0.246264
0.827180 -1.151160 0.246264
0.827180 -1.151160 0.246264
0.827180 -0.301267 0.246264
0.827180 -0.301267 -0.246272
0.827180 -1.151160 -0.246272
0.827180 -1.151160 -0.246272
0.827180 -0.301267 -0.246272
1.325639 -0.256297 -0.246272
1.325639 -1.151160 -0.246272
1.325639 -1.151160 -0.246272
1.325639 -0.256297 -0.246272
1.325639 -0.256297 0.246264
1.325639 -1.151160 0.246264
1.325639 -0.256297 0.246264
1.325639 -0.256297 -0.246272
0.827180 -0.301267 -0.246272
0.827180 -0.301267 0.246264
1.070338 -1.163227 -0.206393
0.988394 -1.163968 -0.189904
0.995345 -1.151160 -0.173765
1.070563 -1.151160 -0.189818
1.154806 -1.162005 -0.190483
1.070338 -1.163227 -0.206393
1.070563 -1.151160 -0.189818
1.148969 -1.151160 -0.176622
1.067210 -1.269346 -0.271506
0.960126 -1.270476 -0.250099
0.920443 -1.163353 -0.143378
0.932389 -1.151160 -0.131597
1.154927 -1.151160 -0.173080
1.179050 -1.270279 -0.250646
1.067210 -1.269346 -0.271506
1.061626 -1.393088 -0.294506
0.945659 -1.392851 -0.271420
0.870646 -1.269645 -0.189438
0.875326 -1.161198 -0.073747
0.892020 -1.151160 -0.073855
1.228943 -1.162513 -0.144669
1.217419 -1.151160 -0.133784
0.848224 -1.391363 -0.205742
0.811724 -1.266371 -0.098481
0.888297 -1.151160 -0.068458
1.221640 -1.151160 -0.128168
1.278797 -1.275187 -0.190811
1.183058 -1.399229 -0.271840
1.061626 -1.393088 -0.294506
1.054090 -1.528370 -0.266903
0.947195 -1.524466 -0.245086
0.856596 -1.520398 -0.183814
0.784349 -1.387252 -0.107156
0.792345 -1.261508 0.009045
0.860115 -1.157938 0.008461
0.869774 -1.151160 0.008382
1.280042 -1.163408 -0.075887
1.263826 -1.151160 -0.069648
0.796940 -1.513867 -0.092250
0.763411 -1.382251 0.009387
0.814490 -1.256503 0.116704
0.876659 -1.154439 0.090674
0.881081 -1.151160 0.088770
1.265547 -1.151160 -0.062568
1.348453 -1.279517 -0.101042
1.291411 -1.410891 -0.207024
1.164949 -1.538531 -0.245972
1.054090 -1.528370 -0.266903
1.046247 -1.656626 -0.171598
0.965173 -1.649177 -0.154675
0.897220 -1.640105 -0.107112
0.852391 -1.626537 -0.037074
0.777516 -1.504918 0.015594
0.787687 -1.377278 0.125985
0.873854 -1.252656 0.207840
0.922083 -1.151594 0.160209
0.922537 -1.151160 0.159739
1.297907 -1.162467 0.005526
1.281642 -1.151160 0.005608
0.837998 -1.609523 0.044580
0.800520 -1.494600 0.122829
0.852119 -1.373399 0.224478
0.961658 -1.250763 0.268180
0.988889 -1.151160 0.207012
0.939852 -1.151160 0.172402
1.278733 -1.158959 0.087343
1.268204 -1.151160 0.083347
1.372735 -1.279284 0.005222
1.367943 -1.421318 -0.109866
1.263195 -1.552071 -0.186065
1.130289 -1.663995 -0.155204
1.046247 -1.656626 -0.171598
1.049503 -1.716895 -0.021611
1.005325 -1.710579 -0.013562
0.968782 -1.700438 0.010515
0.944594 -1.686952 0.046504
0.936216 -1.671362 0.088531
0.855621 -1.591344 0.125099
0.860942 -1.485209 0.212667
0.947139 -1.371851 0.289398
1.065526 -1.250767 0.288303
1.069156 -1.151160 0.222753
1.265531 -1.151160 0.087427
1.345167 -1.273133 0.112073
1.395138 -1.423993 0.005112
1.331814 -1.562077 -0.096571
1.204128 -1.668705 -0.108952
0.944811 -1.655870 0.130100
0.901759 -1.575430 0.192166
0.948735 -1.479412 0.271245
1.058358 -1.373037 0.310639
1.174668 -1.253842 0.265420
1.152756 -1.151160 0.204793
1.070720 -1.151160 0.222400
1.226893 -1.154147 0.157206
1.223741 -1.151160 0.154187
1.094746 -1.718937 -0.012457
1.049503 -1.716895 -0.021611
1.052369 -1.694128 0.113957
1.052369 -1.694128 0.113957
1.052369 -1.694128 0.113957
1.052369 -1.694128 0.113957
1.052369 -1.694128 0.113957
0.968878 -1.643243 0.165134
0.968609 -1.565199 0.235867
1.050790 -1.479834 0.289871
1.175838 -1.382231 0.285563
1.222086 -1.151160 0.155318
1.273816 -1.262918 0.203446
1.363402 -1.416648 0.120578
1.355519 -1.561695 0.009301
1.255032 -1.667109 -0.040162
1.133811 -1.716232 0.012288
1.052369 -1.694128 0.113957
1.052369 -1.694128 0.113957
1.004823 -1.636125 0.188781
1.046926 -1.564813 0.250776
1.158097 -1.492477 0.266761
1.283917 -1.399874 0.218818
1.164268 -1.151160 0.197062
1.153234 -1.151160 0.204463
1.272866 -1.655468 0.041356
1.052369 -1.694128 0.113957
1.052369 -1.694128 0.113957
1.048233 -1.636431 0.197947
1.128653 -1.577531 0.235427
1.256093 -1.517581 0.205866
1.327357 -1.545202 0.115629
1.160111 -1.708406 0.048868
1.052369 -1.694128 0.113957
1.052369 -1.694128 0.113957
1.092869 -1.644823 0.191209
1.201905 -1.602488 0.191209
1.052369 -1.694128 0.113957
1.169028 -1.695445 0.091785
1.052369 -1.694128 0.113957
1.131925 -1.659987 0.169049
1.253593 -1.632041 0.123074
1.052369 -1.694128 0.113957
1.158983 -1.678357 0.134178
1.052369 -1.694128 0.113957
1.052369 -1.694128 0.113957
3 0 1 2
3 2 3 4
3 4 5 6
3 6 7 8
3 9 0 10
3 11 9 10
3 12 11 10
3 13 12 10
3 14 13 10
3 14 10 15
3 16 14 15
3 17 16 15
3 18 17 15
3 19 18 15
3 20 19 15
3 21 20 15
3 21 15 22
3 23 21 22
3 24 23 22
3 25 24 22
3 26 25 22
3 27 26 22
3 28 27 22
3 8 28 22
3 8 22 29
3 6 8 29
3 4 6 29
3 2 4 29
3 0 2 29
3 10 0 29
3 30 31 32
3 32 33 30
3 34 35 36
3 36 37 34
3 38 39 40
3 40 41 38
3 42 43 44
3 44 45 42
3 46 47 48
3 48 49 46
3 50 51 52
3 52 53 50
3 54 55 56
3 56 57 54
3 58 59 51
3 51 50 58
3 51 60 61
3 61 52 51
3 62 54 57
3 54 63 64
3 64 55 54
3 58 65 66
3 66 59 58
3 67 60 51
3 51 59 67
3 60 68 69
3 69 61 60
3 70 54 62
3 62 71 70
3 72 67 59
3 59 66 72
3 60 67 73
3 73 68 60
3 69 68 74
3 75 70 71
3 70 76 63
3 63 54 70
3 63 77 78
3 78 64 63
3 65 79 80
3 80 66 65
3 66 80 81
3 81 72 66
3 67 72 82
3 82 73 67
3 68 73 83
3 83 84 68
3 74 68 84
3 84 85 74
3 86 70 75
3 75 87 86
3 81 88 82
3 82 72 81
3 73 82 89
3 89 83 73
3 84 83 90
3 90 91 84
3 85 84 91
3 91 92 85
3 93 86 87
3 86 94 76
3 76 70 86
3 76 95 77
3 77 63 76
3 77 96 97
3 97 78 77
3 79 98 99
3 99 80 79
3 80 99 100
3 100 81 80
3 81 100 101
3 101 88 81
3 102 89 82
3 82 88 102
3 103 90 83
3 83 89 103
3 91 90 104
3 104 105 91
3 92 91 105
3 105 106 92
3 107 86 93
3 93 108 107
3 109 102 88
3 88 101 109
3 110 103 89
3 89 102 110
3 90 103 111
3 111 104 90
3 105 104 112
3 105 112 113
3 114 105 113
3 106 105 114
3 115 107 108
3 108 116 115
3 107 117 94
3 94 86 107
3 94 118 95
3 95 76 94
3 95 119 96
3 96 77 95
3 96 120 121
3 121 97 96
3 98 122 123
3 123 99 98
3 99 123 124
3 124 100 99
3 100 124 125
3 125 101 100
3 101 125 126
3 126 109 101
3 127 110 102
3 102 109 127
3 128 111 103
3 103 110 128
3 129 112 104
3 104 111 129
3 113 112 130
3 130 131 113
3 132 115 116
3 115 133 117
3 117 107 115
3 117 134 118
3 118 94 117
3 118 135 119
3 119 95 118
3 119 136 120
3 120 96 119
3 137 127 109
3 109 126 137
3 138 128 110
3 110 127 138
3 139 129 111
3 111 128 139
3 140 130 112
3 112 129 140
3 141 142 143
3 130 141 143
3 131 130 143
3 144 115 132
3 132 145 144
3 120 146 147
3 147 121 120
3 148 123 122
3 149 124 123
3 150 125 124
3 151 126 125
3 152 137 126
3 153 138 127
3 127 137 153
3 154 139 128
3 128 138 154
3 155 140 129
3 129 139 155
3 156 141 130
3 130 140 156
3 157 144 145
3 144 158 133
3 133 115 144
3 133 159 134
3 134 117 133
3 134 160 135
3 135 118 134
3 135 161 136
3 136 119 135
3 136 162 146
3 146 120 136
3 163 147 146
3 164 153 137
3 165 154 138
3 138 153 165
3 166 155 139
3 139 154 166
3 167 156 140
3 140 155 167
3 168 158 141
3 141 156 168
3 144 169 170
3 158 144 170
3 141 158 170
3 142 141 170
3 169 144 157
3 160 171 161
3 161 135 160
3 172 146 162
3 173 165 153
3 174 166 154
3 154 165 174
3 175 167 155
3 155 166 175
3 176 168 156
3 156 167 176
3 158 168 159
3 159 133 158
3 159 177 160
3 160 134 159
3 161 178 162
3 162 136 161
3 179 162 178
3 180 174 165
3 181 175 166
3 166 174 181
3 182 176 167
3 167 175 182
3 177 159 168
3 168 176 177
3 183 178 184
3 185 181 174
3 186 182 175
3 175 181 186
3 187 177 176
3 176 182 187
3 177 187 171
3 171 160 177
3 171 184 178
3 178 161 171
3 188 184 189
3 190 186 181
3 189 187 182
3 182 186 189
3 191 189 186
3 184 171 187
3 187 189 184
