ply
format ascii 1.0
element vertex 432
property float x
property float y
property float z
element face 204
property list uchar uint vertex_indices
end_header
-0.342326 0.129420 0.709353
-0.400531 0.053127 0.447339
-0.417505 -0.088217 0.494601
-0.359300 -0.011924 0.756615
-0.197633 0.102391 0.680484
-0.214607 -0.038953 0.727745
-0.272812 -0.115246 0.465731
-0.255838 0.026098 0.418470
-0.255838 0.026098 0.418470
-0.272812 -0.115246 0.465731
-0.417505 -0.088217 0.494601
-0.400531 0.053127 0.447339
-0.197633 0.102391 0.680484
-0.342326 0.129420 0.709353
-0.359300 -0.011924 0.756615
-0.214607 -0.038953 0.727745
-0.214607 -0.038953 0.727745
-0.359300 -0.011924 0.756615
-0.417505 -0.088217 0.494601
-0.272812 -0.115246 0.465731
-0.197633 0.102391 0.680484
-0.255838 0.026098 0.418470
-0.400531 0.053127 0.447339
-0.342326 0.129420 0.709353
-0.346079 -0.110358 0.473166
-0.342307 -0.101297 0.482110
-0.368111 -0.098340 0.480140
-0.342307 -0.101297 0.482110
-0.345085 -0.090713 0.489631
-0.368111 -0.098340 0.480140
-0.345085 -0.090713 0.489631
-0.353668 -0.081440 0.493714
-0.368111 -0.098340 0.480140
-0.353668 -0.081440 0.493714
-0.365756 -0.075965 0.493265
-0.368111 -0.098340 0.480140
-0.365756 -0.075965 0.493265
-0.378111 -0.075753 0.488404
-0.368111 -0.098340 0.480140
-0.378111 -0.075753 0.488404
-0.387421 -0.080862 0.480434
-0.368111 -0.098340 0.480140
-0.387421 -0.080862 0.480434
-0.391193 -0.089922 0.471490
-0.368111 -0.098340 0.480140
-0.391193 -0.089922 0.471490
-0.388416 -0.100507 0.463970
-0.368111 -0.098340 0.480140
-0.388416 -0.100507 0.463970
-0.379833 -0.109779 0.459887
-0.368111 -0.098340 0.480140
-0.379833 -0.109779 0.459887
-0.367745 -0.115255 0.460335
-0.368111 -0.098340 0.480140
-0.367745 -0.115255 0.460335
-0.355390 -0.115466 0.465196
-0.368111 -0.098340 0.480140
-0.355390 -0.115466 0.465196
-0.346079 -0.110358 0.473166
-0.368111 -0.098340 0.480140
-0.316895 -0.098438 0.477163
-0.342307 -0.101297 0.482110
-0.346079 -0.110358 0.473166
-0.323984 -0.115466 0.460354
-0.322115 -0.078545 0.491297
-0.345085 -0.090713 0.489631
-0.342307 -0.101297 0.482110
-0.316895 -0.098438 0.477163
-0.338245 -0.061119 0.498971
-0.353668 -0.081440 0.493714
-0.345085 -0.090713 0.489631
-0.322115 -0.078545 0.491297
-0.360963 -0.050828 0.498127
-0.365756 -0.075965 0.493265
-0.353668 -0.081440 0.493714
-0.338245 -0.061119 0.498971
-0.384183 -0.050430 0.488992
-0.378111 -0.075753 0.488404
-0.365756 -0.075965 0.493265
-0.360963 -0.050828 0.498127
-0.401681 -0.060031 0.474014
-0.387421 -0.080862 0.480434
-0.378111 -0.075753 0.488404
-0.384183 -0.050430 0.488992
-0.408770 -0.077060 0.457205
-0.391193 -0.089922 0.471490
-0.387421 -0.080862 0.480434
-0.401681 -0.060031 0.474014
-0.403550 -0.096952 0.443070
-0.388416 -0.100507 0.463970
-0.391193 -0.089922 0.471490
-0.408770 -0.077060 0.457205
-0.387420 -0.114378 0.435397
-0.379833 -0.109779 0.459887
-0.388416 -0.100507 0.463970
-0.403550 -0.096952 0.443070
-0.364702 -0.124669 0.436241
-0.367745 -0.115255 0.460335
-0.379833 -0.109779 0.459887
-0.387420 -0.114378 0.435397
-0.341482 -0.125067 0.445376
-0.355390 -0.115466 0.465196
-0.367745 -0.115255 0.460335
-0.364702 -0.124669 0.436241
-0.323984 -0.115466 0.460354
-0.346079 -0.110358 0.473166
-0.355390 -0.115466 0.465196
-0.341482 -0.125067 0.445376
-0.294938 -0.090106 0.465895
-0.316895 -0.098438 0.477163
-0.323984 -0.115466 0.460354
-0.304489 -0.113048 0.443249
-0.301971 -0.063305 0.484939
-0.322115 -0.078545 0.491297
-0.316895 -0.098438 0.477163
-0.294938 -0.090106 0.465895
-0.323703 -0.039827 0.495278
-0.338245 -0.061119 0.498971
-0.322115 -0.078545 0.491297
-0.301971 -0.063305 0.484939
-0.354311 -0.025962 0.494141
-0.360963 -0.050828 0.498127
-0.338245 -0.061119 0.498971
-0.323703 -0.039827 0.495278
-0.385595 -0.025426 0.481833
-0.384183 -0.050430 0.488992
-0.360963 -0.050828 0.498127
-0.354311 -0.025962 0.494141
-0.409171 -0.038362 0.461653
-0.401681 -0.060031 0.474014
-0.384183 -0.050430 0.488992
-0.385595 -0.025426 0.481833
-0.418722 -0.061304 0.439007
-0.408770 -0.077060 0.457205
-0.401681 -0.060031 0.474014
-0.409171 -0.038362 0.461653
-0.411689 -0.088105 0.419963
-0.403550 -0.096952 0.443070
-0.408770 -0.077060 0.457205
-0.418722 -0.061304 0.439007
-0.389957 -0.111583 0.409625
-0.387420 -0.114378 0.435397
-0.403550 -0.096952 0.443070
-0.411689 -0.088105 0.419963
-0.359348 -0.125448 0.410761
-0.364702 -0.124669 0.436241
-0.387420 -0.114378 0.435397
-0.389957 -0.111583 0.409625
-0.328065 -0.125984 0.423069
-0.341482 -0.125067 0.445376
-0.364702 -0.124669 0.436241
-0.359348 -0.125448 0.410761
-0.304489 -0.113048 0.443249
-0.323984 -0.115466 0.460354
-0.341482 -0.125067 0.445376
-0.328065 -0.125984 0.423069
-0.279086 -0.077308 0.449667
-0.294938 -0.090106 0.465895
-0.304489 -0.113048 0.443249
-0.289947 -0.103396 0.423915
-0.287083 -0.046831 0.471323
-0.301971 -0.063305 0.484939
-0.294938 -0.090106 0.465895
-0.279086 -0.077308 0.449667
-0.311796 -0.020132 0.483079
-0.323703 -0.039827 0.495278
-0.301971 -0.063305 0.484939
-0.287083 -0.046831 0.471323
-0.346603 -0.004366 0.481787
-0.354311 -0.025962 0.494141
-0.323703 -0.039827 0.495278
-0.311796 -0.020132 0.483079
-0.382177 -0.003756 0.467791
-0.385595 -0.025426 0.481833
-0.354311 -0.025962 0.494141
-0.346603 -0.004366 0.481787
-0.408986 -0.018466 0.444843
-0.409171 -0.038362 0.461653
-0.385595 -0.025426 0.481833
-0.382177 -0.003756 0.467791
-0.419847 -0.044555 0.419090
-0.418722 -0.061304 0.439007
-0.409171 -0.038362 0.461653
-0.408986 -0.018466 0.444843
-0.411850 -0.075032 0.397435
-0.411689 -0.088105 0.419963
-0.418722 -0.061304 0.439007
-0.419847 -0.044555 0.419090
-0.387137 -0.101730 0.385678
-0.389957 -0.111583 0.409625
-0.411689 -0.088105 0.419963
-0.411850 -0.075032 0.397435
-0.352330 -0.117497 0.386971
-0.359348 -0.125448 0.410761
-0.389957 -0.111583 0.409625
-0.387137 -0.101730 0.385678
-0.316756 -0.118107 0.400966
-0.328065 -0.125984 0.423069
-0.359348 -0.125448 0.410761
-0.352330 -0.117497 0.386971
-0.289947 -0.103396 0.423915
-0.304489 -0.113048 0.443249
-0.328065 -0.125984 0.423069
-0.316756 -0.118107 0.400966
-0.271250 -0.061586 0.430435
-0.279086 -0.077308 0.449667
-0.289947 -0.103396 0.423915
-0.282111 -0.087675 0.404683
-0.279247 -0.031109 0.452091
-0.287083 -0.046831 0.471323
-0.279086 -0.077308 0.449667
-0.271250 -0.061586 0.430435
-0.303960 -0.004410 0.463847
-0.311796 -0.020132 0.483079
-0.287083 -0.046831 0.471323
-0.279247 -0.031109 0.452091
-0.338767 0.011356 0.462554
-0.346603 -0.004366 0.481787
-0.311796 -0.020132 0.483079
-0.303960 -0.004410 0.463847
-0.374341 0.011966 0.448559
-0.382177 -0.003756 0.467791
-0.346603 -0.004366 0.481787
-0.338767 0.011356 0.462554
-0.401150 -0.002744 0.425610
-0.408986 -0.018466 0.444843
-0.382177 -0.003756 0.467791
-0.374341 0.011966 0.448559
-0.412011 -0.028833 0.399858
-0.419847 -0.044555 0.419090
-0.408986 -0.018466 0.444843
-0.401150 -0.002744 0.425610
-0.404014 -0.059310 0.378203
-0.411850 -0.075032 0.397435
-0.419847 -0.044555 0.419090
-0.412011 -0.028833 0.399858
-0.379301 -0.086008 0.366446
-0.387137 -0.101730 0.385678
-0.411850 -0.075032 0.397435
-0.404014 -0.059310 0.378203
-0.344494 -0.101775 0.367739
-0.352330 -0.117497 0.386971
-0.387137 -0.101730 0.385678
-0.379301 -0.086008 0.366446
-0.308920 -0.102385 0.381734
-0.316756 -0.118107 0.400966
-0.352330 -0.117497 0.386971
-0.344494 -0.101775 0.367739
-0.282111 -0.087675 0.404683
-0.289947 -0.103396 0.423915
-0.316756 -0.118107 0.400966
-0.308920 -0.102385 0.381734
-0.272375 -0.044837 0.410518
-0.271250 -0.061586 0.430435
-0.282111 -0.087675 0.404683
-0.281927 -0.067779 0.387872
-0.279408 -0.018036 0.429562
-0.279247 -0.031109 0.452091
-0.271250 -0.061586 0.430435
-0.272375 -0.044837 0.410518
-0.301140 0.005442 0.439901
-0.303960 -0.004410 0.463847
-0.279247 -0.031109 0.452091
-0.279408 -0.018036 0.429562
-0.331749 0.019307 0.438764
-0.338767 0.011356 0.462554
-0.303960 -0.004410 0.463847
-0.301140 0.005442 0.439901
-0.363032 0.019844 0.426456
-0.374341 0.011966 0.448559
-0.338767 0.011356 0.462554
-0.331749 0.019307 0.438764
-0.386608 0.006908 0.406276
-0.401150 -0.002744 0.425610
-0.374341 0.011966 0.448559
-0.363032 0.019844 0.426456
-0.396159 -0.016034 0.383630
-0.412011 -0.028833 0.399858
-0.401150 -0.002744 0.425610
-0.386608 0.006908 0.406276
-0.389126 -0.042835 0.364586
-0.404014 -0.059310 0.378203
-0.412011 -0.028833 0.399858
-0.396159 -0.016034 0.383630
-0.367394 -0.066314 0.354248
-0.379301 -0.086008 0.366446
-0.404014 -0.059310 0.378203
-0.389126 -0.042835 0.364586
-0.336786 -0.080179 0.355384
-0.344494 -0.101775 0.367739
-0.379301 -0.086008 0.366446
-0.367394 -0.066314 0.354248
-0.305502 -0.080715 0.367692
-0.308920 -0.102385 0.381734
-0.344494 -0.101775 0.367739
-0.336786 -0.080179 0.355384
-0.281927 -0.067779 0.387872
-0.282111 -0.087675 0.404683
-0.308920 -0.102385 0.381734
-0.305502 -0.080715 0.367692
-0.282327 -0.029081 0.392320
-0.272375 -0.044837 0.410518
-0.281927 -0.067779 0.387872
-0.289416 -0.046109 0.375512
-0.287547 -0.009188 0.406455
-0.279408 -0.018036 0.429562
-0.272375 -0.044837 0.410518
-0.282327 -0.029081 0.392320
-0.303677 0.008238 0.414128
-0.301140 0.005442 0.439901
-0.279408 -0.018036 0.429562
-0.287547 -0.009188 0.406455
-0.326395 0.018529 0.413285
-0.331749 0.019307 0.438764
-0.301140 0.005442 0.439901
-0.303677 0.008238 0.414128
-0.349615 0.018927 0.404150
-0.363032 0.019844 0.426456
-0.331749 0.019307 0.438764
-0.326395 0.018529 0.413285
-0.367113 0.009325 0.389171
-0.386608 0.006908 0.406276
-0.363032 0.019844 0.426456
-0.349615 0.018927 0.404150
-0.374203 -0.007703 0.372363
-0.396159 -0.016034 0.383630
-0.386608 0.006908 0.406276
-0.367113 0.009325 0.389171
-0.368983 -0.027595 0.358228
-0.389126 -0.042835 0.364586
-0.396159 -0.016034 0.383630
-0.374203 -0.007703 0.372363
-0.352852 -0.045022 0.350554
-0.367394 -0.066314 0.354248
-0.389126 -0.042835 0.364586
-0.368983 -0.027595 0.358228
-0.330134 -0.055313 0.351398
-0.336786 -0.080179 0.355384
-0.367394 -0.066314 0.354248
-0.352852 -0.045022 0.350554
-0.306915 -0.055711 0.360533
-0.305502 -0.080715 0.367692
-0.336786 -0.080179 0.355384
-0.330134 -0.055313 0.351398
-0.289416 -0.046109 0.375512
-0.281927 -0.067779 0.387872
-0.305502 -0.080715 0.367692
-0.306915 -0.055711 0.360533
-0.299904 -0.016219 0.378035
-0.282327 -0.029081 0.392320
-0.289416 -0.046109 0.375512
-0.303676 -0.025279 0.369091
-0.302681 -0.005634 0.385556
-0.287547 -0.009188 0.406455
-0.282327 -0.029081 0.392320
-0.299904 -0.016219 0.378035
-0.311264 0.003638 0.389639
-0.303677 0.008238 0.414128
-0.287547 -0.009188 0.406455
-0.302681 -0.005634 0.385556
-0.323352 0.009114 0.389190
-0.326395 0.018529 0.413285
-0.303677 0.008238 0.414128
-0.311264 0.003638 0.389639
-0.335707 0.009326 0.384329
-0.349615 0.018927 0.404150
-0.326395 0.018529 0.413285
-0.323352 0.009114 0.389190
-0.345018 0.004217 0.376359
-0.367113 0.009325 0.389171
-0.349615 0.018927 0.404150
-0.335707 0.009326 0.384329
-0.348790 -0.004844 0.367416
-0.374203 -0.007703 0.372363
-0.367113 0.009325 0.389171
-0.345018 0.004217 0.376359
-0.346012 -0.015428 0.359895
-0.368983 -0.027595 0.358228
-0.374203 -0.007703 0.372363
-0.348790 -0.004844 0.367416
-0.337430 -0.024700 0.355812
-0.352852 -0.045022 0.350554
-0.368983 -0.027595 0.358228
-0.346012 -0.015428 0.359895
-0.325341 -0.030176 0.356261
-0.330134 -0.055313 0.351398
-0.352852 -0.045022 0.350554
-0.337430 -0.024700 0.355812
-0.312987 -0.030388 0.361121
-0.306915 -0.055711 0.360533
-0.330134 -0.055313 0.351398
-0.325341 -0.030176 0.356261
-0.303676 -0.025279 0.369091
-0.289416 -0.046109 0.375512
-0.306915 -0.055711 0.360533
-0.312987 -0.030388 0.361121
-0.322986 -0.007801 0.369386
-0.299904 -0.016219 0.378035
-0.303676 -0.025279 0.369091
-0.322986 -0.007801 0.369386
-0.302681 -0.005634 0.385556
-0.299904 -0.016219 0.378035
-0.322986 -0.007801 0.369386
-0.311264 0.003638 0.389639
-0.302681 -0.005634 0.385556
-0.322986 -0.007801 0.369386
-0.323352 0.009114 0.389190
-0.311264 0.003638 0.389639
-0.322986 -0.007801 0.369386
-0.335707 0.009326 0.384329
-0.323352 0.009114 0.389190
-0.322986 -0.007801 0.369386
-0.345018 0.004217 0.376359
-0.335707 0.009326 0.384329
-0.322986 -0.007801 0.369386
-0.348790 -0.004844 0.367416
-0.345018 0.004217 0.376359
-0.322986 -0.007801 0.369386
-0.346012 -0.015428 0.359895
-0.348790 -0.004844 0.367416
-0.322986 -0.007801 0.369386
-0.337430 -0.024700 0.355812
-0.346012 -0.015428 0.359895
-0.322986 -0.007801 0.369386
-0.325341 -0.030176 0.356261
-0.337430 -0.024700 0.355812
-0.322986 -0.007801 0.369386
-0.312987 -0.030388 0.361121
-0.325341 -0.030176 0.356261
-0.322986 -0.007801 0.369386
-0.303676 -0.025279 0.369091
-0.312987 -0.030388 0.361121
3 0 1 2
3 2 3 0
3 4 5 6
3 6 7 4
3 8 9 10
3 10 11 8
3 12 13 14
3 14 15 12
3 16 17 18
3 18 19 16
3 20 21 22
3 22 23 20
3 24 25 26
3 27 28 29
3 30 31 32
3 33 34 35
3 36 37 38
3 39 40 41
3 42 43 44
3 45 46 47
3 48 49 50
3 51 52 53
3 54 55 56
3 57 58 59
3 60 61 62
3 62 63 60
3 64 65 66
3 66 67 64
3 68 69 70
3 70 71 68
3 72 73 74
3 74 75 72
3 76 77 78
3 78 79 76
3 80 81 82
3 82 83 80
3 84 85 86
3 86 87 84
3 88 89 90
3 90 91 88
3 92 93 94
3 94 95 92
3 96 97 98
3 98 99 96
3 100 101 102
3 102 103 100
3 104 105 106
3 106 107 104
3 108 109 110
3 110 111 108
3 112 113 114
3 114 115 112
3 116 117 118
3 118 119 116
3 120 121 122
3 122 123 120
3 124 125 126
3 126 127 124
3 128 129 130
3 130 131 128
3 132 133 134
3 134 135 132
3 136 137 138
3 138 139 136
3 140 141 142
3 142 143 140
3 144 145 146
3 146 147 144
3 148 149 150
3 150 151 148
3 152 153 154
3 154 155 152
3 156 157 158
3 158 159 156
3 160 161 162
3 162 163 160
3 164 165 166
3 166 167 164
3 168 169 170
3 170 171 168
3 172 173 174
3 174 175 172
3 176 177 178
3 178 179 176
3 180 181 182
3 182 183 180
3 184 185 186
3 186 187 184
3 188 189 190
3 190 191 188
3 192 193 194
3 194 195 192
3 196 197 198
3 198 199 196
3 200 201 202
3 202 203 200
3 204 205 206
3 206 207 204
3 208 209 210
3 210 211 208
3 212 213 214
3 214 215 212
3 216 217 218
3 218 219 216
3 220 221 222
3 222 223 220
3 224 225 226
3 226 227 224
3 228 229 230
3 230 231 228
3 232 233 234
3 234 235 232
3 236 237 238
3 238 239 236
3 240 241 242
3 242 243 240
3 244 245 246
3 246 247 244
3 248 249 250
3 250 251 248
3 252 253 254
3 254 255 252
3 256 257 258
3 258 259 256
3 260 261 262
3 262 263 260
3 264 265 266
3 266 267 264
3 268 269 270
3 270 271 268
3 272 273 274
3 274 275 272
3 276 277 278
3 278 279 276
3 280 281 282
3 282 283 280
3 284 285 286
3 286 287 284
3 288 289 290
3 290 291 288
3 292 293 294
3 294 295 292
3 296 297 298
3 298 299 296
3 300 301 302
3 302 303 300
3 304 305 306
3 306 307 304
3 308 309 310
3 310 311 308
3 312 313 314
3 314 315 312
3 316 317 318
3 318 319 316
3 320 321 322
3 322 323 320
3 324 325 326
3 326 327 324
3 328 329 330
3 330 331 328
3 332 333 334
3 334 335 332
3 336 337 338
3 338 339 336
3 340 341 342
3 342 343 340
3 344 345 346
3 346 347 344
3 348 349 350
3 350 351 348
3 352 353 354
3 354 355 352
3 356 357 358
3 358 359 356
3 360 361 362
3 362 363 360
3 364 365 366
3 366 367 364
3 368 369 370
3 370 371 368
3 372 373 374
3 374 375 372
3 376 377 378
3 378 379 376
3 380 381 382
3 382 383 380
3 384 385 386
3 386 387 384
3 388 389 390
3 390 391 388
3 392 393 394
3 394 395 392
3 396 397 398
3 399 400 401
3 402 403 404
3 405 406 407
3 408 409 410
3 411 412 413
3 414 415 416
3 417 418 419
3 420 421 422
3 423 424 425
3 426 427 428
3 429 430 431
