ply
format ascii 1.0
comment Created by Blender 2.79 (sub 0) - www.blender.org, source file: ''
element vertex 432
property float x
property float y
property float z
element face 204
property list uchar uint vertex_indices
end_header
0.492253 0.377573 0.084993
0.473750 0.330298 -0.056155
0.419571 0.593091 -0.132736
0.438074 0.640365 0.008413
0.347237 0.351205 0.112834
0.293058 0.613997 0.036254
0.274556 0.566723 -0.104894
0.328734 0.303931 -0.028314
0.347237 0.351205 0.112834
0.328734 0.303931 -0.028314
0.473750 0.330298 -0.056155
0.492253 0.377573 0.084993
0.419571 0.593091 -0.132736
0.274556 0.566723 -0.104894
0.293058 0.613997 0.036254
0.438074 0.640365 0.008413
0.492253 0.377573 0.084993
0.438074 0.640365 0.008413
0.293058 0.613997 0.036254
0.347237 0.351205 0.112834
0.473750 0.330298 -0.056155
0.328734 0.303931 -0.028314
0.274556 0.566723 -0.104894
0.419571 0.593091 -0.132736
0.442676 0.363968 0.095403
0.416925 0.366379 0.098490
0.420593 0.357393 0.107551
0.442676 0.363968 0.095403
0.419773 0.373829 0.087874
0.416925 0.366379 0.098490
0.442676 0.363968 0.095403
0.428375 0.377747 0.078548
0.419773 0.373829 0.087874
0.442676 0.363968 0.095403
0.440426 0.377082 0.073011
0.428375 0.377747 0.078548
0.442676 0.363968 0.095403
0.452696 0.372014 0.072747
0.440426 0.377082 0.073011
0.442676 0.363968 0.095403
0.461897 0.363899 0.077825
0.452696 0.372014 0.072747
0.442676 0.363968 0.095403
0.465565 0.354913 0.086886
0.461897 0.363899 0.077825
0.442676 0.363968 0.095403
0.462717 0.347462 0.097502
0.465565 0.354913 0.086886
0.442676 0.363968 0.095403
0.454114 0.343545 0.106827
0.462717 0.347462 0.097502
0.442676 0.363968 0.095403
0.442064 0.344209 0.112364
0.454114 0.343545 0.106827
0.442676 0.363968 0.095403
0.429794 0.349278 0.112629
0.442064 0.344209 0.112364
0.442676 0.363968 0.095403
0.420593 0.357393 0.107551
0.429794 0.349278 0.112629
0.416925 0.366379 0.098490
0.391418 0.361855 0.095772
0.398311 0.344966 0.112802
0.420593 0.357393 0.107551
0.419773 0.373829 0.087874
0.396772 0.375857 0.075822
0.391418 0.361855 0.095772
0.416925 0.366379 0.098490
0.428375 0.377747 0.078548
0.412938 0.383220 0.058295
0.396772 0.375857 0.075822
0.419773 0.373829 0.087874
0.440426 0.377082 0.073011
0.435585 0.381971 0.047889
0.412938 0.383220 0.058295
0.428375 0.377747 0.078548
0.452696 0.372014 0.072747
0.458645 0.372445 0.047391
0.435585 0.381971 0.047889
0.440426 0.377082 0.073011
0.461897 0.363899 0.077825
0.475938 0.357194 0.056936
0.458645 0.372445 0.047391
0.452696 0.372014 0.072747
0.465565 0.354913 0.086886
0.482832 0.340305 0.073965
0.475938 0.357194 0.056936
0.461897 0.363899 0.077825
0.462717 0.347462 0.097502
0.477478 0.326303 0.093916
0.482832 0.340305 0.073965
0.465565 0.354913 0.086886
0.454114 0.343545 0.106827
0.461312 0.318941 0.111443
0.477478 0.326303 0.093916
0.462717 0.347462 0.097502
0.442064 0.344209 0.112364
0.438664 0.320190 0.121849
0.461312 0.318941 0.111443
0.454114 0.343545 0.106827
0.429794 0.349278 0.112629
0.415605 0.329716 0.122346
0.438664 0.320190 0.121849
0.442064 0.344209 0.112364
0.420593 0.357393 0.107551
0.398311 0.344966 0.112802
0.415605 0.329716 0.122346
0.429794 0.349278 0.112629
0.391418 0.361855 0.095772
0.369231 0.350942 0.087580
0.378519 0.328187 0.110523
0.398311 0.344966 0.112802
0.396772 0.375857 0.075822
0.376444 0.369806 0.060700
0.369231 0.350942 0.087580
0.391418 0.361855 0.095772
0.412938 0.383220 0.058295
0.398225 0.379726 0.037087
0.376444 0.369806 0.060700
0.396772 0.375857 0.075822
0.435585 0.381971 0.047889
0.428738 0.378043 0.023067
0.398225 0.379726 0.037087
0.412938 0.383220 0.058295
0.458645 0.372445 0.047391
0.459806 0.365209 0.022396
0.428738 0.378043 0.023067
0.435585 0.381971 0.047889
0.475938 0.357194 0.056936
0.483105 0.344662 0.035256
0.459806 0.365209 0.022396
0.458645 0.372445 0.047391
0.482832 0.340305 0.073965
0.492393 0.321908 0.058199
0.483105 0.344662 0.035256
0.475938 0.357194 0.056936
0.477478 0.326303 0.093916
0.485180 0.303043 0.085079
0.492393 0.321908 0.058199
0.482832 0.340305 0.073965
0.461312 0.318941 0.111443
0.463399 0.293123 0.108692
0.485180 0.303043 0.085079
0.477478 0.326303 0.093916
0.438664 0.320190 0.121849
0.432887 0.294806 0.122713
0.463399 0.293123 0.108692
0.461312 0.318941 0.111443
0.415605 0.329716 0.122346
0.401818 0.307640 0.123383
0.432887 0.294806 0.122713
0.438664 0.320190 0.121849
0.398311 0.344966 0.112802
0.378519 0.328187 0.110523
0.401818 0.307640 0.123383
0.415605 0.329716 0.122346
0.369231 0.350942 0.087580
0.353041 0.334955 0.074900
0.363603 0.309080 0.100990
0.378519 0.328187 0.110523
0.376444 0.369806 0.060700
0.361244 0.356407 0.044334
0.353041 0.334955 0.074900
0.369231 0.350942 0.087580
0.398225 0.379726 0.037087
0.386012 0.367687 0.017481
0.361244 0.356407 0.044334
0.376444 0.369806 0.060700
0.428738 0.378043 0.023067
0.420710 0.365774 0.001538
0.386012 0.367687 0.017481
0.398225 0.379726 0.037087
0.459806 0.365209 0.022396
0.456039 0.351179 0.000776
0.420710 0.365774 0.001538
0.428738 0.378043 0.023067
0.483105 0.344662 0.035256
0.482534 0.327814 0.015399
0.456039 0.351179 0.000776
0.459806 0.365209 0.022396
0.492393 0.321908 0.058199
0.493096 0.301939 0.041489
0.482534 0.327814 0.015399
0.483105 0.344662 0.035256
0.485180 0.303043 0.085079
0.484893 0.280487 0.072056
0.493096 0.301939 0.041489
0.492393 0.321908 0.058199
0.463399 0.293123 0.108692
0.460125 0.269207 0.098908
0.484893 0.280487 0.072056
0.485180 0.303043 0.085079
0.432887 0.294806 0.122713
0.425428 0.271120 0.114851
0.460125 0.269207 0.098908
0.463399 0.293123 0.108692
0.401818 0.307640 0.123383
0.390098 0.285715 0.115613
0.425428 0.271120 0.114851
0.432887 0.294806 0.122713
0.378519 0.328187 0.110523
0.363603 0.309080 0.100990
0.390098 0.285715 0.115613
0.401818 0.307640 0.123383
0.353041 0.334955 0.074900
0.344801 0.315824 0.059262
0.355362 0.289949 0.085352
0.363603 0.309080 0.100990
0.361244 0.356407 0.044334
0.353003 0.337276 0.028696
0.344801 0.315824 0.059262
0.353041 0.334955 0.074900
0.386012 0.367687 0.017481
0.377772 0.348556 0.001843
0.353003 0.337276 0.028696
0.361244 0.356407 0.044334
0.420710 0.365774 0.001538
0.412469 0.346643 -0.014100
0.377772 0.348556 0.001843
0.386012 0.367687 0.017481
0.456039 0.351179 0.000776
0.447799 0.332048 -0.014862
0.412469 0.346643 -0.014100
0.420710 0.365774 0.001538
0.482534 0.327814 0.015399
0.474294 0.308683 -0.000239
0.447799 0.332048 -0.014862
0.456039 0.351179 0.000776
0.493096 0.301939 0.041489
0.484855 0.282808 0.025851
0.474294 0.308683 -0.000239
0.482534 0.327814 0.015399
0.484893 0.280487 0.072056
0.476653 0.261356 0.056418
0.484855 0.282808 0.025851
0.493096 0.301939 0.041489
0.460125 0.269207 0.098908
0.451885 0.250075 0.083270
0.476653 0.261356 0.056418
0.484893 0.280487 0.072056
0.425428 0.271120 0.114851
0.417187 0.251989 0.099213
0.451885 0.250075 0.083270
0.460125 0.269207 0.098908
0.390098 0.285715 0.115613
0.381857 0.266583 0.099975
0.417187 0.251989 0.099213
0.425428 0.271120 0.114851
0.363603 0.309080 0.100990
0.355362 0.289949 0.085352
0.381857 0.266583 0.099975
0.390098 0.285715 0.115613
0.344801 0.315824 0.059262
0.345504 0.295855 0.042552
0.354791 0.273101 0.065496
0.355362 0.289949 0.085352
0.353003 0.337276 0.028696
0.352717 0.314720 0.015673
0.345504 0.295855 0.042552
0.344801 0.315824 0.059262
0.377772 0.348556 0.001843
0.374498 0.324640 -0.007941
0.352717 0.314720 0.015673
0.353003 0.337276 0.028696
0.412469 0.346643 -0.014100
0.405010 0.322957 -0.021961
0.374498 0.324640 -0.007941
0.377772 0.348556 0.001843
0.447799 0.332048 -0.014862
0.436079 0.310123 -0.022631
0.405010 0.322957 -0.021961
0.412469 0.346643 -0.014100
0.474294 0.308683 -0.000239
0.459378 0.289575 -0.009772
0.436079 0.310123 -0.022631
0.447799 0.332048 -0.014862
0.484855 0.282808 0.025851
0.468666 0.266821 0.013172
0.459378 0.289575 -0.009772
0.474294 0.308683 -0.000239
0.476653 0.261356 0.056418
0.461452 0.247957 0.040051
0.468666 0.266821 0.013172
0.484855 0.282808 0.025851
0.451885 0.250075 0.083270
0.439671 0.238037 0.063665
0.461452 0.247957 0.040051
0.476653 0.261356 0.056418
0.417187 0.251989 0.099213
0.409159 0.239720 0.077685
0.439671 0.238037 0.063665
0.451885 0.250075 0.083270
0.381857 0.266583 0.099975
0.378091 0.252554 0.078355
0.409159 0.239720 0.077685
0.417187 0.251989 0.099213
0.355362 0.289949 0.085352
0.354791 0.273101 0.065496
0.378091 0.252554 0.078355
0.381857 0.266583 0.099975
0.345504 0.295855 0.042552
0.355065 0.277458 0.026786
0.361959 0.260569 0.043815
0.354791 0.273101 0.065496
0.352717 0.314720 0.015673
0.360419 0.291459 0.006835
0.355065 0.277458 0.026786
0.345504 0.295855 0.042552
0.374498 0.324640 -0.007941
0.376585 0.298822 -0.010691
0.360419 0.291459 0.006835
0.352717 0.314720 0.015673
0.405010 0.322957 -0.021961
0.399232 0.297573 -0.021097
0.376585 0.298822 -0.010691
0.374498 0.324640 -0.007941
0.436079 0.310123 -0.022631
0.422292 0.288047 -0.021595
0.399232 0.297573 -0.021097
0.405010 0.322957 -0.021961
0.459378 0.289575 -0.009772
0.439586 0.272797 -0.012050
0.422292 0.288047 -0.021595
0.436079 0.310123 -0.022631
0.468666 0.266821 0.013172
0.446479 0.255908 0.004979
0.439586 0.272797 -0.012050
0.459378 0.289575 -0.009772
0.461452 0.247957 0.040051
0.441125 0.241906 0.024930
0.446479 0.255908 0.004979
0.468666 0.266821 0.013172
0.439671 0.238037 0.063665
0.424959 0.234543 0.042456
0.441125 0.241906 0.024930
0.461452 0.247957 0.040051
0.409159 0.239720 0.077685
0.402312 0.235792 0.052863
0.424959 0.234543 0.042456
0.439671 0.238037 0.063665
0.378091 0.252554 0.078355
0.379252 0.245318 0.053360
0.402312 0.235792 0.052863
0.409159 0.239720 0.077685
0.354791 0.273101 0.065496
0.361959 0.260569 0.043815
0.379252 0.245318 0.053360
0.378091 0.252554 0.078355
0.355065 0.277458 0.026786
0.372332 0.262850 0.013865
0.376000 0.253864 0.022926
0.361959 0.260569 0.043815
0.360419 0.291459 0.006835
0.375180 0.270300 0.003250
0.372332 0.262850 0.013865
0.355065 0.277458 0.026786
0.376585 0.298822 -0.010691
0.383782 0.274218 -0.006076
0.375180 0.270300 0.003250
0.360419 0.291459 0.006835
0.399232 0.297573 -0.021097
0.395833 0.273553 -0.011613
0.383782 0.274218 -0.006076
0.376585 0.298822 -0.010691
0.422292 0.288047 -0.021595
0.408102 0.268485 -0.011878
0.395833 0.273553 -0.011613
0.399232 0.297573 -0.021097
0.439586 0.272797 -0.012050
0.417304 0.260370 -0.006799
0.408102 0.268485 -0.011878
0.422292 0.288047 -0.021595
0.446479 0.255908 0.004979
0.420972 0.251384 0.002262
0.417304 0.260370 -0.006799
0.439586 0.272797 -0.012050
0.441125 0.241906 0.024930
0.418123 0.243934 0.012878
0.420972 0.251384 0.002262
0.446479 0.255908 0.004979
0.424959 0.234543 0.042456
0.409521 0.240016 0.022203
0.418123 0.243934 0.012878
0.441125 0.241906 0.024930
0.402312 0.235792 0.052863
0.397471 0.240681 0.027740
0.409521 0.240016 0.022203
0.424959 0.234543 0.042456
0.379252 0.245318 0.053360
0.385201 0.245749 0.028005
0.397471 0.240681 0.027740
0.402312 0.235792 0.052863
0.361959 0.260569 0.043815
0.376000 0.253864 0.022926
0.385201 0.245749 0.028005
0.379252 0.245318 0.053360
0.376000 0.253864 0.022926
0.372332 0.262850 0.013865
0.395221 0.253795 0.005348
0.372332 0.262850 0.013865
0.375180 0.270300 0.003250
0.395221 0.253795 0.005348
0.375180 0.270300 0.003250
0.383782 0.274218 -0.006076
0.395221 0.253795 0.005348
0.383782 0.274218 -0.006076
0.395833 0.273553 -0.011613
0.395221 0.253795 0.005348
0.395833 0.273553 -0.011613
0.408102 0.268485 -0.011878
0.395221 0.253795 0.005348
0.408102 0.268485 -0.011878
0.417304 0.260370 -0.006799
0.395221 0.253795 0.005348
0.417304 0.260370 -0.006799
0.420972 0.251384 0.002262
0.395221 0.253795 0.005348
0.420972 0.251384 0.002262
0.418123 0.243934 0.012878
0.395221 0.253795 0.005348
0.418123 0.243934 0.012878
0.409521 0.240016 0.022203
0.395221 0.253795 0.005348
0.409521 0.240016 0.022203
0.397471 0.240681 0.027740
0.395221 0.253795 0.005348
0.397471 0.240681 0.027740
0.385201 0.245749 0.028005
0.395221 0.253795 0.005348
0.385201 0.245749 0.028005
0.376000 0.253864 0.022926
0.395221 0.253795 0.005348
3 0 1 2
3 3 0 2
3 4 5 6
3 6 7 4
3 8 9 10
3 10 11 8
3 12 13 14
3 14 15 12
3 16 17 18
3 18 19 16
3 20 21 22
3 22 23 20
3 24 25 26
3 27 28 29
3 30 31 32
3 33 34 35
3 36 37 38
3 39 40 41
3 42 43 44
3 45 46 47
3 48 49 50
3 51 52 53
3 54 55 56
3 57 58 59
3 60 61 62
3 62 63 60
3 64 65 66
3 66 67 64
3 68 69 70
3 70 71 68
3 72 73 74
3 74 75 72
3 76 77 78
3 78 79 76
3 80 81 82
3 82 83 80
3 84 85 86
3 86 87 84
3 88 89 90
3 90 91 88
3 92 93 94
3 94 95 92
3 96 97 98
3 98 99 96
3 100 101 102
3 102 103 100
3 104 105 106
3 106 107 104
3 108 109 110
3 110 111 108
3 112 113 114
3 114 115 112
3 116 117 118
3 118 119 116
3 120 121 122
3 122 123 120
3 124 125 126
3 126 127 124
3 128 129 130
3 130 131 128
3 132 133 134
3 134 135 132
3 136 137 138
3 138 139 136
3 140 141 142
3 142 143 140
3 144 145 146
3 146 147 144
3 148 149 150
3 150 151 148
3 152 153 154
3 154 155 152
3 156 157 158
3 158 159 156
3 160 161 162
3 162 163 160
3 164 165 166
3 166 167 164
3 168 169 170
3 170 171 168
3 172 173 174
3 174 175 172
3 176 177 178
3 178 179 176
3 180 181 182
3 182 183 180
3 184 185 186
3 186 187 184
3 188 189 190
3 190 191 188
3 192 193 194
3 194 195 192
3 196 197 198
3 198 199 196
3 200 201 202
3 202 203 200
3 204 205 206
3 206 207 204
3 208 209 210
3 210 211 208
3 212 213 214
3 214 215 212
3 216 217 218
3 218 219 216
3 220 221 222
3 222 223 220
3 224 225 226
3 226 227 224
3 228 229 230
3 230 231 228
3 232 233 234
3 234 235 232
3 236 237 238
3 238 239 236
3 240 241 242
3 242 243 240
3 244 245 246
3 246 247 244
3 248 249 250
3 250 251 248
3 252 253 254
3 254 255 252
3 256 257 258
3 258 259 256
3 260 261 262
3 262 263 260
3 264 265 266
3 266 267 264
3 268 269 270
3 270 271 268
3 272 273 274
3 274 275 272
3 276 277 278
3 278 279 276
3 280 281 282
3 282 283 280
3 284 285 286
3 286 287 284
3 288 289 290
3 290 291 288
3 292 293 294
3 294 295 292
3 296 297 298
3 298 299 296
3 300 301 302
3 302 303 300
3 304 305 306
3 306 307 304
3 308 309 310
3 310 311 308
3 312 313 314
3 314 315 312
3 316 317 318
3 318 319 316
3 320 321 322
3 322 323 320
3 324 325 326
3 326 327 324
3 328 329 330
3 330 331 328
3 332 333 334
3 334 335 332
3 336 337 338
3 338 339 336
3 340 341 342
3 342 343 340
3 344 345 346
3 346 347 344
3 348 349 350
3 350 351 348
3 352 353 354
3 354 355 352
3 356 357 358
3 358 359 356
3 360 361 362
3 362 363 360
3 364 365 366
3 366 367 364
3 368 369 370
3 370 371 368
3 372 373 374
3 374 375 372
3 376 377 378
3 378 379 376
3 380 381 382
3 382 383 380
3 384 385 386
3 386 387 384
3 388 389 390
3 390 391 388
3 392 393 394
3 394 395 392
3 396 397 398
3 399 400 401
3 402 403 404
3 405 406 407
3 408 409 410
3 411 412 413
3 414 415 416
3 417 418 419
3 420 421 422
3 423 424 425
3 426 427 428
3 429 430 431
