ply
format ascii 1.0
comment Created by Blender 2.79 (sub 0) - www.blender.org, source file: ''
element vertex 432
property float x
property float y
property float z
element face 204
property list uchar uint vertex_indices
end_header
-0.398143 0.597563 -0.129420
-0.456348 0.335549 -0.053127
-0.473322 0.382811 0.088217
-0.415117 0.644825 0.011924
-0.253450 0.568694 -0.102391
-0.270424 0.615955 0.038953
-0.328629 0.353941 0.115246
-0.311655 0.306680 -0.026098
-0.311655 0.306680 -0.026098
-0.328629 0.353941 0.115246
-0.473322 0.382811 0.088217
-0.456348 0.335549 -0.053127
-0.253450 0.568694 -0.102391
-0.398143 0.597563 -0.129420
-0.415117 0.644825 0.011924
-0.270424 0.615955 0.038953
-0.270424 0.615955 0.038953
-0.415117 0.644825 0.011924
-0.473322 0.382811 0.088217
-0.328629 0.353941 0.115246
-0.253450 0.568694 -0.102391
-0.311655 0.306680 -0.026098
-0.456348 0.335549 -0.053127
-0.398143 0.597563 -0.129420
-0.401896 0.361376 0.110358
-0.398124 0.370320 0.101297
-0.423928 0.368350 0.098340
-0.398124 0.370320 0.101297
-0.400902 0.377841 0.090713
-0.423928 0.368350 0.098340
-0.400902 0.377841 0.090713
-0.409485 0.381924 0.081440
-0.423928 0.368350 0.098340
-0.409485 0.381924 0.081440
-0.421573 0.381475 0.075965
-0.423928 0.368350 0.098340
-0.421573 0.381475 0.075965
-0.433928 0.376614 0.075753
-0.423928 0.368350 0.098340
-0.433928 0.376614 0.075753
-0.443238 0.368644 0.080862
-0.423928 0.368350 0.098340
-0.443238 0.368644 0.080862
-0.447010 0.359700 0.089922
-0.423928 0.368350 0.098340
-0.447010 0.359700 0.089922
-0.444233 0.352180 0.100507
-0.423928 0.368350 0.098340
-0.444233 0.352180 0.100507
-0.435650 0.348097 0.109779
-0.423928 0.368350 0.098340
-0.435650 0.348097 0.109779
-0.423562 0.348545 0.115255
-0.423928 0.368350 0.098340
-0.423562 0.348545 0.115255
-0.411207 0.353406 0.115466
-0.423928 0.368350 0.098340
-0.411207 0.353406 0.115466
-0.401896 0.361376 0.110358
-0.423928 0.368350 0.098340
-0.372712 0.365373 0.098438
-0.398124 0.370320 0.101297
-0.401896 0.361376 0.110358
-0.379801 0.348564 0.115466
-0.377932 0.379507 0.078545
-0.400902 0.377841 0.090713
-0.398124 0.370320 0.101297
-0.372712 0.365373 0.098438
-0.394062 0.387181 0.061119
-0.409485 0.381924 0.081440
-0.400902 0.377841 0.090713
-0.377932 0.379507 0.078545
-0.416780 0.386337 0.050828
-0.421573 0.381475 0.075965
-0.409485 0.381924 0.081440
-0.394062 0.387181 0.061119
-0.440000 0.377202 0.050430
-0.433928 0.376614 0.075753
-0.421573 0.381475 0.075965
-0.416780 0.386337 0.050828
-0.457498 0.362224 0.060031
-0.443238 0.368644 0.080862
-0.433928 0.376614 0.075753
-0.440000 0.377202 0.050430
-0.464587 0.345415 0.077060
-0.447010 0.359700 0.089922
-0.443238 0.368644 0.080862
-0.457498 0.362224 0.060031
-0.459367 0.331280 0.096952
-0.444233 0.352180 0.100507
-0.447010 0.359700 0.089922
-0.464587 0.345415 0.077060
-0.443237 0.323607 0.114378
-0.435650 0.348097 0.109779
-0.444233 0.352180 0.100507
-0.459367 0.331280 0.096952
-0.420519 0.324451 0.124669
-0.423562 0.348545 0.115255
-0.435650 0.348097 0.109779
-0.443237 0.323607 0.114378
-0.397299 0.333586 0.125067
-0.411207 0.353406 0.115466
-0.423562 0.348545 0.115255
-0.420519 0.324451 0.124669
-0.379801 0.348564 0.115466
-0.401896 0.361376 0.110358
-0.411207 0.353406 0.115466
-0.397299 0.333586 0.125067
-0.350755 0.354105 0.090106
-0.372712 0.365373 0.098438
-0.379801 0.348564 0.115466
-0.360306 0.331459 0.113048
-0.357788 0.373149 0.063305
-0.377932 0.379507 0.078545
-0.372712 0.365373 0.098438
-0.350755 0.354105 0.090106
-0.379520 0.383488 0.039827
-0.394062 0.387181 0.061119
-0.377932 0.379507 0.078545
-0.357788 0.373149 0.063305
-0.410128 0.382351 0.025962
-0.416780 0.386337 0.050828
-0.394062 0.387181 0.061119
-0.379520 0.383488 0.039827
-0.441412 0.370043 0.025426
-0.440000 0.377202 0.050430
-0.416780 0.386337 0.050828
-0.410128 0.382351 0.025962
-0.464988 0.349863 0.038362
-0.457498 0.362224 0.060031
-0.440000 0.377202 0.050430
-0.441412 0.370043 0.025426
-0.474539 0.327217 0.061304
-0.464587 0.345415 0.077060
-0.457498 0.362224 0.060031
-0.464988 0.349863 0.038362
-0.467506 0.308173 0.088105
-0.459367 0.331280 0.096952
-0.464587 0.345415 0.077060
-0.474539 0.327217 0.061304
-0.445774 0.297835 0.111583
-0.443237 0.323607 0.114378
-0.459367 0.331280 0.096952
-0.467506 0.308173 0.088105
-0.415165 0.298971 0.125448
-0.420519 0.324451 0.124669
-0.443237 0.323607 0.114378
-0.445774 0.297835 0.111583
-0.383882 0.311279 0.125984
-0.397299 0.333586 0.125067
-0.420519 0.324451 0.124669
-0.415165 0.298971 0.125448
-0.360306 0.331459 0.113048
-0.379801 0.348564 0.115466
-0.397299 0.333586 0.125067
-0.383882 0.311279 0.125984
-0.334903 0.337877 0.077308
-0.350755 0.354105 0.090106
-0.360306 0.331459 0.113048
-0.345764 0.312125 0.103396
-0.342900 0.359533 0.046831
-0.357788 0.373149 0.063305
-0.350755 0.354105 0.090106
-0.334903 0.337877 0.077308
-0.367613 0.371289 0.020132
-0.379520 0.383488 0.039827
-0.357788 0.373149 0.063305
-0.342900 0.359533 0.046831
-0.402420 0.369997 0.004366
-0.410128 0.382351 0.025962
-0.379520 0.383488 0.039827
-0.367613 0.371289 0.020132
-0.437994 0.356001 0.003756
-0.441412 0.370043 0.025426
-0.410128 0.382351 0.025962
-0.402420 0.369997 0.004366
-0.464803 0.333053 0.018466
-0.464988 0.349863 0.038362
-0.441412 0.370043 0.025426
-0.437994 0.356001 0.003756
-0.475664 0.307300 0.044555
-0.474539 0.327217 0.061304
-0.464988 0.349863 0.038362
-0.464803 0.333053 0.018466
-0.467667 0.285645 0.075032
-0.467506 0.308173 0.088105
-0.474539 0.327217 0.061304
-0.475664 0.307300 0.044555
-0.442954 0.273888 0.101730
-0.445774 0.297835 0.111583
-0.467506 0.308173 0.088105
-0.467667 0.285645 0.075032
-0.408147 0.275181 0.117497
-0.415165 0.298971 0.125448
-0.445774 0.297835 0.111583
-0.442954 0.273888 0.101730
-0.372573 0.289176 0.118107
-0.383882 0.311279 0.125984
-0.415165 0.298971 0.125448
-0.408147 0.275181 0.117497
-0.345764 0.312125 0.103396
-0.360306 0.331459 0.113048
-0.383882 0.311279 0.125984
-0.372573 0.289176 0.118107
-0.327067 0.318645 0.061586
-0.334903 0.337877 0.077308
-0.345764 0.312125 0.103396
-0.337928 0.292893 0.087675
-0.335064 0.340301 0.031109
-0.342900 0.359533 0.046831
-0.334903 0.337877 0.077308
-0.327067 0.318645 0.061586
-0.359777 0.352057 0.004410
-0.367613 0.371289 0.020132
-0.342900 0.359533 0.046831
-0.335064 0.340301 0.031109
-0.394584 0.350764 -0.011356
-0.402420 0.369997 0.004366
-0.367613 0.371289 0.020132
-0.359777 0.352057 0.004410
-0.430158 0.336769 -0.011966
-0.437994 0.356001 0.003756
-0.402420 0.369997 0.004366
-0.394584 0.350764 -0.011356
-0.456967 0.313820 0.002744
-0.464803 0.333053 0.018466
-0.437994 0.356001 0.003756
-0.430158 0.336769 -0.011966
-0.467828 0.288068 0.028833
-0.475664 0.307300 0.044555
-0.464803 0.333053 0.018466
-0.456967 0.313820 0.002744
-0.459831 0.266413 0.059310
-0.467667 0.285645 0.075032
-0.475664 0.307300 0.044555
-0.467828 0.288068 0.028833
-0.435118 0.254656 0.086008
-0.442954 0.273888 0.101730
-0.467667 0.285645 0.075032
-0.459831 0.266413 0.059310
-0.400311 0.255949 0.101775
-0.408147 0.275181 0.117497
-0.442954 0.273888 0.101730
-0.435118 0.254656 0.086008
-0.364737 0.269944 0.102385
-0.372573 0.289176 0.118107
-0.408147 0.275181 0.117497
-0.400311 0.255949 0.101775
-0.337928 0.292893 0.087675
-0.345764 0.312125 0.103396
-0.372573 0.289176 0.118107
-0.364737 0.269944 0.102385
-0.328192 0.298728 0.044837
-0.327067 0.318645 0.061586
-0.337928 0.292893 0.087675
-0.337744 0.276082 0.067779
-0.335225 0.317772 0.018036
-0.335064 0.340301 0.031109
-0.327067 0.318645 0.061586
-0.328192 0.298728 0.044837
-0.356957 0.328111 -0.005442
-0.359777 0.352057 0.004410
-0.335064 0.340301 0.031109
-0.335225 0.317772 0.018036
-0.387566 0.326974 -0.019307
-0.394584 0.350764 -0.011356
-0.359777 0.352057 0.004410
-0.356957 0.328111 -0.005442
-0.418849 0.314666 -0.019844
-0.430158 0.336769 -0.011966
-0.394584 0.350764 -0.011356
-0.387566 0.326974 -0.019307
-0.442425 0.294486 -0.006908
-0.456967 0.313820 0.002744
-0.430158 0.336769 -0.011966
-0.418849 0.314666 -0.019844
-0.451976 0.271840 0.016034
-0.467828 0.288068 0.028833
-0.456967 0.313820 0.002744
-0.442425 0.294486 -0.006908
-0.444943 0.252796 0.042835
-0.459831 0.266413 0.059310
-0.467828 0.288068 0.028833
-0.451976 0.271840 0.016034
-0.423211 0.242458 0.066314
-0.435118 0.254656 0.086008
-0.459831 0.266413 0.059310
-0.444943 0.252796 0.042835
-0.392603 0.243594 0.080179
-0.400311 0.255949 0.101775
-0.435118 0.254656 0.086008
-0.423211 0.242458 0.066314
-0.361319 0.255902 0.080715
-0.364737 0.269944 0.102385
-0.400311 0.255949 0.101775
-0.392603 0.243594 0.080179
-0.337744 0.276082 0.067779
-0.337928 0.292893 0.087675
-0.364737 0.269944 0.102385
-0.361319 0.255902 0.080715
-0.338144 0.280530 0.029081
-0.328192 0.298728 0.044837
-0.337744 0.276082 0.067779
-0.345233 0.263722 0.046109
-0.343364 0.294665 0.009188
-0.335225 0.317772 0.018036
-0.328192 0.298728 0.044837
-0.338144 0.280530 0.029081
-0.359494 0.302338 -0.008238
-0.356957 0.328111 -0.005442
-0.335225 0.317772 0.018036
-0.343364 0.294665 0.009188
-0.382212 0.301495 -0.018529
-0.387566 0.326974 -0.019307
-0.356957 0.328111 -0.005442
-0.359494 0.302338 -0.008238
-0.405432 0.292360 -0.018927
-0.418849 0.314666 -0.019844
-0.387566 0.326974 -0.019307
-0.382212 0.301495 -0.018529
-0.422930 0.277381 -0.009325
-0.442425 0.294486 -0.006908
-0.418849 0.314666 -0.019844
-0.405432 0.292360 -0.018927
-0.430020 0.260573 0.007703
-0.451976 0.271840 0.016034
-0.442425 0.294486 -0.006908
-0.422930 0.277381 -0.009325
-0.424800 0.246438 0.027595
-0.444943 0.252796 0.042835
-0.451976 0.271840 0.016034
-0.430020 0.260573 0.007703
-0.408669 0.238764 0.045022
-0.423211 0.242458 0.066314
-0.444943 0.252796 0.042835
-0.424800 0.246438 0.027595
-0.385951 0.239608 0.055313
-0.392603 0.243594 0.080179
-0.423211 0.242458 0.066314
-0.408669 0.238764 0.045022
-0.362732 0.248743 0.055711
-0.361319 0.255902 0.080715
-0.392603 0.243594 0.080179
-0.385951 0.239608 0.055313
-0.345233 0.263722 0.046109
-0.337744 0.276082 0.067779
-0.361319 0.255902 0.080715
-0.362732 0.248743 0.055711
-0.355721 0.266245 0.016219
-0.338144 0.280530 0.029081
-0.345233 0.263722 0.046109
-0.359493 0.257301 0.025279
-0.358498 0.273766 0.005634
-0.343364 0.294665 0.009188
-0.338144 0.280530 0.029081
-0.355721 0.266245 0.016219
-0.367081 0.277849 -0.003638
-0.359494 0.302338 -0.008238
-0.343364 0.294665 0.009188
-0.358498 0.273766 0.005634
-0.379169 0.277400 -0.009114
-0.382212 0.301495 -0.018529
-0.359494 0.302338 -0.008238
-0.367081 0.277849 -0.003638
-0.391524 0.272539 -0.009326
-0.405432 0.292360 -0.018927
-0.382212 0.301495 -0.018529
-0.379169 0.277400 -0.009114
-0.400835 0.264569 -0.004217
-0.422930 0.277381 -0.009325
-0.405432 0.292360 -0.018927
-0.391524 0.272539 -0.009326
-0.404607 0.255626 0.004844
-0.430020 0.260573 0.007703
-0.422930 0.277381 -0.009325
-0.400835 0.264569 -0.004217
-0.401829 0.248105 0.015428
-0.424800 0.246438 0.027595
-0.430020 0.260573 0.007703
-0.404607 0.255626 0.004844
-0.393247 0.244022 0.024700
-0.408669 0.238764 0.045022
-0.424800 0.246438 0.027595
-0.401829 0.248105 0.015428
-0.381158 0.244471 0.030176
-0.385951 0.239608 0.055313
-0.408669 0.238764 0.045022
-0.393247 0.244022 0.024700
-0.368804 0.249331 0.030388
-0.362732 0.248743 0.055711
-0.385951 0.239608 0.055313
-0.381158 0.244471 0.030176
-0.359493 0.257301 0.025279
-0.345233 0.263722 0.046109
-0.362732 0.248743 0.055711
-0.368804 0.249331 0.030388
-0.378803 0.257596 0.007801
-0.355721 0.266245 0.016219
-0.359493 0.257301 0.025279
-0.378803 0.257596 0.007801
-0.358498 0.273766 0.005634
-0.355721 0.266245 0.016219
-0.378803 0.257596 0.007801
-0.367081 0.277849 -0.003638
-0.358498 0.273766 0.005634
-0.378803 0.257596 0.007801
-0.379169 0.277400 -0.009114
-0.367081 0.277849 -0.003638
-0.378803 0.257596 0.007801
-0.391524 0.272539 -0.009326
-0.379169 0.277400 -0.009114
-0.378803 0.257596 0.007801
-0.400835 0.264569 -0.004217
-0.391524 0.272539 -0.009326
-0.378803 0.257596 0.007801
-0.404607 0.255626 0.004844
-0.400835 0.264569 -0.004217
-0.378803 0.257596 0.007801
-0.401829 0.248105 0.015428
-0.404607 0.255626 0.004844
-0.378803 0.257596 0.007801
-0.393247 0.244022 0.024700
-0.401829 0.248105 0.015428
-0.378803 0.257596 0.007801
-0.381158 0.244471 0.030176
-0.393247 0.244022 0.024700
-0.378803 0.257596 0.007801
-0.368804 0.249331 0.030388
-0.381158 0.244471 0.030176
-0.378803 0.257596 0.007801
-0.359493 0.257301 0.025279
-0.368804 0.249331 0.030388
3 0 1 2
3 3 0 2
3 4 5 6
3 6 7 4
3 8 9 10
3 10 11 8
3 12 13 14
3 14 15 12
3 16 17 18
3 18 19 16
3 20 21 22
3 22 23 20
3 24 25 26
3 27 28 29
3 30 31 32
3 33 34 35
3 36 37 38
3 39 40 41
3 42 43 44
3 45 46 47
3 48 49 50
3 51 52 53
3 54 55 56
3 57 58 59
3 60 61 62
3 62 63 60
3 64 65 66
3 66 67 64
3 68 69 70
3 70 71 68
3 72 73 74
3 74 75 72
3 76 77 78
3 78 79 76
3 80 81 82
3 82 83 80
3 84 85 86
3 86 87 84
3 88 89 90
3 90 91 88
3 92 93 94
3 94 95 92
3 96 97 98
3 98 99 96
3 100 101 102
3 102 103 100
3 104 105 106
3 106 107 104
3 108 109 110
3 110 111 108
3 112 113 114
3 114 115 112
3 116 117 118
3 118 119 116
3 120 121 122
3 122 123 120
3 124 125 126
3 126 127 124
3 128 129 130
3 130 131 128
3 132 133 134
3 134 135 132
3 136 137 138
3 138 139 136
3 140 141 142
3 142 143 140
3 144 145 146
3 146 147 144
3 148 149 150
3 150 151 148
3 152 153 154
3 154 155 152
3 156 157 158
3 158 159 156
3 160 161 162
3 162 163 160
3 164 165 166
3 166 167 164
3 168 169 170
3 170 171 168
3 172 173 174
3 174 175 172
3 176 177 178
3 178 179 176
3 180 181 182
3 182 183 180
3 184 185 186
3 186 187 184
3 188 189 190
3 190 191 188
3 192 193 194
3 194 195 192
3 196 197 198
3 198 199 196
3 200 201 202
3 202 203 200
3 204 205 206
3 206 207 204
3 208 209 210
3 210 211 208
3 212 213 214
3 214 215 212
3 216 217 218
3 218 219 216
3 220 221 222
3 222 223 220
3 224 225 226
3 226 227 224
3 228 229 230
3 230 231 228
3 232 233 234
3 234 235 232
3 236 237 238
3 238 239 236
3 240 241 242
3 242 243 240
3 244 245 246
3 246 247 244
3 248 249 250
3 250 251 248
3 252 253 254
3 254 255 252
3 256 257 258
3 258 259 256
3 260 261 262
3 262 263 260
3 264 265 266
3 266 267 264
3 268 269 270
3 270 271 268
3 272 273 274
3 274 275 272
3 276 277 278
3 278 279 276
3 280 281 282
3 282 283 280
3 284 285 286
3 286 287 284
3 288 289 290
3 290 291 288
3 292 293 294
3 294 295 292
3 296 297 298
3 298 299 296
3 300 301 302
3 302 303 300
3 304 305 306
3 306 307 304
3 308 309 310
3 310 311 308
3 312 313 314
3 314 315 312
3 316 317 318
3 318 319 316
3 320 321 322
3 322 323 320
3 324 325 326
3 326 327 324
3 328 329 330
3 330 331 328
3 332 333 334
3 334 335 332
3 336 337 338
3 338 339 336
3 340 341 342
3 342 343 340
3 344 345 346
3 346 347 344
3 348 349 350
3 350 351 348
3 352 353 354
3 354 355 352
3 356 357 358
3 358 359 356
3 360 361 362
3 362 363 360
3 364 365 366
3 366 367 364
3 368 369 370
3 370 371 368
3 372 373 374
3 374 375 372
3 376 377 378
3 378 379 376
3 380 381 382
3 382 383 380
3 384 385 386
3 386 387 384
3 388 389 390
3 390 391 388
3 392 393 394
3 394 395 392
3 396 397 398
3 399 400 401
3 402 403 404
3 405 406 407
3 408 409 410
3 411 412 413
3 414 415 416
3 417 418 419
3 420 421 422
3 423 424 425
3 426 427 428
3 429 430 431
