ply
format ascii 1.0
element vertex 485
property float x
property float y
property float z
element face 236
property list uchar uint vertex_indices
end_header
-0.079567 -0.064502 1.083481
-0.081974 0.021196 1.089192
-0.082010 0.025790 1.009476
0.088173 0.018419 1.087636
0.090365 -0.059557 1.080693
0.088175 0.021561 1.009114
0.088059 0.022447 1.087995
-0.082010 0.025790 1.009476
-0.084376 0.110030 1.014709
0.085557 0.114790 1.014905
0.088175 0.021561 1.009114
-0.001499 0.011059 1.194843
-0.082065 0.020741 1.179490
-0.081916 0.015442 1.179161
0.090368 -0.059934 1.086770
-0.079565 -0.064741 1.087339
-0.079567 -0.064502 1.083481
0.090365 -0.059557 1.080693
-0.084329 0.105057 1.094781
0.085606 0.109675 1.097254
0.085605 0.109767 1.095771
0.085557 0.114790 1.014905
-0.084376 0.110030 1.014709
0.090368 -0.059934 1.086770
0.007099 -0.092626 1.161927
-0.079565 -0.064741 1.087339
-0.082052 0.023981 1.089378
-0.081916 0.015442 1.179161
-0.082065 0.020741 1.179490
-0.084329 0.105057 1.094781
0.001581 0.101897 1.184481
0.085606 0.109675 1.097254
0.088145 0.015643 1.179074
0.090368 -0.059934 1.086770
0.085606 0.109675 1.097254
0.088173 0.018419 1.087636
0.088059 0.022447 1.087995
0.085605 0.109767 1.095771
-0.079565 -0.064741 1.087339
-0.001499 0.011059 1.194843
0.001581 0.101897 1.184481
-0.082065 0.020741 1.179490
-0.001499 0.011059 1.194843
0.007099 -0.092626 1.161927
0.088145 0.015643 1.179074
-0.081916 0.015442 1.179161
-0.068570 -0.054756 1.146946
0.007099 -0.092626 1.161927
-0.057928 -0.086929 1.126673
-0.068570 -0.054756 1.146946
-0.079565 -0.064741 1.087339
-0.079565 -0.064741 1.087339
-0.068570 -0.054756 1.146946
-0.081916 0.015442 1.179161
-0.082065 0.020741 1.179490
-0.080231 0.092082 1.148774
-0.084329 0.105057 1.094781
-0.084329 0.105057 1.094781
-0.080231 0.092082 1.148774
0.001581 0.101897 1.184481
0.001581 0.101897 1.184481
-0.080231 0.092082 1.148774
-0.082065 0.020741 1.179490
0.001581 0.101897 1.184481
0.073443 0.087683 1.155948
0.085606 0.109675 1.097254
0.085606 0.109675 1.097254
0.073443 0.087683 1.155948
0.088145 0.015643 1.179074
0.088145 0.015643 1.179074
0.073443 0.087683 1.155948
0.001581 0.101897 1.184481
0.071397 -0.083661 1.129870
0.075903 -0.059997 1.145941
0.007099 -0.092626 1.161927
0.088145 0.015643 1.179074
0.076537 -0.059403 1.145575
0.090368 -0.059934 1.086770
0.075903 -0.059997 1.145941
0.076537 -0.059403 1.145575
0.088145 0.015643 1.179074
-0.084376 0.110030 1.014709
0.085557 0.114790 1.014905
0.085605 0.109767 1.095771
0.085606 0.109675 1.097254
-0.001499 0.011059 1.194843
0.088145 0.015643 1.179074
0.001581 0.101897 1.184481
-0.081916 0.015442 1.179161
0.007099 -0.092626 1.161927
-0.001499 0.011059 1.194843
0.090365 -0.059557 1.080693
0.107484 -0.051132 0.976635
0.088175 0.021561 1.009114
0.088175 0.021561 1.009114
0.107484 -0.051132 0.976635
-0.090863 -0.065997 0.987197
-0.090863 -0.065997 0.987197
0.107484 -0.051132 0.976635
0.090365 -0.059557 1.080693
-0.082010 0.025790 1.009476
-0.090863 -0.065997 0.987197
-0.079567 -0.064502 1.083481
0.088175 0.021561 1.009114
-0.090863 -0.065997 0.987197
-0.082010 0.025790 1.009476
-0.079567 -0.064502 1.083481
-0.090863 -0.065997 0.987197
0.090365 -0.059557 1.080693
0.090368 -0.059934 1.086770
0.076537 -0.059403 1.145575
0.075903 -0.059997 1.145941
-0.057928 -0.086929 1.126673
0.007099 -0.092626 1.161927
-0.068570 -0.054756 1.146946
0.090368 -0.059934 1.086770
0.071397 -0.083661 1.129870
0.007099 -0.092626 1.161927
0.075903 -0.059997 1.145941
0.071397 -0.083661 1.129870
0.090368 -0.059934 1.086770
0.007099 -0.092626 1.161927
-0.057928 -0.086929 1.126673
-0.079565 -0.064741 1.087339
0.088145 0.015643 1.179074
0.007099 -0.092626 1.161927
0.075903 -0.059997 1.145941
-0.057850 0.033347 1.141642
-0.057394 0.054681 1.023555
-0.051099 -0.063249 1.002273
0.062440 0.060794 1.025122
0.061984 0.039460 1.143210
0.068735 -0.057136 1.003841
0.062440 0.060794 1.025122
0.068735 -0.057136 1.003841
-0.051099 -0.063249 1.002273
-0.057394 0.054681 1.023555
0.061984 0.039460 1.143210
-0.057850 0.033347 1.141642
-0.037248 -0.080716 1.113767
0.068735 -0.057136 1.003841
-0.037248 -0.080716 1.113767
-0.051099 -0.063249 1.002273
0.061984 0.039460 1.143210
0.062440 0.060794 1.025122
-0.057394 0.054681 1.023555
-0.057850 0.033347 1.141642
0.061984 0.039460 1.143210
0.054690 -0.080970 1.116653
0.068735 -0.057136 1.003841
-0.037248 -0.080716 1.113767
0.054690 -0.080970 1.116653
0.061984 0.039460 1.143210
0.068735 -0.057136 1.003841
0.054690 -0.080970 1.116653
-0.037248 -0.080716 1.113767
-0.051099 -0.063249 1.002273
-0.037248 -0.080716 1.113767
-0.057850 0.033347 1.141642
0.014729 -0.103192 1.064733
-0.049071 -0.065465 1.007899
0.014476 -0.089808 0.999006
0.005080 -0.004301 0.999811
0.004305 -0.020703 1.078108
0.062093 -0.074962 1.067313
-0.049071 -0.065465 1.007899
0.005080 -0.004301 0.999811
0.014476 -0.089808 0.999006
0.062093 -0.074962 1.067313
0.004305 -0.020703 1.078108
0.014729 -0.103192 1.064733
0.062093 -0.074962 1.067313
0.014729 -0.103192 1.064733
0.014476 -0.089808 0.999006
0.004305 -0.020703 1.078108
0.005080 -0.004301 0.999811
-0.049071 -0.065465 1.007899
0.062093 -0.074962 1.067313
0.069681 -0.055949 1.004217
0.005080 -0.004301 0.999811
0.005080 -0.004301 0.999811
0.069681 -0.055949 1.004217
0.014476 -0.089808 0.999006
0.014476 -0.089808 0.999006
0.069681 -0.055949 1.004217
0.062093 -0.074962 1.067313
0.014729 -0.103192 1.064733
-0.041269 -0.072052 1.065587
-0.049071 -0.065465 1.007899
0.004305 -0.020703 1.078108
-0.041269 -0.072052 1.065587
0.014729 -0.103192 1.064733
-0.049071 -0.065465 1.007899
-0.041269 -0.072052 1.065587
0.004305 -0.020703 1.078108
0.023265 -0.071996 1.103371
0.023219 -0.068912 1.083610
0.024768 -0.088612 1.080532
0.024814 -0.091697 1.100292
0.043205 -0.070458 1.103564
0.044754 -0.090159 1.100486
0.044708 -0.087075 1.080725
0.043159 -0.067374 1.083804
0.043159 -0.067374 1.083804
0.044708 -0.087075 1.080725
0.024768 -0.088612 1.080532
0.023219 -0.068912 1.083610
0.043205 -0.070458 1.103564
0.023265 -0.071996 1.103371
0.024814 -0.091697 1.100292
0.044754 -0.090159 1.100486
0.044754 -0.090159 1.100486
0.024814 -0.091697 1.100292
0.024768 -0.088612 1.080532
0.044708 -0.087075 1.080725
0.043205 -0.070458 1.103564
0.043159 -0.067374 1.083804
0.023219 -0.068912 1.083610
0.023265 -0.071996 1.103371
-0.023477 -0.078864 1.101415
-0.023218 -0.075483 1.081704
-0.021193 -0.095098 1.078365
-0.021452 -0.098480 1.098076
-0.003581 -0.076912 1.102011
-0.001557 -0.096527 1.098672
-0.001298 -0.093146 1.078961
-0.003323 -0.073530 1.082300
-0.003323 -0.073530 1.082300
-0.001298 -0.093146 1.078961
-0.021193 -0.095098 1.078365
-0.023218 -0.075483 1.081704
-0.003581 -0.076912 1.102011
-0.023477 -0.078864 1.101415
-0.021452 -0.098480 1.098076
-0.001557 -0.096527 1.098672
-0.001557 -0.096527 1.098672
-0.021452 -0.098480 1.098076
-0.021193 -0.095098 1.078365
-0.001298 -0.093146 1.078961
-0.003581 -0.076912 1.102011
-0.003323 -0.073530 1.082300
-0.023218 -0.075483 1.081704
-0.023477 -0.078864 1.101415
0.028337 0.036177 1.138661
0.117619 0.047519 1.139089
0.115547 0.064423 1.123196
0.026266 0.053080 1.122768
0.031173 0.013660 1.143910
0.120454 0.025002 1.144338
0.117619 0.047519 1.139089
0.028337 0.036177 1.138661
0.034012 -0.008437 1.137108
0.123294 0.002906 1.137536
0.120454 0.025002 1.144338
0.031173 0.013660 1.143910
0.036096 -0.024193 1.120078
0.125377 -0.012850 1.120506
0.123294 0.002906 1.137536
0.034012 -0.008437 1.137108
0.036864 -0.029386 1.097384
0.126146 -0.018044 1.097812
0.125377 -0.012850 1.120506
0.036096 -0.024193 1.120078
0.036112 -0.022625 1.075105
0.125394 -0.011283 1.075534
0.126146 -0.018044 1.097812
0.036864 -0.029386 1.097384
0.034041 -0.005721 1.059213
0.123323 0.005621 1.059641
0.125394 -0.011283 1.075534
0.036112 -0.022625 1.075105
0.031206 0.016795 1.053964
0.120487 0.028138 1.054393
0.123323 0.005621 1.059641
0.034041 -0.005721 1.059213
0.028366 0.038892 1.060766
0.117647 0.050235 1.061194
0.120487 0.028138 1.054393
0.031206 0.016795 1.053964
0.026283 0.054648 1.077796
0.115564 0.065990 1.078224
0.117647 0.050235 1.061194
0.028366 0.038892 1.060766
0.025514 0.059841 1.100490
0.114795 0.071184 1.100918
0.115564 0.065990 1.078224
0.026283 0.054648 1.077796
0.026266 0.053080 1.122768
0.115547 0.064423 1.123196
0.114795 0.071184 1.100918
0.025514 0.059841 1.100490
0.117619 0.047519 1.139089
0.120454 0.025002 1.144338
0.123294 0.002906 1.137536
0.125377 -0.012850 1.120506
0.126146 -0.018044 1.097812
0.125394 -0.011283 1.075534
0.123323 0.005621 1.059641
0.120487 0.028138 1.054393
0.117647 0.050235 1.061194
0.115564 0.065990 1.078224
0.114795 0.071184 1.100918
0.115547 0.064423 1.123196
0.026283 0.054648 1.077796
0.028366 0.038892 1.060766
0.031206 0.016795 1.053964
0.034041 -0.005721 1.059213
0.036112 -0.022625 1.075105
0.036864 -0.029386 1.097384
0.036096 -0.024193 1.120078
0.034012 -0.008437 1.137108
0.031173 0.013660 1.143910
0.028337 0.036177 1.138661
0.026266 0.053080 1.122768
0.025514 0.059841 1.100490
0.120757 0.036763 1.242957
0.108667 0.041294 1.133536
0.116520 0.026251 1.297698
0.108667 0.041294 1.133536
0.096597 0.044043 1.137308
0.116520 0.026251 1.297698
0.096597 0.044043 1.137308
0.084952 0.040113 1.141361
0.116520 0.026251 1.297698
0.084952 0.040113 1.141361
0.076853 0.030557 1.144608
0.116520 0.026251 1.297698
0.076853 0.030557 1.144608
0.074469 0.017935 1.146178
0.116520 0.026251 1.297698
0.074469 0.017935 1.146178
0.078439 0.005629 1.145652
0.116520 0.026251 1.297698
0.078439 0.005629 1.145652
0.087700 -0.003063 1.143170
0.116520 0.026251 1.297698
0.087700 -0.003063 1.143170
0.099769 -0.005812 1.139398
0.116520 0.026251 1.297698
0.099769 -0.005812 1.139398
0.111414 -0.001882 1.135345
0.116520 0.026251 1.297698
0.111414 -0.001882 1.135345
0.119513 0.007675 1.132098
0.116520 0.026251 1.297698
0.119513 0.007675 1.132098
0.121897 0.020297 1.130527
0.116520 0.026251 1.297698
0.121897 0.020297 1.130527
0.120757 0.036763 1.242957
0.116520 0.026251 1.297698
0.119513 0.007675 1.132098
0.111414 -0.001882 1.135345
0.099769 -0.005812 1.139398
0.087700 -0.003063 1.143170
0.078439 0.005629 1.145652
0.074469 0.017935 1.146178
0.076853 0.030557 1.144608
0.084952 0.040113 1.141361
0.096597 0.044043 1.137308
0.108667 0.041294 1.133536
0.121897 0.020297 1.130527
0.108667 0.041294 1.133536
0.120757 0.036763 1.242957
0.121897 0.020297 1.130527
-0.114002 0.048375 1.120684
-0.024171 0.045229 1.125202
-0.022755 0.060617 1.107772
-0.112586 0.063763 1.103254
-0.115146 0.026314 1.128074
-0.025315 0.023168 1.132592
-0.024171 0.045229 1.125202
-0.114002 0.048375 1.120684
-0.115713 0.003492 1.123443
-0.025881 0.000346 1.127962
-0.025315 0.023168 1.132592
-0.115146 0.026314 1.128074
-0.115549 -0.013976 1.108034
-0.025718 -0.017122 1.112553
-0.025881 0.000346 1.127962
-0.115713 0.003492 1.123443
-0.114700 -0.021409 1.085975
-0.024869 -0.024556 1.090493
-0.025718 -0.017122 1.112553
-0.115549 -0.013976 1.108034
-0.113393 -0.016817 1.063176
-0.023561 -0.019963 1.067694
-0.024869 -0.024556 1.090493
-0.114700 -0.021409 1.085975
-0.111977 -0.001428 1.045747
-0.022146 -0.004574 1.050265
-0.023561 -0.019963 1.067694
-0.113393 -0.016817 1.063176
-0.110833 0.020633 1.038357
-0.021001 0.017487 1.042875
-0.022146 -0.004574 1.050265
-0.111977 -0.001428 1.045747
-0.110266 0.043455 1.042987
-0.020435 0.040308 1.047505
-0.021001 0.017487 1.042875
-0.110833 0.020633 1.038357
-0.110430 0.060922 1.058396
-0.020598 0.057776 1.062914
-0.020435 0.040308 1.047505
-0.110266 0.043455 1.042987
-0.111279 0.068356 1.080455
-0.021447 0.065210 1.084973
-0.020598 0.057776 1.062914
-0.110430 0.060922 1.058396
-0.112586 0.063763 1.103254
-0.022755 0.060617 1.107772
-0.021447 0.065210 1.084973
-0.111279 0.068356 1.080455
-0.024171 0.045229 1.125202
-0.025315 0.023168 1.132592
-0.025881 0.000346 1.127962
-0.025718 -0.017122 1.112553
-0.024869 -0.024556 1.090493
-0.023561 -0.019963 1.067694
-0.022146 -0.004574 1.050265
-0.021001 0.017487 1.042875
-0.020435 0.040308 1.047505
-0.020598 0.057776 1.062914
-0.021447 0.065210 1.084973
-0.022755 0.060617 1.107772
-0.110430 0.060922 1.058396
-0.110266 0.043455 1.042987
-0.110833 0.020633 1.038357
-0.111977 -0.001428 1.045747
-0.113393 -0.016817 1.063176
-0.114700 -0.021409 1.085975
-0.115549 -0.013976 1.108034
-0.115713 0.003492 1.123443
-0.115146 0.026314 1.128074
-0.114002 0.048375 1.120684
-0.112586 0.063763 1.103254
-0.111279 0.068356 1.080455
-0.067934 0.042062 1.123975
-0.076575 0.051581 1.122487
-0.105672 0.026151 1.303535
-0.076575 0.051581 1.122487
-0.088650 0.055453 1.119906
-0.105672 0.026151 1.303535
-0.088650 0.055453 1.119906
-0.100925 0.052641 1.116924
-0.105672 0.026151 1.303535
-0.100925 0.052641 1.116924
-0.110110 0.043900 1.114339
-0.105672 0.026151 1.303535
-0.110110 0.043900 1.114339
-0.113744 0.031570 1.112845
-0.105672 0.026151 1.303535
-0.113744 0.031570 1.112845
-0.110854 0.018956 1.112841
-0.105672 0.026151 1.303535
-0.110854 0.018956 1.112841
-0.102214 0.009437 1.114329
-0.105672 0.026151 1.303535
-0.102214 0.009437 1.114329
-0.090138 0.005565 1.116910
-0.105672 0.026151 1.303535
-0.090138 0.005565 1.116910
-0.077864 0.008377 1.119892
-0.105672 0.026151 1.303535
-0.077864 0.008377 1.119892
-0.068679 0.017119 1.122476
-0.105672 0.026151 1.303535
-0.068679 0.017119 1.122476
-0.065044 0.029448 1.123971
-0.105672 0.026151 1.303535
-0.065044 0.029448 1.123971
-0.067934 0.042062 1.123975
-0.105672 0.026151 1.303535
-0.068679 0.017119 1.122476
-0.077864 0.008377 1.119892
-0.090138 0.005565 1.116910
-0.102214 0.009437 1.114329
-0.110854 0.018956 1.112841
-0.113744 0.031570 1.112845
-0.110110 0.043900 1.114339
-0.100925 0.052641 1.116924
-0.088650 0.055453 1.119906
-0.076575 0.051581 1.122487
-0.067934 0.042062 1.123975
-0.065044 0.029448 1.123971
3 0 1 2
3 3 4 5
3 5 6 3
3 7 8 9
3 9 10 7
3 11 12 13
3 14 15 16
3 16 17 14
3 18 19 20
3 18 20 21
3 18 21 22
3 23 24 25
3 26 27 28
3 28 29 26
3 18 30 31
3 32 33 4
3 34 35 36
3 36 37 34
3 1 0 38
3 26 1 38
3 26 38 27
3 39 40 41
3 42 43 44
3 45 46 47
3 48 49 50
3 51 52 53
3 54 55 56
3 57 58 59
3 60 61 62
3 63 64 65
3 66 67 68
3 69 70 71
3 72 73 74
3 75 76 77
3 78 79 80
3 26 29 81
3 1 26 81
3 1 81 2
3 82 83 6
3 6 5 82
3 3 32 4
3 84 32 3
3 85 86 87
3 88 89 90
3 91 92 93
3 94 95 96
3 97 98 99
3 100 101 102
3 103 104 105
3 106 107 108
3 109 110 111
3 112 113 114
3 115 116 117
3 118 119 120
3 121 122 123
3 124 125 126
3 127 128 129
3 130 131 132
3 133 134 135
3 135 136 133
3 137 138 139
3 140 141 142
3 143 144 145
3 145 146 143
3 147 148 149
3 150 151 152
3 153 154 155
3 156 157 158
3 159 160 161
3 162 163 164
3 165 166 167
3 168 169 170
3 171 172 173
3 174 175 176
3 177 178 179
3 180 181 182
3 183 184 185
3 186 187 188
3 189 190 191
3 192 193 194
3 195 196 197
3 197 198 195
3 199 200 201
3 201 202 199
3 203 204 205
3 205 206 203
3 207 208 209
3 209 210 207
3 211 212 213
3 213 214 211
3 215 216 217
3 217 218 215
3 219 220 221
3 221 222 219
3 223 224 225
3 225 226 223
3 227 228 229
3 229 230 227
3 231 232 233
3 233 234 231
3 235 236 237
3 237 238 235
3 239 240 241
3 241 242 239
3 243 244 245
3 245 246 243
3 247 248 249
3 249 250 247
3 251 252 253
3 253 254 251
3 255 256 257
3 257 258 255
3 259 260 261
3 261 262 259
3 263 264 265
3 265 266 263
3 267 268 269
3 269 270 267
3 271 272 273
3 273 274 271
3 275 276 277
3 277 278 275
3 279 280 281
3 281 282 279
3 283 284 285
3 285 286 283
3 287 288 289
3 289 290 287
3 291 292 293
3 293 294 295
3 295 296 297
3 293 295 297
3 297 298 299
3 299 300 301
3 297 299 301
3 293 297 301
3 291 293 301
3 302 291 301
3 303 304 305
3 305 306 307
3 307 308 309
3 305 307 309
3 309 310 311
3 311 312 313
3 309 311 313
3 305 309 313
3 303 305 313
3 314 303 313
3 315 316 317
3 318 319 320
3 321 322 323
3 324 325 326
3 327 328 329
3 330 331 332
3 333 334 335
3 336 337 338
3 339 340 341
3 342 343 344
3 345 346 347
3 348 349 350
3 351 352 353
3 353 354 355
3 351 353 355
3 355 356 357
3 357 358 359
3 355 357 359
3 351 355 359
3 351 359 360
3 361 351 360
3 362 363 364
3 365 366 367
3 367 368 365
3 369 370 371
3 371 372 369
3 373 374 375
3 375 376 373
3 377 378 379
3 379 380 377
3 381 382 383
3 383 384 381
3 385 386 387
3 387 388 385
3 389 390 391
3 391 392 389
3 393 394 395
3 395 396 393
3 397 398 399
3 399 400 397
3 401 402 403
3 403 404 401
3 405 406 407
3 407 408 405
3 409 410 411
3 411 412 409
3 413 414 415
3 415 416 417
3 417 418 419
3 415 417 419
3 419 420 421
3 421 422 423
3 419 421 423
3 415 419 423
3 413 415 423
3 424 413 423
3 425 426 427
3 427 428 429
3 429 430 431
3 427 429 431
3 431 432 433
3 433 434 435
3 431 433 435
3 427 431 435
3 425 427 435
3 436 425 435
3 437 438 439
3 440 441 442
3 443 444 445
3 446 447 448
3 449 450 451
3 452 453 454
3 455 456 457
3 458 459 460
3 461 462 463
3 464 465 466
3 467 468 469
3 470 471 472
3 473 474 475
3 475 476 477
3 477 478 479
3 475 477 479
3 479 480 481
3 481 482 483
3 479 481 483
3 475 479 483
3 473 475 483
3 484 473 483
