ply
format ascii 1.0
comment Created by Blender 2.79 (sub 0) - www.blender.org, source file: ''
element vertex 296
property float x
property float y
property float z
element face 120
property list uchar uint vertex_indices
end_header
-0.121560 0.486266 0.023266
-0.120072 0.426462 0.018649
-0.112911 0.421597 0.091286
-0.114399 0.481400 0.095903
0.105957 0.485449 0.008439
0.113118 0.480584 0.081076
0.114607 0.420781 0.076458
0.107445 0.425646 0.003821
0.107445 0.425646 0.003821
0.114607 0.420781 0.076458
-0.112911 0.421597 0.091286
-0.120072 0.426462 0.018649
0.105957 0.485449 0.008439
-0.121560 0.486266 0.023266
-0.114399 0.481400 0.095903
0.113118 0.480584 0.081076
0.113118 0.480584 0.081076
-0.114399 0.481400 0.095903
-0.112911 0.421597 0.091286
0.114607 0.420781 0.076458
0.105957 0.485449 0.008439
0.107445 0.425646 0.003821
-0.120072 0.426462 0.018649
-0.121560 0.486266 0.023266
-0.161732 0.516342 -0.065111
-0.159443 0.386455 -0.070015
-0.159373 0.381551 0.059892
-0.161661 0.511438 0.064797
0.148512 0.518820 -0.061611
0.148583 0.513916 0.068296
0.150871 0.384029 0.063391
0.150801 0.388933 -0.066516
0.150801 0.388933 -0.066516
0.150871 0.384029 0.063391
-0.159373 0.381551 0.059892
-0.159443 0.386455 -0.070015
0.148512 0.518820 -0.061611
-0.161732 0.516342 -0.065111
-0.161661 0.511438 0.064797
0.148583 0.513916 0.068296
0.148583 0.513916 0.068296
-0.161661 0.511438 0.064797
-0.159373 0.381551 0.059892
0.150871 0.384029 0.063391
0.148512 0.518820 -0.061611
0.150801 0.388933 -0.066516
-0.159443 0.386455 -0.070015
-0.161732 0.516342 -0.065111
0.151961 0.231694 0.053397
0.156817 0.235541 -0.055245
0.149336 0.430953 -0.046849
0.144480 0.427106 0.061794
0.043250 0.232059 0.048551
0.035769 0.427471 0.056947
0.040625 0.431318 -0.051695
0.048106 0.235906 -0.060092
0.043250 0.232059 0.048551
0.048106 0.235906 -0.060092
0.156817 0.235541 -0.055245
0.151961 0.231694 0.053397
0.149336 0.430953 -0.046849
0.040625 0.431318 -0.051695
0.035769 0.427471 0.056947
0.144480 0.427106 0.061794
0.144480 0.427106 0.061794
0.035769 0.427471 0.056947
0.043250 0.232059 0.048551
0.151961 0.231694 0.053397
0.048106 0.235906 -0.060092
0.040625 0.431318 -0.051695
0.149336 0.430953 -0.046849
0.156817 0.235541 -0.055245
-0.150808 0.426066 -0.056279
-0.151932 0.224420 -0.068060
-0.152035 0.218906 0.044103
-0.150911 0.420553 0.055884
-0.038575 0.429880 -0.055988
-0.038678 0.424366 0.056175
-0.039802 0.222720 0.044393
-0.039699 0.228233 -0.067770
-0.039699 0.228233 -0.067770
-0.039802 0.222720 0.044393
-0.152035 0.218906 0.044103
-0.151932 0.224420 -0.068060
-0.038575 0.429880 -0.055988
-0.150808 0.426066 -0.056279
-0.150911 0.420553 0.055884
-0.038678 0.424366 0.056175
-0.039802 0.222720 0.044393
-0.038678 0.424366 0.056175
-0.150911 0.420553 0.055884
-0.152035 0.218906 0.044103
-0.150808 0.426066 -0.056279
-0.038575 0.429880 -0.055988
-0.039699 0.228233 -0.067770
-0.151932 0.224420 -0.068060
0.212116 -0.039943 0.058126
0.203964 -0.031742 -0.142770
0.202800 0.025512 -0.137906
0.036843 -0.041013 0.065453
0.027527 0.024442 -0.130579
0.028690 -0.032812 -0.135444
0.036843 -0.041013 0.065453
0.028690 -0.032812 -0.135444
0.203964 -0.031742 -0.142770
0.212116 -0.039943 0.058126
0.210192 0.064980 0.097722
0.202800 0.025512 -0.137906
0.204119 0.130056 -0.128583
0.212116 -0.039943 0.058126
0.210192 0.064980 0.097722
0.208582 0.027774 0.183624
0.028690 -0.032812 -0.135444
0.027527 0.024442 -0.130579
0.202800 0.025512 -0.137906
0.203964 -0.031742 -0.142770
0.202800 0.025512 -0.137906
0.027527 0.024442 -0.130579
0.028737 0.129734 -0.124479
0.027527 0.024442 -0.130579
0.034918 0.063910 0.105049
0.030109 0.124040 0.085515
0.034918 0.063910 0.105049
0.210192 0.064980 0.097722
0.030109 0.124040 0.085515
0.205491 0.124362 0.081410
0.204119 0.130056 -0.128583
0.201588 0.255223 -0.096053
0.204119 0.130056 -0.128583
0.205491 0.124362 0.081410
0.210192 0.064980 0.097722
0.210192 0.064980 0.097722
0.205491 0.124362 0.081410
0.030109 0.124040 0.085515
0.028737 0.129734 -0.124479
0.204119 0.130056 -0.128583
0.202800 0.025512 -0.137906
0.030109 0.124040 0.085515
0.028737 0.129734 -0.124479
0.027527 0.024442 -0.130579
0.204119 0.130056 -0.128583
0.028737 0.129734 -0.124479
0.026178 0.257449 -0.094586
0.028737 0.129734 -0.124479
0.030109 0.124040 0.085515
0.027242 0.227359 0.078241
0.030109 0.124040 0.085515
0.205491 0.124362 0.081410
0.027242 0.227359 0.078241
0.201588 0.255223 -0.096053
0.026178 0.257449 -0.094586
0.027242 0.227359 0.078241
0.202652 0.225132 0.076773
0.201588 0.255223 -0.096053
0.202652 0.225132 0.076773
0.205491 0.124362 0.081410
0.205491 0.124362 0.081410
0.202652 0.225132 0.076773
0.027242 0.227359 0.078241
0.026178 0.257449 -0.094586
0.201588 0.255223 -0.096053
0.204119 0.130056 -0.128583
0.027242 0.227359 0.078241
0.026178 0.257449 -0.094586
0.028737 0.129734 -0.124479
0.210192 0.064980 0.097722
0.034918 0.063910 0.105049
0.033246 0.024221 0.188158
0.034918 0.063910 0.105049
0.035392 -0.033195 0.186829
0.033246 0.024221 0.188158
0.036843 -0.041013 0.065453
0.212116 -0.039943 0.058126
0.035392 -0.033195 0.186829
0.208582 0.027774 0.183624
0.033246 0.024221 0.188158
0.035392 -0.033195 0.186829
0.210727 -0.029642 0.182294
0.212116 -0.039943 0.058126
0.210727 -0.029642 0.182294
0.035392 -0.033195 0.186829
0.033246 0.024221 0.188158
0.208582 0.027774 0.183624
0.210192 0.064980 0.097722
0.208582 0.027774 0.183624
0.210727 -0.029642 0.182294
0.212116 -0.039943 0.058126
0.202800 0.025512 -0.137906
0.210192 0.064980 0.097722
0.212116 -0.039943 0.058126
0.036843 -0.041013 0.065453
0.034918 0.063910 0.105049
0.027527 0.024442 -0.130579
0.034918 0.063910 0.105049
0.036843 -0.041013 0.065453
0.035392 -0.033195 0.186829
-0.186545 0.009470 -0.147154
-0.186742 -0.049547 -0.153026
-0.195812 -0.061135 0.054115
-0.005902 -0.047757 -0.144741
-0.005706 0.011261 -0.138869
-0.014972 -0.059344 0.062400
-0.005902 -0.047757 -0.144741
-0.014972 -0.059344 0.062400
-0.195812 -0.061135 0.054115
-0.186742 -0.049547 -0.153026
-0.189741 0.117169 -0.135993
-0.186545 0.009470 -0.147154
-0.195788 0.046561 0.096532
-0.193829 0.006926 0.184627
-0.195788 0.046561 0.096532
-0.195812 -0.061135 0.054115
-0.186545 0.009470 -0.147154
-0.005706 0.011261 -0.138869
-0.005902 -0.047757 -0.144741
-0.186742 -0.049547 -0.153026
-0.008789 0.119782 -0.131021
-0.005706 0.011261 -0.138869
-0.186545 0.009470 -0.147154
-0.010943 0.110762 0.085571
-0.014948 0.048352 0.104817
-0.005706 0.011261 -0.138869
-0.010943 0.110762 0.085571
-0.195788 0.046561 0.096532
-0.014948 0.048352 0.104817
-0.189411 0.245866 -0.100565
-0.189741 0.117169 -0.135993
-0.191894 0.108149 0.080600
-0.195788 0.046561 0.096532
-0.191894 0.108149 0.080600
-0.189741 0.117169 -0.135993
-0.010943 0.110762 0.085571
-0.191894 0.108149 0.080600
-0.195788 0.046561 0.096532
-0.186545 0.009470 -0.147154
-0.189741 0.117169 -0.135993
-0.008789 0.119782 -0.131021
-0.005706 0.011261 -0.138869
-0.008789 0.119782 -0.131021
-0.010943 0.110762 0.085571
-0.008464 0.251147 -0.098276
-0.008789 0.119782 -0.131021
-0.189741 0.117169 -0.135993
-0.009732 0.217515 0.079607
-0.010943 0.110762 0.085571
-0.008789 0.119782 -0.131021
-0.009732 0.217515 0.079607
-0.191894 0.108149 0.080600
-0.010943 0.110762 0.085571
-0.008464 0.251147 -0.098276
-0.189411 0.245866 -0.100565
-0.190679 0.212234 0.077318
-0.009732 0.217515 0.079607
-0.191894 0.108149 0.080600
-0.190679 0.212234 0.077318
-0.189411 0.245866 -0.100565
-0.009732 0.217515 0.079607
-0.190679 0.212234 0.077318
-0.191894 0.108149 0.080600
-0.189741 0.117169 -0.135993
-0.189411 0.245866 -0.100565
-0.008464 0.251147 -0.098276
-0.008789 0.119782 -0.131021
-0.008464 0.251147 -0.098276
-0.009732 0.217515 0.079607
-0.012871 0.006197 0.189994
-0.014948 0.048352 0.104817
-0.195788 0.046561 0.096532
-0.012871 0.006197 0.189994
-0.014093 -0.053057 0.187764
-0.014948 0.048352 0.104817
-0.014093 -0.053057 0.187764
-0.195812 -0.061135 0.054115
-0.014972 -0.059344 0.062400
-0.014093 -0.053057 0.187764
-0.012871 0.006197 0.189994
-0.193829 0.006926 0.184627
-0.195050 -0.052329 0.182397
-0.014093 -0.053057 0.187764
-0.195050 -0.052329 0.182397
-0.195812 -0.061135 0.054115
-0.195788 0.046561 0.096532
-0.193829 0.006926 0.184627
-0.012871 0.006197 0.189994
-0.195812 -0.061135 0.054115
-0.195050 -0.052329 0.182397
-0.193829 0.006926 0.184627
-0.195812 -0.061135 0.054115
-0.195788 0.046561 0.096532
-0.186545 0.009470 -0.147154
-0.005706 0.011261 -0.138869
-0.014948 0.048352 0.104817
-0.014972 -0.059344 0.062400
-0.014093 -0.053057 0.187764
-0.014972 -0.059344 0.062400
-0.014948 0.048352 0.104817
3 0 1 2
3 3 0 2
3 4 5 6
3 6 7 4
3 8 9 10
3 10 11 8
3 12 13 14
3 14 15 12
3 16 17 18
3 18 19 16
3 20 21 22
3 22 23 20
3 24 25 26
3 26 27 24
3 28 29 30
3 30 31 28
3 32 33 34
3 34 35 32
3 36 37 38
3 38 39 36
3 40 41 42
3 42 43 40
3 44 45 46
3 46 47 44
3 48 49 50
3 50 51 48
3 52 53 54
3 54 55 52
3 56 57 58
3 58 59 56
3 60 61 62
3 62 63 60
3 64 65 66
3 66 67 64
3 68 69 70
3 70 71 68
3 72 73 74
3 74 75 72
3 76 77 78
3 78 79 76
3 80 81 82
3 82 83 80
3 84 85 86
3 86 87 84
3 88 89 90
3 90 91 88
3 92 93 94
3 94 95 92
3 96 97 98
3 99 100 101
3 102 103 104
3 104 105 102
3 106 107 108
3 109 110 111
3 112 113 114
3 114 115 112
3 116 117 118
3 119 120 121
3 122 123 124
3 125 126 127
3 128 129 130
3 131 132 133
3 134 135 136
3 137 138 139
3 140 141 142
3 143 144 145
3 146 147 148
3 149 150 151
3 151 152 149
3 153 154 155
3 156 157 158
3 159 160 161
3 162 163 164
3 165 166 167
3 168 169 170
3 171 172 173
3 174 175 176
3 176 177 174
3 178 179 180
3 181 182 183
3 184 185 186
3 187 188 189
3 190 191 192
3 193 194 195
3 196 197 198
3 199 200 201
3 202 203 204
3 204 205 202
3 206 207 208
3 209 210 211
3 212 213 214
3 214 215 212
3 216 217 218
3 219 220 221
3 222 223 224
3 225 226 227
3 228 229 230
3 231 232 233
3 234 235 236
3 237 238 239
3 240 241 242
3 243 244 245
3 246 247 248
3 249 250 251
3 251 252 249
3 253 254 255
3 256 257 258
3 259 260 261
3 262 263 264
3 265 266 267
3 268 269 270
3 271 272 273
3 274 275 276
3 276 277 274
3 278 279 280
3 281 282 283
3 284 285 286
3 287 288 289
3 290 291 292
3 293 294 295
