ply
format ascii 1.0
element vertex 240
property float x
property float y
property float z
element face 120
property list uchar uint vertex_indices
end_header
0.076183 -0.020799 0.759880
0.078806 -0.007739 0.610473
-0.071170 -0.006912 0.607912
-0.073793 -0.019971 0.757319
0.077186 -0.103040 0.749491
-0.072790 -0.102213 0.746930
-0.070166 -0.089153 0.597522
0.079809 -0.089981 0.600083
0.078806 -0.007739 0.610473
0.079809 -0.089981 0.600083
-0.070166 -0.089153 0.597522
-0.071170 -0.006912 0.607912
-0.072790 -0.102213 0.746930
0.077186 -0.103040 0.749491
0.076183 -0.020799 0.759880
-0.073793 -0.019971 0.757319
-0.072790 -0.102213 0.746930
-0.073793 -0.019971 0.757319
-0.071170 -0.006912 0.607912
-0.070166 -0.089153 0.597522
0.077186 -0.103040 0.749491
0.079809 -0.089981 0.600083
0.078806 -0.007739 0.610473
0.076183 -0.020799 0.759880
-0.159138 0.047675 0.947171
-0.161688 0.052037 0.797256
-0.168160 -0.097763 0.793007
-0.165610 -0.102126 0.942922
-0.009300 0.041279 0.944437
-0.015771 -0.108521 0.940187
-0.018321 -0.104158 0.790272
-0.011849 0.045642 0.794522
-0.011849 0.045642 0.794522
-0.018321 -0.104158 0.790272
-0.168160 -0.097763 0.793007
-0.161688 0.052037 0.797256
-0.009300 0.041279 0.944437
-0.159138 0.047675 0.947171
-0.165610 -0.102126 0.942922
-0.015771 -0.108521 0.940187
-0.015771 -0.108521 0.940187
-0.165610 -0.102126 0.942922
-0.168160 -0.097763 0.793007
-0.018321 -0.104158 0.790272
-0.009300 0.041279 0.944437
-0.011849 0.045642 0.794522
-0.161688 0.052037 0.797256
-0.159138 0.047675 0.947171
0.153572 0.054618 0.795140
0.153571 0.050580 0.945085
0.160750 -0.099194 0.941051
0.160751 -0.095155 0.791106
0.010921 -0.106370 0.940857
0.003743 0.043404 0.944891
0.003744 0.047442 0.794945
0.010922 -0.102331 0.790911
0.010922 -0.102331 0.790911
0.003744 0.047442 0.794945
0.153572 0.054618 0.795140
0.160751 -0.095155 0.791106
0.153571 0.050580 0.945085
0.003743 0.043404 0.944891
0.010921 -0.106370 0.940857
0.160750 -0.099194 0.941051
0.160750 -0.099194 0.941051
0.010921 -0.106370 0.940857
0.010922 -0.102331 0.790911
0.160751 -0.095155 0.791106
0.003744 0.047442 0.794945
0.003743 0.043404 0.944891
0.153571 0.050580 0.945085
0.153572 0.054618 0.795140
-0.172596 0.119975 0.977200
-0.176189 0.125112 0.777298
-0.192757 -0.074142 0.772476
-0.189164 -0.079279 0.972377
0.026684 0.103503 0.973195
0.010116 -0.095752 0.968373
0.006523 -0.090615 0.768471
0.023091 0.108640 0.773293
0.020147 -0.061926 0.560323
0.006523 -0.090615 0.768471
-0.192757 -0.074142 0.772476
0.026684 0.103503 0.973195
-0.172596 0.119975 0.977200
-0.189164 -0.079279 0.972377
0.010116 -0.095752 0.968373
0.010116 -0.095752 0.968373
-0.189164 -0.079279 0.972377
-0.192757 -0.074142 0.772476
0.006523 -0.090615 0.768471
0.026684 0.103503 0.973195
0.023091 0.108640 0.773293
-0.176189 0.125112 0.777298
-0.172596 0.119975 0.977200
0.005989 0.055228 0.569586
0.023091 0.108640 0.773293
0.006523 -0.090615 0.768471
-0.144413 0.057199 0.575513
-0.176189 0.125112 0.777298
0.023091 0.108640 0.773293
-0.144413 0.057199 0.575513
-0.192757 -0.074142 0.772476
-0.176189 0.125112 0.777298
0.005989 0.055228 0.569586
0.020147 -0.061926 0.560323
-0.130255 -0.059955 0.566251
-0.144413 0.057199 0.575513
-0.192757 -0.074142 0.772476
-0.130255 -0.059955 0.566251
0.020147 -0.061926 0.560323
-0.144413 0.057199 0.575513
-0.130255 -0.059955 0.566251
-0.192757 -0.074142 0.772476
0.006523 -0.090615 0.768471
0.020147 -0.061926 0.560323
0.005989 0.055228 0.569586
0.023091 0.108640 0.773293
0.005989 0.055228 0.569586
-0.144413 0.057199 0.575513
0.167355 0.127722 0.774782
0.167157 0.123016 0.974727
0.184678 -0.076160 0.970056
0.184875 -0.071454 0.770112
-0.014554 -0.093671 0.969447
-0.032074 0.105505 0.974118
-0.031876 0.110211 0.774173
-0.014356 -0.088965 0.769503
0.184875 -0.071454 0.770112
-0.014356 -0.088965 0.769503
-0.031633 -0.060816 0.561553
0.167157 0.123016 0.974727
-0.032074 0.105505 0.974118
-0.014554 -0.093671 0.969447
0.184678 -0.076160 0.970056
0.184678 -0.076160 0.970056
-0.014554 -0.093671 0.969447
-0.014356 -0.088965 0.769503
0.184875 -0.071454 0.770112
-0.031876 0.110211 0.774173
-0.032074 0.105505 0.974118
0.167157 0.123016 0.974727
0.167355 0.127722 0.774782
-0.014356 -0.088965 0.769503
-0.031876 0.110211 0.774173
-0.017931 0.056431 0.570322
-0.031876 0.110211 0.774173
0.167355 0.127722 0.774782
0.132537 0.059192 0.573709
0.167355 0.127722 0.774782
0.184875 -0.071454 0.770112
0.132537 0.059192 0.573709
0.118834 -0.058054 0.564939
-0.031633 -0.060816 0.561553
-0.017931 0.056431 0.570322
0.132537 0.059192 0.573709
-0.031633 -0.060816 0.561553
0.118834 -0.058054 0.564939
0.184875 -0.071454 0.770112
0.184875 -0.071454 0.770112
0.118834 -0.058054 0.564939
0.132537 0.059192 0.573709
-0.017931 0.056431 0.570322
-0.031633 -0.060816 0.561553
-0.014356 -0.088965 0.769503
0.132537 0.059192 0.573709
-0.017931 0.056431 0.570322
-0.031876 0.110211 0.774173
-0.033203 0.078586 0.914730
-0.034528 0.069596 1.034386
-0.005108 0.079492 1.035455
-0.003783 0.088482 0.915800
-0.053708 0.055342 0.912757
-0.055033 0.046352 1.032412
-0.034528 0.069596 1.034386
-0.033203 0.078586 0.914730
-0.059803 0.024978 0.910408
-0.061128 0.015988 1.030064
-0.055033 0.046352 1.032412
-0.053708 0.055342 0.912757
-0.049855 -0.004369 0.908313
-0.051180 -0.013359 1.027969
-0.061128 0.015988 1.030064
-0.059803 0.024978 0.910408
-0.026530 -0.024837 0.907034
-0.027855 -0.033827 1.026689
-0.051180 -0.013359 1.027969
-0.049855 -0.004369 0.908313
0.003922 -0.030940 0.906912
0.002597 -0.039931 1.026568
-0.027855 -0.033827 1.026689
-0.026530 -0.024837 0.907034
0.033343 -0.021044 0.907982
0.032018 -0.030035 1.027637
0.002597 -0.039931 1.026568
0.003922 -0.030940 0.906912
0.053847 0.002200 0.909955
0.052522 -0.006791 1.029611
0.032018 -0.030035 1.027637
0.033343 -0.021044 0.907982
0.059942 0.032563 0.912304
0.058617 0.023573 1.031959
0.052522 -0.006791 1.029611
0.053847 0.002200 0.909955
0.049995 0.061911 0.914399
0.048670 0.052920 1.034054
0.058617 0.023573 1.031959
0.059942 0.032563 0.912304
0.026670 0.082378 0.915678
0.025345 0.073388 1.035334
0.048670 0.052920 1.034054
0.049995 0.061911 0.914399
-0.003783 0.088482 0.915800
-0.005108 0.079492 1.035455
0.025345 0.073388 1.035334
0.026670 0.082378 0.915678
-0.034528 0.069596 1.034386
-0.055033 0.046352 1.032412
-0.061128 0.015988 1.030064
-0.051180 -0.013359 1.027969
-0.027855 -0.033827 1.026689
0.002597 -0.039931 1.026568
0.032018 -0.030035 1.027637
0.052522 -0.006791 1.029611
0.058617 0.023573 1.031959
0.048670 0.052920 1.034054
0.025345 0.073388 1.035334
-0.005108 0.079492 1.035455
0.049995 0.061911 0.914399
0.059942 0.032563 0.912304
0.053847 0.002200 0.909955
0.033343 -0.021044 0.907982
0.003922 -0.030940 0.906912
-0.026530 -0.024837 0.907034
-0.049855 -0.004369 0.908313
-0.059803 0.024978 0.910408
-0.053708 0.055342 0.912757
-0.033203 0.078586 0.914730
-0.003783 0.088482 0.915800
0.026670 0.082378 0.915678
3 0 1 2
3 2 3 0
3 4 5 6
3 6 7 4
3 8 9 10
3 10 11 8
3 12 13 14
3 14 15 12
3 16 17 18
3 18 19 16
3 20 21 22
3 22 23 20
3 24 25 26
3 26 27 24
3 28 29 30
3 30 31 28
3 32 33 34
3 34 35 32
3 36 37 38
3 38 39 36
3 40 41 42
3 42 43 40
3 44 45 46
3 46 47 44
3 48 49 50
3 50 51 48
3 52 53 54
3 54 55 52
3 56 57 58
3 58 59 56
3 60 61 62
3 62 63 60
3 64 65 66
3 66 67 64
3 68 69 70
3 70 71 68
3 72 73 74
3 74 75 72
3 76 77 78
3 78 79 76
3 80 81 82
3 83 84 85
3 85 86 83
3 87 88 89
3 89 90 87
3 91 92 93
3 93 94 91
3 95 96 97
3 98 99 100
3 101 102 103
3 104 105 106
3 106 107 104
3 108 109 110
3 111 112 113
3 114 115 116
3 117 118 119
3 120 121 122
3 122 123 120
3 124 125 126
3 126 127 124
3 128 129 130
3 131 132 133
3 133 134 131
3 135 136 137
3 137 138 135
3 139 140 141
3 141 142 139
3 143 144 145
3 146 147 148
3 149 150 151
3 152 153 154
3 154 155 152
3 156 157 158
3 159 160 161
3 162 163 164
3 165 166 167
3 168 169 170
3 170 171 168
3 172 173 174
3 174 175 172
3 176 177 178
3 178 179 176
3 180 181 182
3 182 183 180
3 184 185 186
3 186 187 184
3 188 189 190
3 190 191 188
3 192 193 194
3 194 195 192
3 196 197 198
3 198 199 196
3 200 201 202
3 202 203 200
3 204 205 206
3 206 207 204
3 208 209 210
3 210 211 208
3 212 213 214
3 214 215 212
3 216 217 218
3 218 219 220
3 220 221 222
3 218 220 222
3 222 223 224
3 224 225 226
3 222 224 226
3 218 222 226
3 216 218 226
3 227 216 226
3 228 229 230
3 230 231 232
3 232 233 234
3 230 232 234
3 234 235 236
3 236 237 238
3 234 236 238
3 230 234 238
3 228 230 238
3 239 228 238
