ply
format ascii 1.0
comment Created by Blender 2.79 (sub 0) - www.blender.org, source file: ''
element vertex 123
property float x
property float y
property float z
element face 202
property list uchar uint vertex_indices
end_header
-0.596053 -1.012516 0.208849
-0.596053 -0.975797 -0.283927
0.000000 -0.975797 -0.283927
0.000000 -1.012516 0.208849
0.000000 0.601071 0.293000
0.000000 0.608012 0.160575
-0.064786 0.608536 0.153280
-0.124369 0.609662 0.131991
-0.176911 0.611409 0.098610
-0.772313 0.607266 0.281567
-0.220731 0.613702 0.054850
-0.254157 0.616438 0.002380
-0.275478 0.619538 -0.057121
-0.282950 0.622901 -0.121820
-0.064786 0.637128 -0.396931
0.000000 0.637623 -0.404231
0.000000 0.641643 -0.480953
-0.124369 0.636043 -0.375638
-0.176911 0.634326 -0.342258
-0.759947 0.641357 -0.493450
-0.220731 0.632063 -0.298498
-0.254157 0.629347 -0.246024
-0.275478 0.626262 -0.186523
0.000000 -0.835317 0.277792
0.000000 -0.271918 0.348646
-0.333735 -0.271918 0.335424
-0.333735 -0.836298 0.288681
0.000000 -0.975797 -0.283927
-0.596053 -0.975797 -0.283927
-0.780152 -0.151680 -0.511137
0.000000 -0.153804 -0.511137
-0.596053 -0.975797 -0.283927
-0.596053 -1.012516 0.208849
-0.780152 -0.153933 0.239296
-0.780152 -0.151680 -0.511137
-0.081988 -0.085057 0.382150
-0.081317 0.516462 0.376044
-0.694882 0.516828 0.352130
-0.702569 -0.084997 0.325293
0.000000 -0.153804 -0.511137
-0.780152 -0.151680 -0.511137
-0.780152 -0.153933 0.239296
0.000000 -0.153804 0.305959
-0.077164 -0.083875 0.307574
-0.697746 -0.083815 0.250248
-0.076494 0.517644 0.313059
-0.690062 0.518010 0.277086
0.000000 -1.012516 0.208849
0.000000 -0.835317 0.211953
-0.326581 -0.836298 0.222834
-0.596053 -1.012516 0.208849
0.000000 -0.153804 0.305959
-0.780152 -0.153933 0.239296
-0.326581 -0.271088 0.269866
0.000000 -0.271918 0.290695
-0.282077 0.841547 -0.121828
-0.274620 0.841547 -0.186369
0.000000 0.841547 0.159867
-0.064635 0.841547 0.152418
-0.253385 0.841547 -0.245646
-0.220064 0.841547 -0.297951
-0.176370 0.841547 -0.341591
-0.123991 0.841547 -0.374862
-0.064635 0.841547 -0.396072
0.000000 0.841547 -0.403520
-0.123991 0.841547 0.131211
-0.176370 0.841547 0.097938
-0.220064 0.841547 0.054299
-0.253385 0.841547 0.001994
-0.274620 0.841547 -0.057282
0.000000 0.841547 -0.121828
0.596053 -1.012516 0.208849
0.596053 -0.975797 -0.283927
0.064786 0.637128 -0.396931
0.124369 0.636043 -0.375638
0.176911 0.634326 -0.342258
0.759947 0.641357 -0.493450
0.220731 0.632063 -0.298498
0.254157 0.629347 -0.246024
0.275478 0.626262 -0.186523
0.282950 0.622901 -0.121820
0.772313 0.607266 0.281567
0.275478 0.619538 -0.057121
0.254157 0.616438 0.002380
0.220731 0.613702 0.054850
0.176911 0.611409 0.098610
0.064786 0.608536 0.153280
0.124369 0.609662 0.131991
0.333735 -0.836298 0.288681
0.333735 -0.271918 0.335424
0.780152 -0.151680 -0.511137
0.596053 -0.975797 -0.283927
0.596053 -0.975797 -0.283927
0.780152 -0.151680 -0.511137
0.780152 -0.153933 0.239296
0.596053 -1.012516 0.208849
0.081988 -0.085057 0.382150
0.702569 -0.084997 0.325293
0.694882 0.516828 0.352130
0.081317 0.516462 0.376044
0.780152 -0.151680 -0.511137
0.780152 -0.153933 0.239296
0.697746 -0.083815 0.250248
0.077164 -0.083875 0.307574
0.076494 0.517644 0.313059
0.690062 0.518010 0.277086
0.596053 -1.012516 0.208849
0.326581 -0.836298 0.222834
0.326581 -0.271088 0.269866
0.780152 -0.153933 0.239296
0.274620 0.841547 -0.186369
0.282077 0.841547 -0.121828
0.064635 0.841547 0.152418
0.253385 0.841547 -0.245646
0.220064 0.841547 -0.297951
0.176370 0.841547 -0.341591
0.123991 0.841547 -0.374862
0.064635 0.841547 -0.396072
0.123991 0.841547 0.131211
0.176370 0.841547 0.097938
0.220064 0.841547 0.054299
0.253385 0.841547 0.001994
0.274620 0.841547 -0.057282
3 0 1 2
3 3 0 2
3 4 5 6
3 4 6 7
3 4 7 8
3 9 4 8
3 9 8 10
3 9 10 11
3 9 11 12
3 9 12 13
3 14 15 16
3 17 14 16
3 18 17 16
3 18 16 19
3 20 18 19
3 21 20 19
3 22 21 19
3 13 22 19
3 9 13 19
3 23 24 25
3 25 26 23
3 27 28 29
3 29 30 27
3 31 32 33
3 33 34 31
3 35 36 37
3 37 38 35
3 39 40 19
3 19 16 39
3 40 41 9
3 9 19 40
3 41 42 43
3 43 44 41
3 42 4 45
3 45 43 42
3 4 9 46
3 46 45 4
3 9 41 44
3 44 46 9
3 44 43 35
3 35 38 44
3 43 45 36
3 36 35 43
3 45 46 37
3 37 36 45
3 46 44 38
3 38 37 46
3 47 48 49
3 49 50 47
3 51 52 53
3 53 54 51
3 52 50 49
3 49 53 52
3 49 48 23
3 23 26 49
3 54 53 25
3 25 24 54
3 53 49 26
3 26 25 53
3 13 55 56
3 56 22 13
3 5 57 58
3 58 6 5
3 22 56 59
3 59 21 22
3 21 59 60
3 60 20 21
3 20 60 61
3 61 18 20
3 18 61 62
3 62 17 18
3 17 62 63
3 63 14 17
3 14 63 64
3 64 15 14
3 6 58 65
3 65 7 6
3 7 65 66
3 66 8 7
3 8 66 67
3 67 10 8
3 10 67 68
3 68 11 10
3 11 68 69
3 69 12 11
3 12 69 55
3 55 13 12
3 64 63 62
3 62 61 60
3 60 59 56
3 62 60 56
3 56 55 69
3 69 68 67
3 56 69 67
3 62 56 67
3 67 66 65
3 65 58 57
3 67 65 57
3 62 67 57
3 62 57 70
3 64 62 70
3 71 3 2
3 2 72 71
3 16 15 73
3 16 73 74
3 16 74 75
3 76 16 75
3 76 75 77
3 76 77 78
3 76 78 79
3 76 79 80
3 81 76 80
3 81 80 82
3 81 82 83
3 81 83 84
3 81 84 85
3 86 5 4
3 87 86 4
3 85 87 4
3 81 85 4
3 23 88 89
3 89 24 23
3 27 30 90
3 90 91 27
3 92 93 94
3 94 95 92
3 96 97 98
3 98 99 96
3 39 16 76
3 76 100 39
3 100 76 81
3 81 101 100
3 101 102 103
3 103 42 101
3 42 103 104
3 104 4 42
3 4 104 105
3 105 81 4
3 81 105 102
3 102 101 81
3 102 97 96
3 96 103 102
3 103 96 99
3 99 104 103
3 104 99 98
3 98 105 104
3 105 98 97
3 97 102 105
3 47 106 107
3 107 48 47
3 51 54 108
3 108 109 51
3 109 108 107
3 107 106 109
3 107 88 23
3 23 48 107
3 54 24 89
3 89 108 54
3 108 89 88
3 88 107 108
3 80 79 110
3 110 111 80
3 5 86 112
3 112 57 5
3 79 78 113
3 113 110 79
3 78 77 114
3 114 113 78
3 77 75 115
3 115 114 77
3 75 74 116
3 116 115 75
3 74 73 117
3 117 116 74
3 73 15 64
3 64 117 73
3 86 87 118
3 118 112 86
3 87 85 119
3 119 118 87
3 85 84 120
3 120 119 85
3 84 83 121
3 121 120 84
3 83 82 122
3 122 121 83
3 82 80 111
3 111 122 82
3 57 112 118
3 118 119 120
3 57 118 120
3 120 121 122
3 122 111 110
3 120 122 110
3 110 113 114
3 114 115 116
3 110 114 116
3 120 110 116
3 57 120 116
3 70 57 116
3 64 70 116
3 64 116 117
