ply
format ascii 1.0
comment Created by Blender 2.79 (sub 0) - www.blender.org, source file: ''
element vertex 48
property float x
property float y
property float z
element face 56
property list uchar uint vertex_indices
end_header
-0.878617 -0.294128 0.165447
-0.878617 -0.294128 -0.165447
-0.934910 -0.289137 -0.221965
-1.240793 -0.261999 -0.221965
-1.297086 -0.257003 -0.165447
-1.297086 -0.257003 0.165447
-1.240793 -0.261999 0.221965
-0.934910 -0.289137 0.221965
-0.780333 0.573377 0.303913
-1.271970 0.627779 0.303913
-1.284356 0.641886 -0.303913
-0.785192 0.593197 -0.303913
-1.342076 0.034353 0.303913
-1.350726 0.556072 0.303913
-1.271970 0.627779 0.303913
-0.788549 0.013683 0.303913
-0.780333 0.573377 0.303913
-1.342076 0.034353 0.303913
-1.368603 0.013683 -0.303913
-1.365072 0.569124 -0.303913
-1.350726 0.556072 0.303913
-1.368603 0.013683 -0.303913
-0.801866 0.013683 -0.303913
-0.785192 0.593197 -0.303913
-1.284356 0.641886 -0.303913
-1.365072 0.569124 -0.303913
-0.801866 0.013683 -0.303913
-0.788549 0.013683 0.303913
-0.780333 0.573377 0.303913
-0.785192 0.593197 -0.303913
-0.801866 0.013683 -0.303913
-0.840267 0.006838 -0.262911
-0.878617 0.000000 -0.165447
-0.788549 0.013683 0.303913
-0.878617 0.000000 0.165447
-0.837071 0.006310 0.259763
-1.368603 0.013683 -0.303913
-1.333955 0.007055 -0.264214
-1.240572 0.000000 -0.221965
-0.935131 0.000000 -0.221965
-1.342076 0.034353 0.303913
-1.322616 0.019492 0.268467
-1.297086 0.000000 0.165447
-1.297086 0.000000 -0.165447
-0.935131 0.000000 0.221965
-1.240572 0.000000 0.221965
-1.271970 0.627779 0.303913
-1.284356 0.641886 -0.303913
3 0 1 2
3 2 3 4
3 0 2 4
3 4 5 6
3 0 4 6
3 7 0 6
3 8 9 10
3 10 11 8
3 12 13 14
3 15 12 14
3 15 14 16
3 17 18 19
3 19 20 17
3 21 22 23
3 23 24 25
3 21 23 25
3 26 27 28
3 28 29 26
3 30 31 32
3 33 30 32
3 32 34 35
3 33 32 35
3 36 37 38
3 30 36 38
3 38 39 31
3 30 38 31
3 40 41 42
3 36 40 42
3 42 43 37
3 36 42 37
3 33 35 44
3 40 33 44
3 44 45 41
3 40 44 41
3 34 32 1
3 1 0 34
3 39 38 3
3 3 2 39
3 43 42 5
3 5 4 43
3 45 44 7
3 7 6 45
3 46 20 19
3 19 47 46
3 35 34 44
3 31 39 32
3 37 43 38
3 41 45 42
3 34 0 44
3 0 7 44
3 32 39 2
3 2 1 32
3 38 43 4
3 4 3 38
3 42 45 6
3 6 5 42
