ply
format ascii 1.0
comment Created by Blender 2.79 (sub 0) - www.blender.org, source file: ''
element vertex 192
property float x
property float y
property float z
element face 252
property list uchar uint vertex_indices
end_header
-1.052983 -1.159260 0.222753
-1.054547 -1.159260 0.222400
-1.136582 -1.159260 0.204793
-1.137060 -1.159260 0.204463
-1.148095 -1.159260 0.197062
-1.205912 -1.159260 0.155318
-1.207568 -1.159260 0.154187
-1.249358 -1.159260 0.087427
-1.252030 -1.159260 0.083347
-0.972716 -1.159260 0.207012
-0.811007 -1.159260 0.246264
-0.923678 -1.159260 0.172402
-0.906363 -1.159260 0.159739
-0.864908 -1.159260 0.088770
-0.853601 -1.159260 0.008382
-0.811007 -1.159260 -0.246272
-0.872123 -1.159260 -0.068458
-0.875847 -1.159260 -0.073855
-0.916216 -1.159260 -0.131597
-0.979172 -1.159260 -0.173765
-1.054390 -1.159260 -0.189818
-1.132796 -1.159260 -0.176622
-1.309466 -1.159260 -0.246272
-1.138754 -1.159260 -0.173080
-1.201246 -1.159260 -0.133784
-1.205466 -1.159260 -0.128168
-1.247652 -1.159260 -0.069648
-1.249374 -1.159260 -0.062568
-1.265469 -1.159260 0.005608
-1.309466 -1.159260 0.246264
-1.309466 -1.159260 0.246264
-1.309466 -0.264397 0.246264
-0.811007 -0.309366 0.246264
-0.811007 -1.159260 0.246264
-0.811007 -1.159260 0.246264
-0.811007 -0.309366 0.246264
-0.811007 -0.309366 -0.246272
-0.811007 -1.159260 -0.246272
-0.811007 -1.159260 -0.246272
-0.811007 -0.309366 -0.246272
-1.309466 -0.264397 -0.246272
-1.309466 -1.159260 -0.246272
-1.309466 -1.159260 -0.246272
-1.309466 -0.264397 -0.246272
-1.309466 -0.264397 0.246264
-1.309466 -1.159260 0.246264
-1.309466 -0.264397 0.246264
-1.309466 -0.264397 -0.246272
-0.811007 -0.309366 -0.246272
-0.811007 -0.309366 0.246264
-1.054165 -1.171327 -0.206393
-0.972220 -1.172067 -0.189904
-0.979172 -1.159260 -0.173765
-1.054390 -1.159260 -0.189818
-1.138632 -1.170105 -0.190483
-1.054165 -1.171327 -0.206393
-1.054390 -1.159260 -0.189818
-1.132796 -1.159260 -0.176622
-1.051036 -1.277446 -0.271506
-0.943953 -1.278576 -0.250099
-0.904270 -1.171452 -0.143378
-0.916216 -1.159260 -0.131597
-1.138754 -1.159260 -0.173080
-1.162876 -1.278379 -0.250646
-1.051036 -1.277446 -0.271506
-1.045452 -1.401188 -0.294506
-0.929485 -1.400951 -0.271420
-0.854472 -1.277744 -0.189438
-0.859153 -1.169297 -0.073747
-0.875847 -1.159260 -0.073855
-1.212770 -1.170613 -0.144669
-1.201246 -1.159260 -0.133784
-0.832051 -1.399463 -0.205742
-0.795550 -1.274471 -0.098481
-0.872123 -1.159260 -0.068458
-1.205466 -1.159260 -0.128168
-1.262623 -1.283286 -0.190811
-1.166884 -1.407329 -0.271840
-1.045452 -1.401188 -0.294506
-1.037916 -1.536470 -0.266903
-0.931022 -1.532566 -0.245086
-0.840423 -1.528498 -0.183814
-0.768176 -1.395351 -0.107156
-0.776172 -1.269607 0.009045
-0.843941 -1.166038 0.008461
-0.853601 -1.159260 0.008382
-1.263869 -1.171508 -0.075887
-1.247652 -1.159260 -0.069648
-0.780767 -1.521967 -0.092250
-0.747237 -1.390350 0.009387
-0.798316 -1.264602 0.116704
-0.860486 -1.162539 0.090674
-0.864908 -1.159260 0.088770
-1.249374 -1.159260 -0.062568
-1.332279 -1.287617 -0.101042
-1.275238 -1.418990 -0.207024
-1.148775 -1.546631 -0.245972
-1.037916 -1.536470 -0.266903
-1.030074 -1.664726 -0.171598
-0.948999 -1.657277 -0.154675
-0.881047 -1.648205 -0.107112
-0.836218 -1.634637 -0.037074
-0.761342 -1.513018 0.015594
-0.771513 -1.385377 0.125985
-0.857680 -1.260756 0.207840
-0.905910 -1.159693 0.160209
-0.906363 -1.159260 0.159739
-1.281733 -1.170567 0.005526
-1.265469 -1.159260 0.005608
-0.821824 -1.617622 0.044580
-0.784347 -1.502700 0.122829
-0.835945 -1.381499 0.224478
-0.945485 -1.258863 0.268180
-0.972716 -1.159260 0.207012
-0.923678 -1.159260 0.172402
-1.262560 -1.167058 0.087343
-1.252030 -1.159260 0.083347
-1.356561 -1.287384 0.005222
-1.351769 -1.429418 -0.109866
-1.247022 -1.560171 -0.186065
-1.114115 -1.672095 -0.155204
-1.030074 -1.664726 -0.171598
-1.033329 -1.724995 -0.021611
-0.989151 -1.718678 -0.013562
-0.952609 -1.708537 0.010515
-0.928421 -1.695051 0.046504
-0.920043 -1.679462 0.088531
-0.839448 -1.599444 0.125099
-0.844769 -1.493309 0.212667
-0.930966 -1.379951 0.289398
-1.049353 -1.258867 0.288303
-1.052983 -1.159260 0.222753
-1.249358 -1.159260 0.087427
-1.328994 -1.281233 0.112073
-1.378965 -1.432093 0.005112
-1.315641 -1.570177 -0.096571
-1.187954 -1.676805 -0.108952
-0.928638 -1.663969 0.130100
-0.885586 -1.583530 0.192166
-0.932562 -1.487512 0.271245
-1.042185 -1.381137 0.310639
-1.158494 -1.261942 0.265420
-1.136582 -1.159260 0.204793
-1.054547 -1.159260 0.222400
-1.210720 -1.162247 0.157206
-1.207568 -1.159260 0.154187
-1.078572 -1.727036 -0.012457
-1.033329 -1.724995 -0.021611
-1.036195 -1.702227 0.113957
-1.036195 -1.702227 0.113957
-1.036195 -1.702227 0.113957
-1.036195 -1.702227 0.113957
-1.036195 -1.702227 0.113957
-0.952705 -1.651343 0.165134
-0.952436 -1.573299 0.235867
-1.034617 -1.487934 0.289871
-1.159665 -1.390331 0.285563
-1.205912 -1.159260 0.155318
-1.257642 -1.271018 0.203446
-1.347228 -1.424748 0.120578
-1.339346 -1.569795 0.009301
-1.238859 -1.675209 -0.040162
-1.117638 -1.724332 0.012288
-1.036195 -1.702227 0.113957
-1.036195 -1.702227 0.113957
-0.988650 -1.644225 0.188781
-1.030752 -1.572913 0.250776
-1.141924 -1.500576 0.266761
-1.267743 -1.407974 0.218818
-1.148095 -1.159260 0.197062
-1.137060 -1.159260 0.204463
-1.256693 -1.663567 0.041356
-1.036195 -1.702227 0.113957
-1.036195 -1.702227 0.113957
-1.032060 -1.644531 0.197947
-1.112480 -1.585631 0.235427
-1.239919 -1.525680 0.205866
-1.311183 -1.553302 0.115629
-1.143938 -1.716505 0.048868
-1.036195 -1.702227 0.113957
-1.036195 -1.702227 0.113957
-1.076695 -1.652923 0.191209
-1.185732 -1.610588 0.191209
-1.036195 -1.702227 0.113957
-1.152855 -1.703545 0.091785
-1.036195 -1.702227 0.113957
-1.115751 -1.668087 0.169049
-1.237420 -1.640141 0.123074
-1.036195 -1.702227 0.113957
-1.142809 -1.686456 0.134178
-1.036195 -1.702227 0.113957
-1.036195 -1.702227 0.113957
3 0 1 2
3 2 3 4
3 4 5 6
3 6 7 8
3 9 0 10
3 11 9 10
3 12 11 10
3 13 12 10
3 14 13 10
3 14 10 15
3 16 14 15
3 17 16 15
3 18 17 15
3 19 18 15
3 20 19 15
3 21 20 15
3 21 15 22
3 23 21 22
3 24 23 22
3 25 24 22
3 26 25 22
3 27 26 22
3 28 27 22
3 8 28 22
3 8 22 29
3 6 8 29
3 4 6 29
3 2 4 29
3 0 2 29
3 10 0 29
3 30 31 32
3 32 33 30
3 34 35 36
3 36 37 34
3 38 39 40
3 40 41 38
3 42 43 44
3 44 45 42
3 46 47 48
3 48 49 46
3 50 51 52
3 52 53 50
3 54 55 56
3 56 57 54
3 58 59 51
3 51 50 58
3 51 60 61
3 61 52 51
3 62 54 57
3 54 63 64
3 64 55 54
3 58 65 66
3 66 59 58
3 67 60 51
3 51 59 67
3 60 68 69
3 69 61 60
3 70 54 62
3 62 71 70
3 72 67 59
3 59 66 72
3 60 67 73
3 73 68 60
3 69 68 74
3 75 70 71
3 70 76 63
3 63 54 70
3 63 77 78
3 78 64 63
3 65 79 80
3 80 66 65
3 66 80 81
3 81 72 66
3 67 72 82
3 82 73 67
3 68 73 83
3 83 84 68
3 74 68 84
3 84 85 74
3 86 70 75
3 75 87 86
3 81 88 82
3 82 72 81
3 73 82 89
3 89 83 73
3 84 83 90
3 90 91 84
3 85 84 91
3 91 92 85
3 93 86 87
3 86 94 76
3 76 70 86
3 76 95 77
3 77 63 76
3 77 96 97
3 97 78 77
3 79 98 99
3 99 80 79
3 80 99 100
3 100 81 80
3 81 100 101
3 101 88 81
3 102 89 82
3 82 88 102
3 103 90 83
3 83 89 103
3 91 90 104
3 104 105 91
3 92 91 105
3 105 106 92
3 107 86 93
3 93 108 107
3 109 102 88
3 88 101 109
3 110 103 89
3 89 102 110
3 90 103 111
3 111 104 90
3 105 104 112
3 105 112 113
3 114 105 113
3 106 105 114
3 115 107 108
3 108 116 115
3 107 117 94
3 94 86 107
3 94 118 95
3 95 76 94
3 95 119 96
3 96 77 95
3 96 120 121
3 121 97 96
3 98 122 123
3 123 99 98
3 99 123 124
3 124 100 99
3 100 124 125
3 125 101 100
3 101 125 126
3 126 109 101
3 127 110 102
3 102 109 127
3 128 111 103
3 103 110 128
3 129 112 104
3 104 111 129
3 113 112 130
3 130 131 113
3 132 115 116
3 115 133 117
3 117 107 115
3 117 134 118
3 118 94 117
3 118 135 119
3 119 95 118
3 119 136 120
3 120 96 119
3 137 127 109
3 109 126 137
3 138 128 110
3 110 127 138
3 139 129 111
3 111 128 139
3 140 130 112
3 112 129 140
3 141 142 143
3 130 141 143
3 131 130 143
3 144 115 132
3 132 145 144
3 120 146 147
3 147 121 120
3 148 123 122
3 149 124 123
3 150 125 124
3 151 126 125
3 152 137 126
3 153 138 127
3 127 137 153
3 154 139 128
3 128 138 154
3 155 140 129
3 129 139 155
3 156 141 130
3 130 140 156
3 157 144 145
3 144 158 133
3 133 115 144
3 133 159 134
3 134 117 133
3 134 160 135
3 135 118 134
3 135 161 136
3 136 119 135
3 136 162 146
3 146 120 136
3 163 147 146
3 164 153 137
3 165 154 138
3 138 153 165
3 166 155 139
3 139 154 166
3 167 156 140
3 140 155 167
3 168 158 141
3 141 156 168
3 144 169 170
3 158 144 170
3 141 158 170
3 142 141 170
3 169 144 157
3 160 171 161
3 161 135 160
3 172 146 162
3 173 165 153
3 174 166 154
3 154 165 174
3 175 167 155
3 155 166 175
3 176 168 156
3 156 167 176
3 158 168 159
3 159 133 158
3 159 177 160
3 160 134 159
3 161 178 162
3 162 136 161
3 179 162 178
3 180 174 165
3 181 175 166
3 166 174 181
3 182 176 167
3 167 175 182
3 177 159 168
3 168 176 177
3 183 178 184
3 185 181 174
3 186 182 175
3 175 181 186
3 187 177 176
3 176 182 187
3 177 187 171
3 171 160 177
3 171 184 178
3 178 161 171
3 188 184 189
3 190 186 181
3 189 187 182
3 182 186 189
3 191 189 186
3 184 171 187
3 187 189 184
