ply
format ascii 1.0
comment Created by Blender 2.79 (sub 0) - www.blender.org, source file: ''
element vertex 852
property float x
property float y
property float z
element face 724
property list uchar uint vertex_indices
end_header
-0.397799 0.930812 0.033301
0.000000 0.930812 0.033301
0.000000 0.816489 0.384191
-0.397799 0.846766 0.382327
-0.396470 1.250914 0.357774
-0.311459 1.411218 0.453465
-0.388824 1.570141 0.117894
-0.391813 1.357231 0.089721
-0.391942 1.350941 0.092652
-0.392289 1.334310 0.100411
-0.392806 1.306395 0.107888
-0.393282 1.277603 0.110407
-0.393429 1.267257 0.109504
-0.393700 1.248810 0.107888
-0.394531 1.163767 0.064357
-0.394531 1.163495 0.064084
-0.397799 0.930812 0.033301
-0.394500 1.171023 0.071616
-0.394434 1.179441 0.077510
-0.394318 1.194700 0.088195
-0.394145 1.211551 0.096053
-0.394050 1.220892 0.100411
-0.393823 1.238820 0.105209
-0.397799 0.846766 0.382327
-0.392617 1.316516 0.105177
-0.392975 1.295999 0.108799
-0.247057 0.896990 0.379288
-0.245015 1.091741 0.367430
-0.245031 1.139760 0.364508
-0.245468 1.255487 0.357478
-0.396470 1.250914 0.357774
-0.397799 0.846766 0.382327
0.000000 0.816489 0.384191
0.000000 0.895056 0.379405
-0.002605 0.895056 0.379401
-0.397799 0.938111 -0.339520
0.000000 0.938111 -0.339520
0.000000 0.894481 0.384112
-0.247068 0.896415 0.384136
-0.247057 0.896990 0.379288
-0.002605 0.895056 0.379401
0.000000 0.895056 0.379405
-0.388462 1.150586 0.051181
-0.381463 1.140725 0.037100
-0.376695 1.134009 0.027504
-0.370638 1.128554 0.015807
-0.363137 1.121796 0.001311
-0.362035 1.121241 -0.000752
-0.306896 1.530712 -0.034996
-0.311172 1.524222 -0.028359
-0.322042 1.507729 -0.011496
-0.339910 1.465883 0.013908
-0.356250 1.415761 0.035265
-0.357308 1.414567 0.036974
-0.366120 1.404617 0.051181
-0.390673 1.360505 0.088195
-0.379332 1.384182 0.071616
-0.371953 1.395592 0.060205
-0.275613 1.581373 -0.083025
-0.285304 1.529790 -0.073803
-0.294064 1.537223 -0.056948
-0.295684 1.536403 -0.054180
-0.335705 1.475736 0.007926
-0.383823 1.374803 0.078185
-0.245811 1.335622 0.438276
-0.245811 1.339287 0.408412
-0.245468 1.255487 0.357478
-0.245015 1.091741 0.367430
-0.247057 0.896990 0.379288
-0.244931 1.106971 0.412913
-0.245031 1.139760 0.364508
-0.311459 1.411218 0.453465
-0.245811 1.339287 0.408412
-0.160800 1.339484 0.406800
-0.319297 1.354145 -0.317351
-0.296468 1.500923 -0.263297
0.000000 1.596137 -0.317592
-0.397799 0.938111 -0.339520
0.000000 0.938111 -0.339520
-0.388824 1.570141 0.117894
-0.311459 1.411218 0.453465
0.000000 1.534875 0.471045
0.000000 1.683579 0.131203
-0.275613 1.581373 -0.083025
0.000000 1.696110 -0.094071
0.000000 1.596137 -0.317592
-0.296468 1.500923 -0.263297
-0.319518 1.370642 -0.191894
-0.318002 1.377728 -0.186933
-0.317083 1.382027 -0.183922
-0.316623 1.384182 -0.182415
-0.315654 1.388522 -0.178073
-0.310470 1.415041 -0.175799
-0.284697 1.533710 -0.078997
-0.284120 1.540656 -0.104861
-0.286222 1.533251 -0.127569
-0.296468 1.500923 -0.263297
-0.286309 1.532849 -0.127925
-0.291069 1.511134 -0.147192
-0.298968 1.472721 -0.163492
-0.301710 1.458970 -0.166428
-0.362948 1.118234 -0.011984
-0.364138 1.114316 -0.026606
-0.364761 1.113134 -0.040114
-0.365471 1.111795 -0.055402
-0.365545 1.112298 -0.061117
-0.365239 1.112973 -0.068856
-0.364636 1.114316 -0.084191
-0.363720 1.117852 -0.097401
-0.362703 1.121796 -0.112109
-0.361324 1.128121 -0.125666
-0.360584 1.131508 -0.132938
-0.397799 0.938111 -0.339520
-0.360130 1.134009 -0.138301
-0.358634 1.142176 -0.149966
-0.357096 1.150586 -0.161978
-0.355185 1.160926 -0.172316
-0.353317 1.171023 -0.182415
-0.351020 1.183375 -0.191066
-0.348915 1.194700 -0.198992
-0.346274 1.208841 -0.205589
-0.344023 1.220892 -0.211209
-0.342608 1.228442 -0.213230
-0.319297 1.354145 -0.317351
-0.341225 1.236506 -0.215390
-0.339114 1.248810 -0.218685
-0.337072 1.261043 -0.219758
-0.334310 1.277603 -0.221206
-0.331516 1.294777 -0.219702
-0.329628 1.306395 -0.218685
-0.326919 1.323539 -0.214094
-0.325218 1.334310 -0.211209
-0.323719 1.344099 -0.206642
-0.321206 1.360505 -0.198992
-0.320153 1.367671 -0.193975
-0.291728 1.507922 -0.148556
-0.284132 1.540526 -0.104374
-0.284890 1.532471 -0.077357
-0.244931 1.106971 0.412913
-0.247068 0.896415 0.384136
0.000000 0.849065 0.489253
0.000000 0.849069 0.489253
0.000000 1.341550 0.389964
0.000000 1.534875 0.471045
0.000000 1.148074 0.519627
-0.174416 1.225949 0.412077
-0.178507 1.271048 0.419747
-0.245811 1.335622 0.438276
-0.063387 1.217941 0.412814
0.000000 1.160335 0.416752
-0.067043 1.270971 0.420384
0.000000 1.335622 0.438276
-0.179050 1.222271 0.441185
-0.183468 1.275848 0.449465
-0.063087 1.275759 0.450154
-0.059139 1.212761 0.441981
-0.487271 1.360505 -0.198992
-0.487271 1.384182 -0.182415
-0.398623 1.384182 -0.182415
-0.391710 1.380451 -0.185028
-0.361694 1.375225 -0.188686
-0.321206 1.360505 -0.198992
-0.320153 1.367671 -0.193975
-0.319518 1.370642 -0.191894
-0.332513 1.380451 -0.185028
-0.326191 1.384182 -0.182415
-0.316623 1.384182 -0.182415
-0.317083 1.382027 -0.183922
-0.318002 1.377728 -0.186933
-0.361694 1.375225 -0.188686
-0.427040 2.109816 -0.219698
-0.332513 1.380451 -0.185028
-0.323719 1.344099 -0.206642
-0.325218 1.334310 -0.211209
-0.487271 1.334310 -0.211209
-0.321206 1.360505 -0.198992
-0.391710 1.380451 -0.185028
-0.427040 2.109816 -0.219698
-0.361694 1.375225 -0.188686
-0.310470 1.415041 -0.175799
-0.315654 1.388522 -0.178073
-0.326191 1.384182 -0.182415
-0.427040 2.109816 -0.219698
-0.398623 1.384182 -0.182415
-0.419398 1.392241 -0.174360
-0.427040 2.109816 -0.219698
-0.326191 1.384182 -0.182415
-0.315654 1.388522 -0.178073
-0.326919 1.323539 -0.214094
-0.329628 1.306395 -0.218685
-0.487271 1.306395 -0.218685
-0.427040 2.109816 -0.219698
-0.298968 1.472721 -0.163492
-0.301710 1.458970 -0.166428
-0.310470 1.415041 -0.175799
-0.487271 1.384182 -0.182415
-0.487271 1.404617 -0.161978
-0.436680 1.404617 -0.161978
-0.419398 1.392241 -0.174360
-0.398623 1.384182 -0.182415
-0.436680 1.404617 -0.161978
-0.442467 1.407580 -0.157745
-0.331516 1.294777 -0.219702
-0.334310 1.277603 -0.221206
-0.487271 1.277603 -0.221206
-0.427040 2.109816 -0.219698
-0.291069 1.511134 -0.147192
-0.291728 1.507922 -0.148556
-0.298968 1.472721 -0.163492
-0.458032 1.421196 -0.138301
-0.459531 1.422079 -0.136409
-0.427040 2.109816 -0.219698
-0.442467 1.407580 -0.157745
-0.442467 1.407580 -0.157745
-0.436680 1.404617 -0.161978
-0.458032 1.421196 -0.138301
-0.487271 1.421196 -0.138301
-0.337072 1.261043 -0.219758
-0.339114 1.248810 -0.218685
-0.487271 1.248810 -0.218685
-0.487271 1.277603 -0.221206
-0.334310 1.277603 -0.221206
-0.427040 2.109816 -0.219698
-0.286222 1.533251 -0.127569
-0.286309 1.532849 -0.127925
-0.291069 1.511134 -0.147192
-0.487271 1.433410 -0.112109
-0.469722 1.433410 -0.112109
-0.459531 1.422079 -0.136409
-0.458032 1.421196 -0.138301
-0.469722 1.433410 -0.112109
-0.469919 1.433536 -0.111633
-0.427040 2.109816 -0.219698
-0.286222 1.533251 -0.127569
-0.284120 1.540656 -0.104861
-0.341225 1.236506 -0.215390
-0.342608 1.228442 -0.213230
-0.344023 1.220892 -0.211209
-0.487271 1.220892 -0.211209
-0.487271 1.248810 -0.218685
-0.339114 1.248810 -0.218685
-0.346274 1.208841 -0.205589
-0.348915 1.194700 -0.198992
-0.487271 1.194700 -0.198992
-0.487271 1.220892 -0.211209
-0.473359 1.440752 -0.084704
-0.427040 2.109816 -0.219698
-0.487271 1.440893 -0.084191
-0.473284 1.440893 -0.084191
-0.473359 1.440752 -0.084704
-0.469919 1.433536 -0.111633
-0.284697 1.533710 -0.078997
-0.284132 1.540526 -0.104374
-0.284120 1.540656 -0.104861
-0.351020 1.183375 -0.191066
-0.353317 1.171023 -0.182415
-0.487271 1.171023 -0.182415
-0.487271 1.194700 -0.198992
-0.348915 1.194700 -0.198992
-0.473284 1.440893 -0.084191
-0.469793 1.443277 -0.056912
-0.355185 1.160926 -0.172316
-0.357096 1.150586 -0.161978
-0.487271 1.150586 -0.161978
-0.487271 1.171023 -0.182415
-0.353317 1.171023 -0.182415
-0.294064 1.537223 -0.056948
-0.285304 1.529790 -0.073803
-0.284890 1.532471 -0.077357
-0.370638 1.128554 0.015807
-0.376695 1.134009 0.027504
-0.487271 1.134009 0.027504
-0.487271 1.121796 0.001311
-0.363137 1.121796 0.001311
-0.358634 1.142176 -0.149966
-0.360130 1.134009 -0.138301
-0.487271 1.134009 -0.138301
-0.487271 1.443408 -0.055402
-0.469170 1.443408 -0.055402
-0.469793 1.443277 -0.056912
-0.469170 1.443408 -0.055402
-0.459342 1.441158 -0.029641
-0.427040 2.109816 -0.219698
-0.362948 1.118234 -0.011984
-0.362035 1.121241 -0.000752
-0.487271 1.114316 -0.026606
-0.364138 1.114316 -0.026606
-0.360130 1.134009 -0.138301
-0.360584 1.131508 -0.132938
-0.361324 1.128121 -0.125666
-0.487271 1.134009 -0.138301
-0.487271 1.121796 -0.112109
-0.362703 1.121796 -0.112109
-0.306896 1.530712 -0.034996
-0.295684 1.536403 -0.054180
-0.294064 1.537223 -0.056948
-0.487271 1.111795 -0.055402
-0.365471 1.111795 -0.055402
-0.364761 1.113134 -0.040114
-0.487271 1.440893 -0.026606
-0.457169 1.440893 -0.026606
-0.459342 1.441158 -0.029641
-0.363720 1.117852 -0.097401
-0.364636 1.114316 -0.084191
-0.487271 1.114316 -0.084191
-0.487271 1.121796 -0.112109
-0.362703 1.121796 -0.112109
-0.457169 1.440893 -0.026606
-0.442343 1.434955 -0.004454
-0.388462 1.150586 0.051181
-0.487271 1.150586 0.051181
-0.487271 1.134009 0.027504
-0.376695 1.134009 0.027504
-0.381463 1.140725 0.037100
-0.365545 1.112298 -0.061117
-0.364636 1.114316 -0.084191
-0.365239 1.112973 -0.068856
-0.487271 1.433410 0.001311
-0.435750 1.433410 0.001311
-0.442343 1.434955 -0.004454
-0.457169 1.440893 -0.026606
-0.322042 1.507729 -0.011496
-0.311172 1.524222 -0.028359
-0.306896 1.530712 -0.034996
-0.487271 1.171023 0.071616
-0.394531 1.163495 0.064084
-0.394531 1.163767 0.064357
-0.394500 1.171023 0.071616
-0.487271 1.150586 0.051181
-0.487271 1.171023 0.071616
-0.487271 1.194700 0.088195
-0.487271 1.360505 -0.198992
-0.487271 1.334310 -0.211209
-0.487271 1.306395 -0.218685
-0.487271 1.384182 -0.182415
-0.487271 1.404617 -0.161978
-0.487271 1.421196 -0.138301
-0.487271 1.277603 -0.221206
-0.487271 1.248810 -0.218685
-0.487271 1.220892 -0.211209
-0.487271 1.194700 -0.198992
-0.487271 1.171023 -0.182415
-0.487271 1.150586 -0.161978
-0.487271 1.134009 -0.138301
-0.487271 1.121796 -0.112109
-0.487271 1.114316 -0.084191
-0.487271 1.111795 -0.055402
-0.487271 1.114316 -0.026606
-0.487271 1.121796 0.001311
-0.487271 1.134009 0.027504
-0.487271 1.433410 -0.112109
-0.487271 1.440893 -0.084191
-0.487271 1.443408 -0.055402
-0.487271 1.440893 -0.026606
-0.487271 1.433410 0.001311
-0.487271 1.421196 0.027504
-0.487271 1.404617 0.051181
-0.487271 1.384182 0.071616
-0.487271 1.360505 0.088195
-0.487271 1.334310 0.100411
-0.487271 1.306395 0.107888
-0.487271 1.277603 0.110407
-0.487271 1.248810 0.107888
-0.487271 1.220892 0.100411
-0.487271 1.421196 0.027504
-0.398295 1.421196 0.027504
-0.419474 1.426244 0.016678
-0.435750 1.433410 0.001311
-0.487271 1.433410 0.001311
-0.435750 1.433410 0.001311
-0.419474 1.426244 0.016678
-0.357308 1.414567 0.036974
-0.356250 1.415761 0.035265
-0.362409 1.414953 0.036419
-0.366120 1.404617 0.051181
-0.487271 1.404617 0.051181
-0.392092 1.418744 0.031008
-0.398295 1.421196 0.027504
-0.487271 1.421196 0.027504
-0.339910 1.465883 0.013908
-0.335705 1.475736 0.007926
-0.322042 1.507729 -0.011496
-0.394434 1.179441 0.077510
-0.394318 1.194700 0.088195
-0.487271 1.194700 0.088195
-0.487271 1.171023 0.071616
-0.394500 1.171023 0.071616
-0.394145 1.211551 0.096053
-0.394050 1.220892 0.100411
-0.487271 1.220892 0.100411
-0.487271 1.404617 0.051181
-0.487271 1.384182 0.071616
-0.379332 1.384182 0.071616
-0.371953 1.395592 0.060205
-0.366120 1.404617 0.051181
-0.398295 1.421196 0.027504
-0.392092 1.418744 0.031008
-0.427040 2.109816 -0.219698
-0.393823 1.238820 0.105209
-0.393700 1.248810 0.107888
-0.487271 1.248810 0.107888
-0.487271 1.220892 0.100411
-0.394050 1.220892 0.100411
-0.487271 1.360505 0.088195
-0.390673 1.360505 0.088195
-0.383823 1.374803 0.078185
-0.362409 1.414953 0.036419
-0.356250 1.415761 0.035265
-0.393429 1.267257 0.109504
-0.393282 1.277603 0.110407
-0.487271 1.277603 0.110407
-0.487271 1.248810 0.107888
-0.393700 1.248810 0.107888
-0.391813 1.357231 0.089721
-0.390673 1.360505 0.088195
-0.487271 1.334310 0.100411
-0.392289 1.334310 0.100411
-0.391942 1.350941 0.092652
-0.362409 1.414953 0.036419
-0.392975 1.295999 0.108799
-0.392806 1.306395 0.107888
-0.487271 1.306395 0.107888
-0.487271 1.277603 0.110407
-0.393282 1.277603 0.110407
-0.487271 1.306395 0.107888
-0.392806 1.306395 0.107888
-0.392617 1.316516 0.105177
0.000000 0.916369 0.386796
-0.247068 0.896415 0.384136
0.000000 0.894481 0.384112
-0.160800 1.339484 0.406800
-0.245811 1.339287 0.408412
-0.245811 1.335622 0.438276
0.000000 1.341550 0.389964
0.000000 1.335622 0.438276
0.000000 0.849065 0.489253
0.000000 0.916369 0.386796
0.000000 1.160335 0.416752
-0.244931 1.106971 0.412913
0.000000 1.148074 0.519627
0.397803 0.930812 0.033301
0.397803 0.846766 0.382327
0.396470 1.250914 0.357774
0.397803 0.846766 0.382327
0.397803 0.930812 0.033301
0.394535 1.163495 0.064084
0.394531 1.163767 0.064357
0.394500 1.171023 0.071616
0.394434 1.179441 0.077510
0.394318 1.194700 0.088195
0.394145 1.211551 0.096053
0.394050 1.220892 0.100411
0.393823 1.238820 0.105209
0.393700 1.248810 0.107888
0.393429 1.267257 0.109504
0.393282 1.277603 0.110407
0.392806 1.306395 0.107888
0.392289 1.334310 0.100411
0.391942 1.350941 0.092652
0.391813 1.357231 0.089721
0.388824 1.570141 0.117894
0.311459 1.411218 0.453465
0.392617 1.316516 0.105177
0.392975 1.295999 0.108799
0.397803 0.846766 0.382327
0.002605 0.895056 0.379401
0.247057 0.896990 0.379288
0.396470 1.250914 0.357774
0.245468 1.255487 0.357478
0.245035 1.139760 0.364508
0.245015 1.091741 0.367430
0.397803 0.938111 -0.339520
0.247057 0.896990 0.379288
0.247068 0.896415 0.384136
0.002605 0.895056 0.379401
0.362035 1.121241 -0.000752
0.363137 1.121796 0.001311
0.370641 1.128554 0.015807
0.376695 1.134009 0.027504
0.381463 1.140725 0.037100
0.388462 1.150586 0.051181
0.306896 1.530712 -0.034996
0.322042 1.507729 -0.011496
0.311172 1.524222 -0.028359
0.294064 1.537223 -0.056948
0.285304 1.529790 -0.073803
0.275617 1.581373 -0.083025
0.295684 1.536403 -0.054180
0.390673 1.360505 0.088195
0.379332 1.384182 0.071616
0.371953 1.395592 0.060205
0.366120 1.404617 0.051181
0.335705 1.475736 0.007926
0.339914 1.465883 0.013908
0.357308 1.414567 0.036974
0.356250 1.415761 0.035265
0.383823 1.374803 0.078185
0.247057 0.896990 0.379288
0.245015 1.091741 0.367430
0.244931 1.106971 0.412913
0.245035 1.139760 0.364508
0.245468 1.255487 0.357478
0.245811 1.335622 0.438276
0.245811 1.339287 0.408412
0.311459 1.411218 0.453465
0.160800 1.339484 0.406800
0.245811 1.339287 0.408412
0.296468 1.500923 -0.263297
0.319297 1.354145 -0.317351
0.397803 0.938111 -0.339520
0.296468 1.500923 -0.263297
0.275617 1.581373 -0.083025
0.311459 1.411218 0.453465
0.388824 1.570141 0.117894
0.319518 1.370642 -0.191894
0.317083 1.382027 -0.183922
0.318002 1.377728 -0.186933
0.362948 1.118234 -0.011984
0.364138 1.114316 -0.026606
0.364761 1.113134 -0.040114
0.365471 1.111795 -0.055402
0.365545 1.112298 -0.061117
0.365239 1.112973 -0.068856
0.364636 1.114316 -0.084191
0.363720 1.117852 -0.097401
0.362703 1.121796 -0.112109
0.361324 1.128121 -0.125666
0.360584 1.131508 -0.132938
0.397803 0.938111 -0.339520
0.360130 1.134009 -0.138301
0.358634 1.142176 -0.149966
0.357096 1.150586 -0.161978
0.355185 1.160926 -0.172316
0.353317 1.171023 -0.182415
0.351020 1.183375 -0.191066
0.348915 1.194700 -0.198992
0.346274 1.208841 -0.205589
0.344023 1.220892 -0.211209
0.342608 1.228442 -0.213230
0.319297 1.354145 -0.317351
0.341225 1.236506 -0.215390
0.339114 1.248810 -0.218685
0.296468 1.500923 -0.263297
0.337072 1.261043 -0.219758
0.334310 1.277603 -0.221206
0.331516 1.294777 -0.219702
0.329628 1.306395 -0.218685
0.326919 1.323539 -0.214094
0.325218 1.334310 -0.211209
0.323719 1.344099 -0.206642
0.321206 1.360505 -0.198992
0.320153 1.367671 -0.193975
0.284697 1.533710 -0.078997
0.284120 1.540656 -0.104861
0.286222 1.533251 -0.127569
0.286309 1.532849 -0.127925
0.291069 1.511134 -0.147192
0.298968 1.472721 -0.163492
0.301710 1.458970 -0.166428
0.310470 1.415041 -0.175799
0.316623 1.384182 -0.182415
0.315654 1.388522 -0.178073
0.291728 1.507922 -0.148556
0.284132 1.540526 -0.104374
0.284890 1.532471 -0.077357
0.244931 1.106971 0.412913
0.247068 0.896415 0.384136
0.178507 1.271048 0.419747
0.245811 1.335622 0.438276
0.174416 1.225949 0.412077
0.063387 1.217941 0.412814
0.067043 1.270971 0.420384
0.183468 1.275848 0.449465
0.179050 1.222271 0.441185
0.063087 1.275759 0.450154
0.059139 1.212761 0.441981
0.317083 1.382027 -0.183922
0.316623 1.384182 -0.182415
0.326191 1.384182 -0.182415
0.318002 1.377728 -0.186933
0.332513 1.380451 -0.185028
0.319518 1.370642 -0.191894
0.361694 1.375225 -0.188686
0.398623 1.384182 -0.182415
0.487271 1.384182 -0.182415
0.487271 1.360505 -0.198992
0.391710 1.380451 -0.185028
0.321206 1.360505 -0.198992
0.320153 1.367671 -0.193975
0.361694 1.375225 -0.188686
0.332513 1.380451 -0.185028
0.427040 2.109816 -0.219698
0.323719 1.344099 -0.206642
0.321206 1.360505 -0.198992
0.487271 1.334310 -0.211209
0.325218 1.334310 -0.211209
0.391710 1.380451 -0.185028
0.361694 1.375225 -0.188686
0.427040 2.109816 -0.219698
0.427040 2.109816 -0.219698
0.326191 1.384182 -0.182415
0.315654 1.388522 -0.178073
0.310470 1.415041 -0.175799
0.398623 1.384182 -0.182415
0.427040 2.109816 -0.219698
0.419398 1.392241 -0.174360
0.315654 1.388522 -0.178073
0.326191 1.384182 -0.182415
0.326919 1.323539 -0.214094
0.487271 1.306395 -0.218685
0.329628 1.306395 -0.218685
0.427040 2.109816 -0.219698
0.310470 1.415041 -0.175799
0.301710 1.458970 -0.166428
0.298968 1.472721 -0.163492
0.487271 1.384182 -0.182415
0.398623 1.384182 -0.182415
0.419398 1.392241 -0.174360
0.436680 1.404617 -0.161978
0.487271 1.404617 -0.161978
0.436680 1.404617 -0.161978
0.442467 1.407580 -0.157745
0.331516 1.294777 -0.219702
0.487271 1.277603 -0.221206
0.334310 1.277603 -0.221206
0.427040 2.109816 -0.219698
0.298968 1.472721 -0.163492
0.291728 1.507922 -0.148556
0.291069 1.511134 -0.147192
0.458032 1.421196 -0.138301
0.442467 1.407580 -0.157745
0.427040 2.109816 -0.219698
0.459531 1.422079 -0.136409
0.458032 1.421196 -0.138301
0.487271 1.421196 -0.138301
0.436680 1.404617 -0.161978
0.442467 1.407580 -0.157745
0.337072 1.261043 -0.219758
0.334310 1.277603 -0.221206
0.487271 1.277603 -0.221206
0.487271 1.248810 -0.218685
0.339114 1.248810 -0.218685
0.427040 2.109816 -0.219698
0.291069 1.511134 -0.147192
0.286309 1.532849 -0.127925
0.286222 1.533251 -0.127569
0.458032 1.421196 -0.138301
0.459531 1.422079 -0.136409
0.469722 1.433410 -0.112109
0.487271 1.433410 -0.112109
0.469722 1.433410 -0.112109
0.427040 2.109816 -0.219698
0.469919 1.433536 -0.111633
0.286222 1.533251 -0.127569
0.284120 1.540656 -0.104861
0.341225 1.236506 -0.215390
0.339114 1.248810 -0.218685
0.487271 1.248810 -0.218685
0.487271 1.220892 -0.211209
0.344023 1.220892 -0.211209
0.342608 1.228442 -0.213230
0.346274 1.208841 -0.205589
0.487271 1.220892 -0.211209
0.487271 1.194700 -0.198992
0.348915 1.194700 -0.198992
0.473359 1.440752 -0.084704
0.427040 2.109816 -0.219698
0.469919 1.433536 -0.111633
0.473359 1.440752 -0.084704
0.473284 1.440893 -0.084191
0.487271 1.440893 -0.084191
0.284120 1.540656 -0.104861
0.284132 1.540526 -0.104374
0.284697 1.533710 -0.078997
0.351020 1.183375 -0.191066
0.348915 1.194700 -0.198992
0.487271 1.194700 -0.198992
0.487271 1.171023 -0.182415
0.353317 1.171023 -0.182415
0.473284 1.440893 -0.084191
0.469793 1.443277 -0.056912
0.355185 1.160926 -0.172316
0.353317 1.171023 -0.182415
0.487271 1.171023 -0.182415
0.487271 1.150586 -0.161978
0.357096 1.150586 -0.161978
0.284890 1.532471 -0.077357
0.285304 1.529790 -0.073803
0.294064 1.537223 -0.056948
0.370641 1.128554 0.015807
0.363137 1.121796 0.001311
0.487271 1.121796 0.001311
0.487271 1.134009 0.027504
0.376695 1.134009 0.027504
0.358634 1.142176 -0.149966
0.487271 1.134009 -0.138301
0.360130 1.134009 -0.138301
0.487271 1.443408 -0.055402
0.469793 1.443277 -0.056912
0.469170 1.443408 -0.055402
0.469170 1.443408 -0.055402
0.427040 2.109816 -0.219698
0.459342 1.441158 -0.029641
0.362948 1.118234 -0.011984
0.364138 1.114316 -0.026606
0.487271 1.114316 -0.026606
0.362035 1.121241 -0.000752
0.487271 1.121796 -0.112109
0.362703 1.121796 -0.112109
0.361324 1.128121 -0.125666
0.360584 1.131508 -0.132938
0.360130 1.134009 -0.138301
0.487271 1.134009 -0.138301
0.294064 1.537223 -0.056948
0.295684 1.536403 -0.054180
0.306896 1.530712 -0.034996
0.364761 1.113134 -0.040114
0.365471 1.111795 -0.055402
0.487271 1.111795 -0.055402
0.487271 1.440893 -0.026606
0.459342 1.441158 -0.029641
0.457169 1.440893 -0.026606
0.363720 1.117852 -0.097401
0.362703 1.121796 -0.112109
0.487271 1.121796 -0.112109
0.487271 1.114316 -0.084191
0.364636 1.114316 -0.084191
0.457169 1.440893 -0.026606
0.442343 1.434955 -0.004454
0.381463 1.140725 0.037100
0.376695 1.134009 0.027504
0.487271 1.134009 0.027504
0.388462 1.150586 0.051181
0.487271 1.150586 0.051181
0.365239 1.112973 -0.068856
0.364636 1.114316 -0.084191
0.365545 1.112298 -0.061117
0.487271 1.433410 0.001311
0.457169 1.440893 -0.026606
0.442343 1.434955 -0.004454
0.435750 1.433410 0.001311
0.306896 1.530712 -0.034996
0.311172 1.524222 -0.028359
0.322042 1.507729 -0.011496
0.487271 1.171023 0.071616
0.394500 1.171023 0.071616
0.394531 1.163767 0.064357
0.394535 1.163495 0.064084
0.487271 1.306395 -0.218685
0.487271 1.334310 -0.211209
0.487271 1.360505 -0.198992
0.487271 1.384182 -0.182415
0.487271 1.404617 -0.161978
0.487271 1.421196 -0.138301
0.487271 1.277603 -0.221206
0.487271 1.248810 -0.218685
0.487271 1.220892 -0.211209
0.487271 1.194700 -0.198992
0.487271 1.171023 -0.182415
0.487271 1.150586 -0.161978
0.487271 1.134009 -0.138301
0.487271 1.121796 -0.112109
0.487271 1.114316 -0.084191
0.487271 1.111795 -0.055402
0.487271 1.114316 -0.026606
0.487271 1.121796 0.001311
0.487271 1.134009 0.027504
0.487271 1.433410 -0.112109
0.487271 1.440893 -0.084191
0.487271 1.443408 -0.055402
0.487271 1.440893 -0.026606
0.487271 1.433410 0.001311
0.487271 1.421196 0.027504
0.487271 1.404617 0.051181
0.487271 1.384182 0.071616
0.487271 1.360505 0.088195
0.487271 1.334310 0.100411
0.487271 1.306395 0.107888
0.487271 1.277603 0.110407
0.487271 1.248810 0.107888
0.487271 1.220892 0.100411
0.487271 1.194700 0.088195
0.487271 1.150586 0.051181
0.487271 1.171023 0.071616
0.487271 1.421196 0.027504
0.487271 1.433410 0.001311
0.435750 1.433410 0.001311
0.419474 1.426244 0.016678
0.398299 1.421196 0.027504
0.435750 1.433410 0.001311
0.419474 1.426244 0.016678
0.487271 1.404617 0.051181
0.487271 1.421196 0.027504
0.398299 1.421196 0.027504
0.392092 1.418744 0.031008
0.362409 1.414953 0.036419
0.356250 1.415761 0.035265
0.357308 1.414567 0.036974
0.366120 1.404617 0.051181
0.322042 1.507729 -0.011496
0.335705 1.475736 0.007926
0.339914 1.465883 0.013908
0.394434 1.179441 0.077510
0.394500 1.171023 0.071616
0.487271 1.171023 0.071616
0.487271 1.194700 0.088195
0.394318 1.194700 0.088195
0.394145 1.211551 0.096053
0.487271 1.220892 0.100411
0.394050 1.220892 0.100411
0.487271 1.404617 0.051181
0.366120 1.404617 0.051181
0.371953 1.395592 0.060205
0.379332 1.384182 0.071616
0.487271 1.384182 0.071616
0.398299 1.421196 0.027504
0.427040 2.109816 -0.219698
0.392092 1.418744 0.031008
0.393823 1.238820 0.105209
0.394050 1.220892 0.100411
0.487271 1.220892 0.100411
0.487271 1.248810 0.107888
0.393700 1.248810 0.107888
0.383823 1.374803 0.078185
0.390673 1.360505 0.088195
0.487271 1.360505 0.088195
0.362409 1.414953 0.036419
0.356250 1.415761 0.035265
0.393429 1.267257 0.109504
0.393700 1.248810 0.107888
0.487271 1.248810 0.107888
0.487271 1.277603 0.110407
0.393282 1.277603 0.110407
0.391942 1.350941 0.092652
0.392289 1.334310 0.100411
0.487271 1.334310 0.100411
0.391813 1.357231 0.089721
0.390673 1.360505 0.088195
0.362409 1.414953 0.036419
0.392975 1.295999 0.108799
0.393282 1.277603 0.110407
0.487271 1.277603 0.110407
0.487271 1.306395 0.107888
0.392806 1.306395 0.107888
0.392617 1.316516 0.105177
0.392806 1.306395 0.107888
0.487271 1.306395 0.107888
0.247068 0.896415 0.384136
0.245811 1.335622 0.438276
0.245811 1.339287 0.408412
0.160800 1.339484 0.406800
0.244931 1.106971 0.412913
3 0 1 2
3 3 0 2
3 4 5 6
3 4 6 7
3 4 7 8
3 4 8 9
3 4 9 10
3 4 10 11
3 4 11 12
3 4 12 13
3 14 15 16
3 17 14 16
3 18 17 16
3 19 18 16
3 20 19 16
3 21 20 16
3 22 21 16
3 13 22 16
3 4 13 16
3 4 16 23
3 9 24 10
3 10 25 11
3 26 27 28
3 29 30 31
3 28 29 31
3 26 28 31
3 31 32 33
3 31 33 34
3 26 31 34
3 1 0 35
3 35 36 1
3 37 38 39
3 37 39 40
3 41 37 40
3 16 15 42
3 16 42 43
3 16 43 44
3 16 44 45
3 16 45 46
3 16 46 47
3 48 49 50
3 51 52 53
3 51 53 54
3 55 7 6
3 56 55 6
3 57 56 6
3 54 57 6
3 58 59 60
3 6 58 60
3 6 60 61
3 6 61 48
3 6 48 50
3 54 6 50
3 54 50 62
3 51 54 62
3 56 63 55
3 64 65 66
3 67 68 38
3 67 38 69
3 70 67 69
3 66 70 69
3 64 66 69
3 71 30 29
3 71 29 72
3 71 72 73
3 74 75 76
3 77 74 76
3 78 77 76
3 79 80 81
3 79 81 82
3 83 79 82
3 83 82 84
3 84 85 86
3 83 84 86
3 87 88 89
3 90 91 92
3 93 59 58
3 94 93 58
3 95 94 58
3 95 58 96
3 97 95 96
3 98 97 96
3 99 98 96
3 100 99 96
3 92 100 96
3 16 47 101
3 16 101 102
3 16 102 103
3 16 103 104
3 16 104 105
3 16 105 106
3 16 106 107
3 16 107 108
3 16 108 109
3 16 109 110
3 16 110 111
3 112 16 111
3 112 111 113
3 112 113 114
3 112 114 115
3 112 115 116
3 112 116 117
3 112 117 118
3 112 118 119
3 112 119 120
3 112 120 121
3 112 121 122
3 123 112 122
3 123 122 124
3 123 124 125
3 96 123 125
3 96 125 126
3 96 126 127
3 96 127 128
3 96 128 129
3 96 129 130
3 96 130 131
3 96 131 132
3 96 132 133
3 96 133 134
3 96 134 87
3 96 87 89
3 92 96 89
3 90 92 89
3 99 135 98
3 94 136 93
3 59 93 137
3 138 139 140
3 140 141 138
3 73 142 143
3 143 71 73
3 138 141 144
3 145 146 147
3 145 147 69
3 148 145 69
3 148 69 149
3 150 148 149
3 150 149 151
3 146 150 151
3 146 151 147
3 145 152 153
3 153 146 145
3 154 150 146
3 146 153 154
3 152 155 154
3 154 153 152
3 155 148 150
3 150 154 155
3 148 155 152
3 152 145 148
3 156 157 158
3 156 158 159
3 156 159 160
3 161 156 160
3 162 161 160
3 163 162 160
3 163 160 164
3 165 166 167
3 165 167 168
3 164 165 168
3 163 164 168
3 169 170 171
3 172 173 174
3 172 174 156
3 172 156 175
3 176 177 178
3 179 180 181
3 182 179 181
3 182 181 171
3 183 184 185
3 185 176 183
3 166 186 187
3 188 189 190
3 188 190 174
3 188 174 173
3 191 192 193
3 193 194 191
3 195 196 197
3 195 197 198
3 195 198 199
3 200 201 185
3 185 184 200
3 202 203 204
3 202 204 190
3 202 190 189
3 205 206 207
3 207 208 205
3 209 210 211
3 211 212 209
3 213 214 196
3 215 213 196
3 215 196 216
3 217 218 219
3 217 219 220
3 217 220 221
3 222 223 224
3 224 225 222
3 216 226 227
3 216 227 228
3 216 228 229
3 230 231 232
3 232 210 230
3 233 185 234
3 235 236 237
3 235 237 238
3 235 238 239
3 235 239 240
3 241 242 243
3 241 243 244
3 241 244 237
3 245 246 231
3 247 248 249
3 226 247 249
3 226 249 250
3 226 250 227
3 185 251 252
3 252 253 185
3 254 255 256
3 254 256 257
3 254 257 258
3 259 260 246
3 246 245 259
3 261 262 263
3 261 263 264
3 261 264 265
3 266 267 268
3 205 266 268
3 251 205 268
3 269 270 271
3 269 271 272
3 269 272 273
3 274 275 276
3 274 276 263
3 274 263 262
3 277 278 279
3 277 279 248
3 277 248 247
3 280 281 282
3 282 260 280
3 283 284 273
3 283 273 272
3 283 272 285
3 283 285 286
3 287 288 289
3 290 287 289
3 291 290 289
3 291 289 292
3 205 293 294
3 294 295 205
3 296 297 298
3 285 296 298
3 286 285 298
3 299 300 301
3 299 301 278
3 299 278 277
3 302 303 304
3 302 304 305
3 302 305 306
3 307 308 185
3 185 281 307
3 309 310 311
3 311 312 313
3 309 311 313
3 314 297 296
3 304 315 316
3 296 304 316
3 314 296 316
3 317 318 319
3 317 319 320
3 317 320 299
3 185 321 322
3 322 323 185
3 324 310 309
3 324 309 325
3 324 325 326
3 324 326 327
3 328 329 330
3 331 332 333
3 334 331 333
3 335 334 333
3 336 335 333
3 336 333 337
3 336 337 338
3 336 338 339
3 336 339 340
3 336 340 341
3 336 341 342
3 336 342 343
3 336 343 344
3 336 344 345
3 336 345 346
3 336 346 347
3 336 347 348
3 336 348 349
3 350 336 349
3 351 350 349
3 352 351 349
3 353 352 349
3 354 353 349
3 355 354 349
3 356 355 349
3 357 356 349
3 358 357 349
3 359 358 349
3 360 359 349
3 361 360 349
3 362 361 349
3 363 362 349
3 330 363 349
3 328 330 349
3 364 365 366
3 364 366 367
3 364 367 368
3 369 370 205
3 205 308 369
3 371 372 373
3 374 371 373
3 375 374 373
3 375 373 376
3 375 376 377
3 375 377 378
3 205 379 380
3 380 381 205
3 382 383 384
3 382 384 385
3 382 385 386
3 387 388 389
3 387 389 384
3 387 384 383
3 390 391 392
3 390 392 393
3 390 393 394
3 395 396 397
3 397 370 395
3 398 399 400
3 398 400 401
3 398 401 402
3 391 403 404
3 391 404 405
3 391 405 392
3 406 407 379
3 379 205 406
3 408 409 410
3 408 410 411
3 408 411 412
3 413 414 403
3 415 416 417
3 403 415 417
3 413 403 417
3 418 205 396
3 419 420 421
3 419 421 422
3 419 422 423
3 424 425 426
3 415 424 426
3 415 426 416
3 427 428 429
3 430 431 432
3 433 430 432
3 433 432 434
3 435 38 436
3 437 438 439
3 440 441 2
3 2 1 440
3 442 443 444
3 444 445 446
3 444 446 447
3 444 447 448
3 444 448 449
3 444 449 450
3 444 450 451
3 444 451 452
3 444 452 453
3 442 444 453
3 442 453 454
3 442 454 455
3 442 455 456
3 442 456 457
3 442 457 458
3 442 458 459
3 442 459 460
3 442 460 461
3 457 456 462
3 456 455 463
3 33 32 464
3 465 33 464
3 466 465 464
3 464 467 468
3 464 468 469
3 466 464 469
3 466 469 470
3 1 36 471
3 471 440 1
3 472 473 37
3 474 472 37
3 41 474 37
3 444 475 476
3 444 476 477
3 444 477 478
3 444 478 479
3 444 479 480
3 444 480 445
3 481 482 483
3 484 485 486
3 484 486 460
3 487 484 460
3 481 487 460
3 482 481 460
3 460 459 488
3 460 488 489
3 460 489 490
3 460 490 491
3 482 460 491
3 492 482 491
3 493 492 491
3 493 491 494
3 493 494 495
3 489 488 496
3 473 497 498
3 499 473 498
3 499 498 500
3 499 500 501
3 502 499 501
3 502 501 503
3 504 505 506
3 504 506 468
3 504 468 467
3 76 507 508
3 76 508 509
3 78 76 509
3 510 85 84
3 511 510 84
3 511 84 82
3 81 512 513
3 82 81 513
3 511 82 513
3 514 515 516
3 517 475 444
3 518 517 444
3 519 518 444
3 520 519 444
3 521 520 444
3 522 521 444
3 523 522 444
3 524 523 444
3 525 524 444
3 526 525 444
3 527 526 444
3 527 444 528
3 529 527 528
3 530 529 528
3 531 530 528
3 532 531 528
3 533 532 528
3 534 533 528
3 535 534 528
3 536 535 528
3 537 536 528
3 538 537 528
3 538 528 539
3 540 538 539
3 541 540 539
3 541 539 542
3 543 541 542
3 544 543 542
3 545 544 542
3 546 545 542
3 547 546 542
3 548 547 542
3 549 548 542
3 550 549 542
3 551 550 542
3 514 551 542
3 515 514 542
3 486 485 552
3 486 552 553
3 486 553 554
3 542 486 554
3 542 554 555
3 542 555 556
3 542 556 557
3 542 557 558
3 542 558 559
3 515 542 559
3 560 515 559
3 560 559 561
3 557 556 562
3 553 552 563
3 485 564 552
3 565 141 140
3 140 566 565
3 505 504 143
3 143 142 505
3 565 144 141
3 567 568 151
3 568 567 569
3 499 568 569
3 499 569 570
3 149 499 570
3 149 570 571
3 151 149 571
3 567 151 571
3 569 567 572
3 572 573 569
3 574 572 567
3 567 571 574
3 573 572 574
3 574 575 573
3 575 574 571
3 571 570 575
3 570 569 573
3 573 575 570
3 576 577 578
3 579 576 578
3 579 578 580
3 581 579 580
3 581 580 582
3 583 584 585
3 586 583 585
3 582 586 585
3 582 585 587
3 582 587 588
3 581 582 588
3 589 590 591
3 592 593 585
3 592 585 594
3 592 594 595
3 596 597 598
3 599 590 600
3 600 601 602
3 599 600 602
3 603 596 604
3 604 605 603
3 577 606 607
3 608 595 594
3 608 594 609
3 608 609 610
3 611 612 613
3 613 614 611
3 615 616 617
3 615 617 618
3 615 618 619
3 620 605 604
3 604 621 620
3 622 610 609
3 622 609 623
3 622 623 624
3 625 626 627
3 627 628 625
3 629 630 631
3 631 632 629
3 633 634 619
3 619 635 636
3 633 619 636
3 637 638 639
3 637 639 640
3 637 640 641
3 642 643 644
3 644 645 642
3 634 646 647
3 634 647 648
3 634 648 649
3 650 632 651
3 651 652 650
3 653 654 604
3 655 656 657
3 655 657 658
3 655 658 659
3 655 659 660
3 661 659 662
3 661 662 663
3 661 663 664
3 665 652 666
3 649 648 667
3 649 667 668
3 668 669 670
3 649 668 670
3 604 671 672
3 672 673 604
3 674 675 676
3 674 676 677
3 674 677 678
3 679 665 666
3 666 680 679
3 681 682 683
3 681 683 684
3 681 684 685
3 686 687 688
3 686 688 625
3 673 686 625
3 689 690 691
3 689 691 692
3 689 692 693
3 694 685 684
3 694 684 695
3 694 695 696
3 697 670 669
3 697 669 698
3 697 698 699
3 700 680 701
3 701 702 700
3 703 704 705
3 703 705 691
3 703 691 690
3 703 690 706
3 707 708 709
3 709 710 711
3 709 711 712
3 707 709 712
3 625 713 714
3 714 715 625
3 716 717 718
3 716 718 705
3 704 716 705
3 719 697 699
3 719 699 720
3 719 720 721
3 722 723 724
3 722 724 725
3 722 725 726
3 727 702 604
3 604 728 727
3 729 730 731
3 732 729 731
3 732 731 733
3 734 735 725
3 734 725 718
3 736 734 718
3 736 718 717
3 737 719 738
3 737 738 739
3 737 739 740
3 604 741 742
3 742 743 604
3 744 745 746
3 744 746 747
3 744 747 732
3 744 732 733
3 748 749 750
3 748 750 751
3 748 751 752
3 748 752 753
3 754 748 753
3 755 754 753
3 756 755 753
3 757 756 753
3 758 757 753
3 759 758 753
3 760 759 753
3 761 760 753
3 762 761 753
3 763 762 753
3 764 763 753
3 765 764 753
3 766 765 753
3 766 753 767
3 766 767 768
3 766 768 769
3 766 769 770
3 766 770 771
3 766 771 772
3 766 772 773
3 766 773 774
3 766 774 775
3 766 775 776
3 766 776 777
3 766 777 778
3 766 778 779
3 766 779 780
3 766 780 781
3 782 766 781
3 782 781 783
3 784 785 786
3 784 786 787
3 784 787 788
3 789 728 625
3 625 790 789
3 791 792 793
3 791 793 794
3 791 794 795
3 795 796 797
3 795 797 798
3 791 795 798
3 625 799 800
3 800 801 625
3 802 803 804
3 802 804 805
3 802 805 806
3 807 806 805
3 807 805 808
3 807 808 809
3 810 811 812
3 810 812 813
3 810 813 814
3 815 790 816
3 816 817 815
3 818 819 820
3 818 820 821
3 818 821 822
3 814 813 823
3 814 823 824
3 814 824 825
3 826 625 801
3 801 827 826
3 828 829 830
3 828 830 831
3 828 831 832
3 833 834 835
3 833 835 825
3 836 833 825
3 836 825 837
3 838 817 625
3 839 840 841
3 839 841 842
3 839 842 843
3 835 834 844
3 844 845 846
3 835 844 846
3 427 429 847
3 433 434 848
3 848 849 850
3 433 848 850
3 435 436 473
3 437 439 851
