ply
format ascii 1.0
comment Created by Blender 2.79 (sub 0) - www.blender.org, source file: ''
element vertex 100
property float x
property float y
property float z
element face 156
property list uchar uint vertex_indices
end_header
-0.832777 -3.286645 0.656497
-0.061535 -3.286645 0.656497
-0.061535 -3.093152 0.681364
-0.841103 -3.093152 0.681364
0.000000 -1.021957 0.318995
0.000000 -0.976920 -0.362606
-0.638513 -0.978436 -0.340919
-0.638513 -1.019384 0.284492
0.000000 -1.361382 0.361677
0.000000 -1.111832 0.378930
-0.548856 -1.111832 0.344429
-0.548856 -1.361382 0.327176
-0.638513 -1.451039 -0.398201
-0.638513 -1.451039 0.259186
-0.638513 -1.019384 0.284492
-0.638513 -0.978436 -0.340919
0.000000 -1.451039 0.293682
0.000000 -1.361382 0.301742
-0.548856 -1.361382 0.264463
-0.638513 -1.451039 0.259186
-0.638513 -1.019384 0.284492
-0.548856 -1.111832 0.279159
-0.638513 -1.451039 -0.398201
-0.638513 -0.978436 -0.340919
0.000000 -0.976920 -0.362606
0.000000 -1.451039 -0.398201
0.000000 -1.021957 0.318995
0.000000 -1.111832 0.322782
-0.638513 -1.451039 0.259186
-0.638513 -1.451039 -0.398201
-0.563640 -1.451039 -0.263164
-0.563640 -1.451039 0.185006
0.000000 -1.451039 -0.398201
-0.074870 -1.451039 -0.281016
0.000000 -1.451039 0.293682
-0.074870 -1.451039 0.162806
-0.563640 -2.095031 -0.296791
-0.563640 -2.166564 0.108885
-0.074870 -2.093359 -0.306237
-0.074870 -2.163083 0.089160
-0.804294 -2.105644 -0.451893
-0.804294 -2.223963 0.219216
-0.066122 -2.060952 -0.490014
-0.066122 -2.181827 0.195591
-0.066122 -2.601639 -0.629990
-0.829860 -2.608360 -0.591872
-0.829860 -2.630980 0.252621
-0.066122 -2.626815 0.228995
-0.064506 -3.308746 -0.702050
-0.835744 -3.308746 -0.663926
-0.843326 -2.878584 0.327156
-0.064506 -2.874418 0.303531
-0.061535 -3.316617 0.136665
-0.832777 -3.316617 0.136665
-0.842228 -3.047053 0.668670
-0.061535 -3.047053 0.668670
0.832777 -3.286645 0.656497
0.841103 -3.093152 0.681364
0.061535 -3.093152 0.681364
0.061535 -3.286645 0.656497
0.638513 -1.019384 0.284492
0.638513 -0.978436 -0.340919
0.548856 -1.361382 0.327176
0.548856 -1.111832 0.344429
0.638513 -1.451039 -0.398201
0.638513 -0.978436 -0.340919
0.638513 -1.019384 0.284492
0.638513 -1.451039 0.259186
0.638513 -1.451039 0.259186
0.548856 -1.361382 0.264463
0.638513 -1.019384 0.284492
0.548856 -1.111832 0.279159
0.638513 -1.451039 -0.398201
0.638513 -0.978436 -0.340919
0.638513 -1.451039 0.259186
0.563640 -1.451039 0.185006
0.563640 -1.451039 -0.263164
0.638513 -1.451039 -0.398201
0.074870 -1.451039 -0.281016
0.074870 -1.451039 0.162806
0.563640 -2.166564 0.108885
0.563640 -2.095031 -0.296791
0.074870 -2.093359 -0.306237
0.074870 -2.163083 0.089160
0.804294 -2.223963 0.219216
0.804294 -2.105644 -0.451893
0.066122 -2.060952 -0.490014
0.066122 -2.181827 0.195591
0.829860 -2.608360 -0.591872
0.066122 -2.601639 -0.629990
0.066122 -2.626815 0.228995
0.829860 -2.630980 0.252621
0.835744 -3.308746 -0.663926
0.064506 -3.308746 -0.702050
0.064506 -2.874418 0.303531
0.843326 -2.878584 0.327156
0.832777 -3.316617 0.136665
0.061535 -3.316617 0.136665
0.061535 -3.047053 0.668670
0.842228 -3.047053 0.668670
3 0 1 2
3 3 0 2
3 4 5 6
3 6 7 4
3 8 9 10
3 10 11 8
3 12 13 14
3 14 15 12
3 16 17 18
3 18 19 16
3 20 19 18
3 18 21 20
3 17 8 11
3 11 18 17
3 21 18 11
3 11 10 21
3 22 23 24
3 24 25 22
3 26 20 21
3 21 27 26
3 21 10 9
3 9 27 21
3 28 29 30
3 30 31 28
3 29 32 33
3 33 30 29
3 32 34 35
3 35 33 32
3 34 28 31
3 31 35 34
3 31 30 36
3 36 37 31
3 30 33 38
3 38 36 30
3 33 35 39
3 39 38 33
3 35 31 37
3 37 39 35
3 36 40 41
3 41 37 36
3 36 38 42
3 42 40 36
3 42 38 39
3 39 43 42
3 37 41 43
3 43 39 37
3 40 42 44
3 44 45 40
3 43 41 46
3 46 47 43
3 45 44 48
3 48 49 45
3 47 46 50
3 50 51 47
3 49 48 52
3 52 53 49
3 51 50 54
3 54 55 51
3 41 40 45
3 46 41 45
3 46 45 49
3 50 46 49
3 50 49 53
3 54 50 53
3 53 0 54
3 54 0 3
3 53 52 1
3 1 0 53
3 42 43 47
3 44 42 47
3 44 47 51
3 48 44 51
3 48 51 55
3 52 48 55
3 52 55 2
3 52 2 1
3 55 54 3
3 3 2 55
3 56 57 58
3 58 59 56
3 4 60 61
3 61 5 4
3 8 62 63
3 63 9 8
3 64 65 66
3 66 67 64
3 16 68 69
3 69 17 16
3 70 71 69
3 69 68 70
3 17 69 62
3 62 8 17
3 71 63 62
3 62 69 71
3 72 25 24
3 24 73 72
3 26 27 71
3 71 70 26
3 71 27 9
3 9 63 71
3 74 75 76
3 76 77 74
3 77 76 78
3 78 32 77
3 32 78 79
3 79 34 32
3 34 79 75
3 75 74 34
3 75 80 81
3 81 76 75
3 76 81 82
3 82 78 76
3 78 82 83
3 83 79 78
3 79 83 80
3 80 75 79
3 81 80 84
3 84 85 81
3 81 85 86
3 86 82 81
3 86 87 83
3 83 82 86
3 80 83 87
3 87 84 80
3 85 88 89
3 89 86 85
3 87 90 91
3 91 84 87
3 88 92 93
3 93 89 88
3 90 94 95
3 95 91 90
3 92 96 97
3 97 93 92
3 94 98 99
3 99 95 94
3 99 57 56
3 99 56 96
3 88 85 84
3 88 84 91
3 92 88 91
3 92 91 95
3 96 92 95
3 99 96 95
3 96 56 59
3 59 97 96
3 97 59 58
3 97 58 98
3 90 87 86
3 90 86 89
3 94 90 89
3 94 89 93
3 98 94 93
3 97 98 93
3 98 58 57
3 57 99 98
